<mxfile host="app.diagrams.net" modified="2023-10-11T08:57:51.608Z" agent="Mozilla/5.0 (X11; Linux x86_64; rv:109.0) Gecko/20100101 Firefox/115.0" etag="78RmKTDQPhwDYZud74cK" version="22.0.4" type="device" pages="5">
  <diagram name="Denoiser" id="p7BnmIozHpm4p_nHr0xh">
    <mxGraphModel dx="880" dy="1577" grid="1" gridSize="10" guides="1" tooltips="1" connect="1" arrows="1" fold="1" page="1" pageScale="1" pageWidth="850" pageHeight="1100" math="0" shadow="0">
      <root>
        <mxCell id="0" />
        <mxCell id="1" parent="0" />
        <mxCell id="uTfE3qd8RMJCnj_DGvpx-3" value="" style="rounded=0;whiteSpace=wrap;html=1;fillColor=none;dashed=1;dashPattern=8 8;" parent="1" vertex="1">
          <mxGeometry x="300" y="-1030" width="530" height="680" as="geometry" />
        </mxCell>
        <mxCell id="uTfE3qd8RMJCnj_DGvpx-4" value="" style="rounded=0;whiteSpace=wrap;html=1;fillColor=none;dashed=1;dashPattern=8 8;" parent="1" vertex="1">
          <mxGeometry x="110" y="-1060" width="170" height="280" as="geometry" />
        </mxCell>
        <mxCell id="uTfE3qd8RMJCnj_DGvpx-5" style="rounded=0;orthogonalLoop=1;jettySize=auto;html=1;exitX=1;exitY=0;exitDx=0;exitDy=0;entryX=0;entryY=0;entryDx=0;entryDy=0;endArrow=none;endFill=0;" parent="1" source="uTfE3qd8RMJCnj_DGvpx-7" target="uTfE3qd8RMJCnj_DGvpx-10" edge="1">
          <mxGeometry relative="1" as="geometry" />
        </mxCell>
        <mxCell id="uTfE3qd8RMJCnj_DGvpx-6" style="rounded=0;orthogonalLoop=1;jettySize=auto;html=1;exitX=1;exitY=1;exitDx=0;exitDy=0;entryX=0;entryY=1;entryDx=0;entryDy=0;endArrow=none;endFill=0;" parent="1" source="uTfE3qd8RMJCnj_DGvpx-7" target="uTfE3qd8RMJCnj_DGvpx-10" edge="1">
          <mxGeometry relative="1" as="geometry" />
        </mxCell>
        <mxCell id="uTfE3qd8RMJCnj_DGvpx-7" value="&lt;font style=&quot;font-size: 11px;&quot; face=&quot;Lucida Console&quot;&gt;32, 32&lt;/font&gt;" style="whiteSpace=wrap;html=1;aspect=fixed;" parent="1" vertex="1">
          <mxGeometry x="130" y="-901.25" width="40" height="40" as="geometry" />
        </mxCell>
        <mxCell id="uTfE3qd8RMJCnj_DGvpx-10" value="&lt;div&gt;&lt;font face=&quot;Lucida Console&quot;&gt;2x2 Resize&lt;/font&gt;&lt;/div&gt;" style="whiteSpace=wrap;html=1;aspect=fixed;" parent="1" vertex="1">
          <mxGeometry x="200" y="-902.5" width="42.5" height="42.5" as="geometry" />
        </mxCell>
        <mxCell id="uTfE3qd8RMJCnj_DGvpx-11" style="edgeStyle=orthogonalEdgeStyle;rounded=0;orthogonalLoop=1;jettySize=auto;html=1;exitX=0.5;exitY=1;exitDx=0;exitDy=0;entryX=0.5;entryY=0;entryDx=0;entryDy=0;" parent="1" source="uTfE3qd8RMJCnj_DGvpx-12" target="uTfE3qd8RMJCnj_DGvpx-10" edge="1">
          <mxGeometry relative="1" as="geometry" />
        </mxCell>
        <mxCell id="uTfE3qd8RMJCnj_DGvpx-12" value="&lt;font face=&quot;Lucida Console&quot;&gt;AWGN&lt;/font&gt;" style="whiteSpace=wrap;html=1;aspect=fixed;" parent="1" vertex="1">
          <mxGeometry x="181.25" y="-1040" width="80" height="80" as="geometry" />
        </mxCell>
        <mxCell id="uTfE3qd8RMJCnj_DGvpx-14" style="edgeStyle=orthogonalEdgeStyle;rounded=0;orthogonalLoop=1;jettySize=auto;html=1;exitX=1;exitY=0.5;exitDx=0;exitDy=0;entryX=0;entryY=0.5;entryDx=0;entryDy=0;" parent="1" source="uTfE3qd8RMJCnj_DGvpx-15" target="uTfE3qd8RMJCnj_DGvpx-17" edge="1">
          <mxGeometry relative="1" as="geometry" />
        </mxCell>
        <mxCell id="uTfE3qd8RMJCnj_DGvpx-15" value="&lt;font face=&quot;Lucida Console&quot;&gt;ReLU&lt;/font&gt;" style="whiteSpace=wrap;html=1;aspect=fixed;" parent="1" vertex="1">
          <mxGeometry x="470" y="-900" width="40" height="40" as="geometry" />
        </mxCell>
        <mxCell id="uTfE3qd8RMJCnj_DGvpx-16" style="edgeStyle=orthogonalEdgeStyle;rounded=0;orthogonalLoop=1;jettySize=auto;html=1;exitX=1;exitY=0.5;exitDx=0;exitDy=0;entryX=0;entryY=0.5;entryDx=0;entryDy=0;" parent="1" source="uTfE3qd8RMJCnj_DGvpx-17" target="uTfE3qd8RMJCnj_DGvpx-24" edge="1">
          <mxGeometry relative="1" as="geometry" />
        </mxCell>
        <mxCell id="uTfE3qd8RMJCnj_DGvpx-17" value="&lt;font face=&quot;Lucida Console&quot;&gt;Batch Normalisation&lt;/font&gt;" style="rounded=0;whiteSpace=wrap;html=1;" parent="1" vertex="1">
          <mxGeometry x="540" y="-900" width="120" height="40" as="geometry" />
        </mxCell>
        <mxCell id="uTfE3qd8RMJCnj_DGvpx-18" style="rounded=0;orthogonalLoop=1;jettySize=auto;html=1;exitX=1;exitY=0;exitDx=0;exitDy=0;entryX=0;entryY=0;entryDx=0;entryDy=0;endArrow=none;endFill=0;" parent="1" source="uTfE3qd8RMJCnj_DGvpx-10" target="uTfE3qd8RMJCnj_DGvpx-21" edge="1">
          <mxGeometry relative="1" as="geometry">
            <mxPoint x="280" y="-920.0000000000002" as="sourcePoint" />
          </mxGeometry>
        </mxCell>
        <mxCell id="uTfE3qd8RMJCnj_DGvpx-19" style="rounded=0;orthogonalLoop=1;jettySize=auto;html=1;exitX=1;exitY=1;exitDx=0;exitDy=0;entryX=0;entryY=1;entryDx=0;entryDy=0;endArrow=none;endFill=0;" parent="1" source="uTfE3qd8RMJCnj_DGvpx-10" target="uTfE3qd8RMJCnj_DGvpx-21" edge="1">
          <mxGeometry relative="1" as="geometry">
            <mxPoint x="280" y="-840.0000000000002" as="sourcePoint" />
          </mxGeometry>
        </mxCell>
        <mxCell id="uTfE3qd8RMJCnj_DGvpx-20" style="edgeStyle=orthogonalEdgeStyle;rounded=0;orthogonalLoop=1;jettySize=auto;html=1;exitX=1;exitY=0.5;exitDx=0;exitDy=0;entryX=0;entryY=0.5;entryDx=0;entryDy=0;" parent="1" source="uTfE3qd8RMJCnj_DGvpx-21" target="uTfE3qd8RMJCnj_DGvpx-15" edge="1">
          <mxGeometry relative="1" as="geometry" />
        </mxCell>
        <mxCell id="uTfE3qd8RMJCnj_DGvpx-21" value="&lt;div&gt;&lt;font face=&quot;Lucida Console&quot;&gt;Convolution 1x1x1280&lt;br&gt;&lt;/font&gt;&lt;/div&gt;" style="whiteSpace=wrap;html=1;aspect=fixed;" parent="1" vertex="1">
          <mxGeometry x="320" y="-940" width="120" height="120" as="geometry" />
        </mxCell>
        <mxCell id="uTfE3qd8RMJCnj_DGvpx-24" value="&lt;font face=&quot;Lucida Console&quot;&gt;128 x 128 x 1280&lt;br&gt;&lt;/font&gt;" style="whiteSpace=wrap;html=1;aspect=fixed;" parent="1" vertex="1">
          <mxGeometry x="690" y="-940" width="120" height="120" as="geometry" />
        </mxCell>
        <mxCell id="Gnnl3Iw8qT7of2xsN7ti-3" style="edgeStyle=none;curved=1;rounded=0;orthogonalLoop=1;jettySize=auto;html=1;exitX=0;exitY=0.5;exitDx=0;exitDy=0;entryX=1;entryY=0.5;entryDx=0;entryDy=0;fontSize=12;startSize=8;endSize=8;" parent="1" source="uTfE3qd8RMJCnj_DGvpx-50" target="Gnnl3Iw8qT7of2xsN7ti-1" edge="1">
          <mxGeometry relative="1" as="geometry" />
        </mxCell>
        <mxCell id="uTfE3qd8RMJCnj_DGvpx-50" value="&lt;div&gt;&lt;font face=&quot;Lucida Console&quot;&gt;Convolution 1x1x1280&lt;br&gt;&lt;/font&gt;&lt;/div&gt;" style="whiteSpace=wrap;html=1;aspect=fixed;" parent="1" vertex="1">
          <mxGeometry x="690" y="-790" width="120" height="120" as="geometry" />
        </mxCell>
        <mxCell id="uTfE3qd8RMJCnj_DGvpx-52" value="&lt;font face=&quot;Lucida Console&quot;&gt;Noise Interference Port&lt;/font&gt;" style="text;html=1;strokeColor=none;fillColor=none;align=center;verticalAlign=middle;whiteSpace=wrap;rounded=0;" parent="1" vertex="1">
          <mxGeometry x="115" y="-810" width="160" height="30" as="geometry" />
        </mxCell>
        <mxCell id="uTfE3qd8RMJCnj_DGvpx-53" value="&lt;font face=&quot;Lucida Console&quot;&gt;Network in Network Stage&lt;br&gt;&lt;/font&gt;" style="text;html=1;strokeColor=none;fillColor=none;align=center;verticalAlign=middle;whiteSpace=wrap;rounded=0;" parent="1" vertex="1">
          <mxGeometry x="440" y="-1030" width="240" height="30" as="geometry" />
        </mxCell>
        <mxCell id="uTfE3qd8RMJCnj_DGvpx-66" style="rounded=0;orthogonalLoop=1;jettySize=auto;html=1;exitX=0;exitY=1;exitDx=0;exitDy=0;entryX=0;entryY=0;entryDx=0;entryDy=0;endArrow=none;endFill=0;" parent="1" source="uTfE3qd8RMJCnj_DGvpx-24" target="uTfE3qd8RMJCnj_DGvpx-50" edge="1">
          <mxGeometry relative="1" as="geometry">
            <mxPoint x="850" y="-840" as="sourcePoint" />
            <mxPoint x="850" y="-705" as="targetPoint" />
          </mxGeometry>
        </mxCell>
        <mxCell id="uTfE3qd8RMJCnj_DGvpx-67" style="rounded=0;orthogonalLoop=1;jettySize=auto;html=1;exitX=1;exitY=1;exitDx=0;exitDy=0;entryX=1;entryY=0;entryDx=0;entryDy=0;endArrow=none;endFill=0;" parent="1" source="uTfE3qd8RMJCnj_DGvpx-24" target="uTfE3qd8RMJCnj_DGvpx-50" edge="1">
          <mxGeometry relative="1" as="geometry">
            <mxPoint x="930" y="-840" as="sourcePoint" />
            <mxPoint x="930" y="-705" as="targetPoint" />
          </mxGeometry>
        </mxCell>
        <mxCell id="Gnnl3Iw8qT7of2xsN7ti-4" style="edgeStyle=none;curved=1;rounded=0;orthogonalLoop=1;jettySize=auto;html=1;exitX=0;exitY=0.5;exitDx=0;exitDy=0;entryX=1;entryY=0.5;entryDx=0;entryDy=0;fontSize=12;startSize=8;endSize=8;" parent="1" source="Gnnl3Iw8qT7of2xsN7ti-1" target="Gnnl3Iw8qT7of2xsN7ti-2" edge="1">
          <mxGeometry relative="1" as="geometry" />
        </mxCell>
        <mxCell id="Gnnl3Iw8qT7of2xsN7ti-1" value="&lt;font face=&quot;Lucida Console&quot;&gt;ReLU&lt;/font&gt;" style="whiteSpace=wrap;html=1;aspect=fixed;" parent="1" vertex="1">
          <mxGeometry x="620" y="-750" width="40" height="40" as="geometry" />
        </mxCell>
        <mxCell id="Gnnl3Iw8qT7of2xsN7ti-6" style="edgeStyle=none;curved=1;rounded=0;orthogonalLoop=1;jettySize=auto;html=1;exitX=0;exitY=0.5;exitDx=0;exitDy=0;entryX=1;entryY=0.5;entryDx=0;entryDy=0;fontSize=12;startSize=8;endSize=8;" parent="1" source="Gnnl3Iw8qT7of2xsN7ti-2" target="Gnnl3Iw8qT7of2xsN7ti-5" edge="1">
          <mxGeometry relative="1" as="geometry" />
        </mxCell>
        <mxCell id="Gnnl3Iw8qT7of2xsN7ti-2" value="&lt;font face=&quot;Lucida Console&quot;&gt;Batch Normalisation&lt;/font&gt;" style="rounded=0;whiteSpace=wrap;html=1;" parent="1" vertex="1">
          <mxGeometry x="470" y="-750" width="120" height="40" as="geometry" />
        </mxCell>
        <mxCell id="Gnnl3Iw8qT7of2xsN7ti-5" value="&lt;font face=&quot;Lucida Console&quot;&gt;128 x 128 x 1280&lt;br&gt;&lt;/font&gt;" style="whiteSpace=wrap;html=1;aspect=fixed;" parent="1" vertex="1">
          <mxGeometry x="320" y="-790" width="120" height="120" as="geometry" />
        </mxCell>
        <mxCell id="Gnnl3Iw8qT7of2xsN7ti-7" style="edgeStyle=orthogonalEdgeStyle;rounded=0;orthogonalLoop=1;jettySize=auto;html=1;exitX=1;exitY=0.5;exitDx=0;exitDy=0;entryX=0;entryY=0.5;entryDx=0;entryDy=0;" parent="1" source="Gnnl3Iw8qT7of2xsN7ti-8" target="Gnnl3Iw8qT7of2xsN7ti-10" edge="1">
          <mxGeometry relative="1" as="geometry" />
        </mxCell>
        <mxCell id="Gnnl3Iw8qT7of2xsN7ti-8" value="&lt;font face=&quot;Lucida Console&quot;&gt;ReLU&lt;/font&gt;" style="whiteSpace=wrap;html=1;aspect=fixed;" parent="1" vertex="1">
          <mxGeometry x="470" y="-600" width="40" height="40" as="geometry" />
        </mxCell>
        <mxCell id="Gnnl3Iw8qT7of2xsN7ti-9" style="edgeStyle=orthogonalEdgeStyle;rounded=0;orthogonalLoop=1;jettySize=auto;html=1;exitX=1;exitY=0.5;exitDx=0;exitDy=0;entryX=0;entryY=0.5;entryDx=0;entryDy=0;" parent="1" source="Gnnl3Iw8qT7of2xsN7ti-10" target="Gnnl3Iw8qT7of2xsN7ti-15" edge="1">
          <mxGeometry relative="1" as="geometry" />
        </mxCell>
        <mxCell id="Gnnl3Iw8qT7of2xsN7ti-10" value="&lt;font face=&quot;Lucida Console&quot;&gt;Batch Normalisation&lt;/font&gt;" style="rounded=0;whiteSpace=wrap;html=1;" parent="1" vertex="1">
          <mxGeometry x="540" y="-600" width="120" height="40" as="geometry" />
        </mxCell>
        <mxCell id="Gnnl3Iw8qT7of2xsN7ti-13" style="edgeStyle=orthogonalEdgeStyle;rounded=0;orthogonalLoop=1;jettySize=auto;html=1;exitX=1;exitY=0.5;exitDx=0;exitDy=0;entryX=0;entryY=0.5;entryDx=0;entryDy=0;" parent="1" source="Gnnl3Iw8qT7of2xsN7ti-14" target="Gnnl3Iw8qT7of2xsN7ti-8" edge="1">
          <mxGeometry relative="1" as="geometry" />
        </mxCell>
        <mxCell id="Gnnl3Iw8qT7of2xsN7ti-14" value="&lt;div&gt;&lt;font face=&quot;Lucida Console&quot;&gt;Convolution 1x1x1280&lt;br&gt;&lt;/font&gt;&lt;/div&gt;" style="whiteSpace=wrap;html=1;aspect=fixed;" parent="1" vertex="1">
          <mxGeometry x="320" y="-640" width="120" height="120" as="geometry" />
        </mxCell>
        <mxCell id="Gnnl3Iw8qT7of2xsN7ti-15" value="&lt;font face=&quot;Lucida Console&quot;&gt;128 x 128 x 1280&lt;br&gt;&lt;/font&gt;" style="whiteSpace=wrap;html=1;aspect=fixed;" parent="1" vertex="1">
          <mxGeometry x="690" y="-640" width="120" height="120" as="geometry" />
        </mxCell>
        <mxCell id="Gnnl3Iw8qT7of2xsN7ti-17" style="edgeStyle=none;curved=1;rounded=0;orthogonalLoop=1;jettySize=auto;html=1;exitX=0;exitY=0.5;exitDx=0;exitDy=0;entryX=1;entryY=0.5;entryDx=0;entryDy=0;fontSize=12;startSize=8;endSize=8;" parent="1" source="Gnnl3Iw8qT7of2xsN7ti-18" target="Gnnl3Iw8qT7of2xsN7ti-20" edge="1">
          <mxGeometry relative="1" as="geometry" />
        </mxCell>
        <mxCell id="Gnnl3Iw8qT7of2xsN7ti-18" value="&lt;div&gt;&lt;font face=&quot;Lucida Console&quot;&gt;Convolution 1x1x1280&lt;br&gt;&lt;/font&gt;&lt;/div&gt;" style="whiteSpace=wrap;html=1;aspect=fixed;" parent="1" vertex="1">
          <mxGeometry x="690" y="-490" width="120" height="120" as="geometry" />
        </mxCell>
        <mxCell id="Gnnl3Iw8qT7of2xsN7ti-19" style="edgeStyle=none;curved=1;rounded=0;orthogonalLoop=1;jettySize=auto;html=1;exitX=0;exitY=0.5;exitDx=0;exitDy=0;entryX=1;entryY=0.5;entryDx=0;entryDy=0;fontSize=12;startSize=8;endSize=8;" parent="1" source="Gnnl3Iw8qT7of2xsN7ti-20" target="Gnnl3Iw8qT7of2xsN7ti-22" edge="1">
          <mxGeometry relative="1" as="geometry" />
        </mxCell>
        <mxCell id="Gnnl3Iw8qT7of2xsN7ti-20" value="&lt;font face=&quot;Lucida Console&quot;&gt;ReLU&lt;/font&gt;" style="whiteSpace=wrap;html=1;aspect=fixed;" parent="1" vertex="1">
          <mxGeometry x="620" y="-450" width="40" height="40" as="geometry" />
        </mxCell>
        <mxCell id="Gnnl3Iw8qT7of2xsN7ti-21" style="edgeStyle=none;curved=1;rounded=0;orthogonalLoop=1;jettySize=auto;html=1;exitX=0;exitY=0.5;exitDx=0;exitDy=0;entryX=1;entryY=0.5;entryDx=0;entryDy=0;fontSize=12;startSize=8;endSize=8;" parent="1" source="Gnnl3Iw8qT7of2xsN7ti-22" target="Gnnl3Iw8qT7of2xsN7ti-23" edge="1">
          <mxGeometry relative="1" as="geometry" />
        </mxCell>
        <mxCell id="Gnnl3Iw8qT7of2xsN7ti-22" value="&lt;font face=&quot;Lucida Console&quot;&gt;Batch Normalisation&lt;/font&gt;" style="rounded=0;whiteSpace=wrap;html=1;" parent="1" vertex="1">
          <mxGeometry x="470" y="-450" width="120" height="40" as="geometry" />
        </mxCell>
        <mxCell id="Gnnl3Iw8qT7of2xsN7ti-23" value="&lt;font face=&quot;Lucida Console&quot;&gt;128 x 128 x 1280&lt;br&gt;&lt;/font&gt;" style="whiteSpace=wrap;html=1;aspect=fixed;" parent="1" vertex="1">
          <mxGeometry x="320" y="-490" width="120" height="120" as="geometry" />
        </mxCell>
        <mxCell id="Gnnl3Iw8qT7of2xsN7ti-24" style="rounded=0;orthogonalLoop=1;jettySize=auto;html=1;exitX=0;exitY=1;exitDx=0;exitDy=0;entryX=0;entryY=0;entryDx=0;entryDy=0;endArrow=none;endFill=0;" parent="1" edge="1">
          <mxGeometry relative="1" as="geometry">
            <mxPoint x="319.52" y="-670" as="sourcePoint" />
            <mxPoint x="319.52" y="-640" as="targetPoint" />
          </mxGeometry>
        </mxCell>
        <mxCell id="Gnnl3Iw8qT7of2xsN7ti-25" style="rounded=0;orthogonalLoop=1;jettySize=auto;html=1;exitX=1;exitY=1;exitDx=0;exitDy=0;entryX=1;entryY=0;entryDx=0;entryDy=0;endArrow=none;endFill=0;" parent="1" edge="1">
          <mxGeometry relative="1" as="geometry">
            <mxPoint x="439.52" y="-670" as="sourcePoint" />
            <mxPoint x="439.52" y="-640" as="targetPoint" />
          </mxGeometry>
        </mxCell>
        <mxCell id="Gnnl3Iw8qT7of2xsN7ti-26" style="rounded=0;orthogonalLoop=1;jettySize=auto;html=1;exitX=0;exitY=1;exitDx=0;exitDy=0;entryX=0;entryY=0;entryDx=0;entryDy=0;endArrow=none;endFill=0;" parent="1" edge="1">
          <mxGeometry relative="1" as="geometry">
            <mxPoint x="690" y="-520" as="sourcePoint" />
            <mxPoint x="690" y="-490" as="targetPoint" />
          </mxGeometry>
        </mxCell>
        <mxCell id="Gnnl3Iw8qT7of2xsN7ti-27" style="rounded=0;orthogonalLoop=1;jettySize=auto;html=1;exitX=1;exitY=1;exitDx=0;exitDy=0;entryX=1;entryY=0;entryDx=0;entryDy=0;endArrow=none;endFill=0;" parent="1" edge="1">
          <mxGeometry relative="1" as="geometry">
            <mxPoint x="810" y="-520" as="sourcePoint" />
            <mxPoint x="810" y="-490" as="targetPoint" />
          </mxGeometry>
        </mxCell>
        <mxCell id="Gnnl3Iw8qT7of2xsN7ti-30" value="&lt;div&gt;&lt;font face=&quot;Lucida Console&quot;&gt;Convolution &lt;br&gt;&lt;/font&gt;&lt;/div&gt;&lt;div&gt;&lt;font face=&quot;Lucida Console&quot;&gt;1x1x1&lt;br&gt;&lt;/font&gt;&lt;/div&gt;" style="whiteSpace=wrap;html=1;aspect=fixed;" parent="1" vertex="1">
          <mxGeometry x="320" y="-330" width="120" height="120" as="geometry" />
        </mxCell>
        <mxCell id="Gnnl3Iw8qT7of2xsN7ti-31" style="rounded=0;orthogonalLoop=1;jettySize=auto;html=1;exitX=0;exitY=1;exitDx=0;exitDy=0;entryX=0;entryY=0;entryDx=0;entryDy=0;endArrow=none;endFill=0;" parent="1" target="Gnnl3Iw8qT7of2xsN7ti-30" edge="1">
          <mxGeometry relative="1" as="geometry">
            <mxPoint x="320" y="-370" as="sourcePoint" />
            <mxPoint x="320" y="-340" as="targetPoint" />
          </mxGeometry>
        </mxCell>
        <mxCell id="Gnnl3Iw8qT7of2xsN7ti-32" style="rounded=0;orthogonalLoop=1;jettySize=auto;html=1;exitX=1;exitY=1;exitDx=0;exitDy=0;entryX=1;entryY=0;entryDx=0;entryDy=0;endArrow=none;endFill=0;" parent="1" target="Gnnl3Iw8qT7of2xsN7ti-30" edge="1">
          <mxGeometry relative="1" as="geometry">
            <mxPoint x="440" y="-370" as="sourcePoint" />
            <mxPoint x="440" y="-340" as="targetPoint" />
          </mxGeometry>
        </mxCell>
        <mxCell id="Gnnl3Iw8qT7of2xsN7ti-33" value="&lt;div&gt;&lt;font face=&quot;Lucida Console&quot;&gt;Average Pooling Layer&lt;/font&gt;&lt;/div&gt;&lt;div&gt;&lt;font face=&quot;Lucida Console&quot;&gt;Stride 4&lt;br&gt;&lt;/font&gt;&lt;/div&gt;&lt;div&gt;&lt;font face=&quot;Lucida Console&quot;&gt;Width 4&lt;br&gt;&lt;/font&gt;&lt;/div&gt;" style="whiteSpace=wrap;html=1;aspect=fixed;" parent="1" vertex="1">
          <mxGeometry x="480" y="-330" width="120" height="120" as="geometry" />
        </mxCell>
        <mxCell id="Gnnl3Iw8qT7of2xsN7ti-34" style="rounded=0;orthogonalLoop=1;jettySize=auto;html=1;exitX=0;exitY=0;exitDx=0;exitDy=0;entryX=1;entryY=0;entryDx=0;entryDy=0;endArrow=none;endFill=0;" parent="1" source="Gnnl3Iw8qT7of2xsN7ti-33" target="Gnnl3Iw8qT7of2xsN7ti-30" edge="1">
          <mxGeometry relative="1" as="geometry">
            <mxPoint x="450" y="-360" as="sourcePoint" />
            <mxPoint x="450" y="-320" as="targetPoint" />
          </mxGeometry>
        </mxCell>
        <mxCell id="Gnnl3Iw8qT7of2xsN7ti-36" style="rounded=0;orthogonalLoop=1;jettySize=auto;html=1;exitX=0;exitY=0;exitDx=0;exitDy=0;entryX=1;entryY=0;entryDx=0;entryDy=0;endArrow=none;endFill=0;" parent="1" edge="1">
          <mxGeometry relative="1" as="geometry">
            <mxPoint x="480" y="-210" as="sourcePoint" />
            <mxPoint x="440" y="-210" as="targetPoint" />
          </mxGeometry>
        </mxCell>
        <mxCell id="Gnnl3Iw8qT7of2xsN7ti-37" value="32, 32" style="whiteSpace=wrap;html=1;aspect=fixed;" parent="1" vertex="1">
          <mxGeometry x="680" y="-291.25" width="42.5" height="42.5" as="geometry" />
        </mxCell>
        <mxCell id="Gnnl3Iw8qT7of2xsN7ti-38" style="rounded=0;orthogonalLoop=1;jettySize=auto;html=1;exitX=0;exitY=0;exitDx=0;exitDy=0;entryX=1;entryY=0;entryDx=0;entryDy=0;endArrow=none;endFill=0;" parent="1" source="Gnnl3Iw8qT7of2xsN7ti-37" target="Gnnl3Iw8qT7of2xsN7ti-33" edge="1">
          <mxGeometry relative="1" as="geometry">
            <mxPoint x="490" y="-320" as="sourcePoint" />
            <mxPoint x="450" y="-320" as="targetPoint" />
          </mxGeometry>
        </mxCell>
        <mxCell id="Gnnl3Iw8qT7of2xsN7ti-39" style="rounded=0;orthogonalLoop=1;jettySize=auto;html=1;exitX=0;exitY=1;exitDx=0;exitDy=0;endArrow=none;endFill=0;entryX=1;entryY=1;entryDx=0;entryDy=0;" parent="1" source="Gnnl3Iw8qT7of2xsN7ti-37" target="Gnnl3Iw8qT7of2xsN7ti-33" edge="1">
          <mxGeometry relative="1" as="geometry">
            <mxPoint x="690" y="-281" as="sourcePoint" />
            <mxPoint x="610" y="-320" as="targetPoint" />
          </mxGeometry>
        </mxCell>
        <mxCell id="Gnnl3Iw8qT7of2xsN7ti-40" value="" style="rounded=0;whiteSpace=wrap;html=1;fillColor=none;dashed=1;dashPattern=8 8;" parent="1" vertex="1">
          <mxGeometry x="300" y="-340" width="530" height="160" as="geometry" />
        </mxCell>
        <mxCell id="Gnnl3Iw8qT7of2xsN7ti-41" value="&lt;font face=&quot;Lucida Console&quot;&gt;Output Stage&lt;br&gt;&lt;/font&gt;" style="text;html=1;strokeColor=none;fillColor=none;align=center;verticalAlign=middle;whiteSpace=wrap;rounded=0;" parent="1" vertex="1">
          <mxGeometry x="445" y="-210" width="240" height="30" as="geometry" />
        </mxCell>
      </root>
    </mxGraphModel>
  </diagram>
  <diagram id="oXE4yU3IOCLvEPJHlncu" name="Complete Model">
    <mxGraphModel dx="3050" dy="2418" grid="1" gridSize="10" guides="1" tooltips="1" connect="1" arrows="1" fold="1" page="1" pageScale="1" pageWidth="850" pageHeight="1100" math="0" shadow="0">
      <root>
        <mxCell id="0" />
        <mxCell id="1" parent="0" />
        <mxCell id="Uo6fyncE6sulh7fjvNI7-59" value="" style="rounded=0;whiteSpace=wrap;html=1;fillColor=none;dashed=1;dashPattern=8 8;" vertex="1" parent="1">
          <mxGeometry x="-105" y="-290" width="530" height="160" as="geometry" />
        </mxCell>
        <mxCell id="5I3KeTdcbdDvLc3Blgrw-252" value="" style="rounded=0;whiteSpace=wrap;html=1;fillColor=none;dashed=1;dashPattern=8 8;" parent="1" vertex="1">
          <mxGeometry x="-697.5" y="-80" width="1360" height="790" as="geometry" />
        </mxCell>
        <mxCell id="5I3KeTdcbdDvLc3Blgrw-69" style="edgeStyle=orthogonalEdgeStyle;rounded=0;orthogonalLoop=1;jettySize=auto;html=1;entryX=1;entryY=0;entryDx=0;entryDy=0;exitX=1;exitY=0.5;exitDx=0;exitDy=0;" parent="1" source="Uo6fyncE6sulh7fjvNI7-56" target="5I3KeTdcbdDvLc3Blgrw-68" edge="1">
          <mxGeometry relative="1" as="geometry">
            <Array as="points">
              <mxPoint x="612.5" y="-220" />
            </Array>
            <mxPoint x="352.5" y="-230" as="sourcePoint" />
          </mxGeometry>
        </mxCell>
        <mxCell id="5I3KeTdcbdDvLc3Blgrw-66" style="edgeStyle=orthogonalEdgeStyle;rounded=0;orthogonalLoop=1;jettySize=auto;html=1;exitX=0.75;exitY=1;exitDx=0;exitDy=0;entryX=0;entryY=0.5;entryDx=0;entryDy=0;" parent="1" source="5I3KeTdcbdDvLc3Blgrw-65" target="Uo6fyncE6sulh7fjvNI7-5" edge="1">
          <mxGeometry relative="1" as="geometry">
            <mxPoint x="-419.99999999999955" y="-560.0000000000002" as="targetPoint" />
          </mxGeometry>
        </mxCell>
        <mxCell id="Uo6fyncE6sulh7fjvNI7-61" style="edgeStyle=none;curved=1;rounded=0;orthogonalLoop=1;jettySize=auto;html=1;exitX=0.25;exitY=1;exitDx=0;exitDy=0;entryX=0;entryY=0;entryDx=0;entryDy=0;fontSize=12;startSize=8;endSize=8;" edge="1" parent="1" source="5I3KeTdcbdDvLc3Blgrw-65" target="5I3KeTdcbdDvLc3Blgrw-68">
          <mxGeometry relative="1" as="geometry" />
        </mxCell>
        <mxCell id="5I3KeTdcbdDvLc3Blgrw-65" value="&lt;font face=&quot;Lucida Console&quot;&gt;Channel Simulation&lt;/font&gt;" style="rounded=0;whiteSpace=wrap;html=1;" parent="1" vertex="1">
          <mxGeometry x="-730" y="-1010" width="290" height="60" as="geometry" />
        </mxCell>
        <mxCell id="5I3KeTdcbdDvLc3Blgrw-68" value="&lt;font face=&quot;Lucida Console&quot;&gt;(Real(P&lt;sub&gt;tx&lt;/sub&gt;), Real(IFFT&lt;sub&gt;y&lt;/sub&gt;), Imag(P&lt;sub&gt;tx&lt;/sub&gt;), Real(IFFT&lt;sub&gt;y&lt;/sub&gt;))&lt;/font&gt;" style="rounded=0;whiteSpace=wrap;html=1;" parent="1" vertex="1">
          <mxGeometry x="-657.5" y="-40" width="1270" height="60" as="geometry" />
        </mxCell>
        <mxCell id="5I3KeTdcbdDvLc3Blgrw-102" style="edgeStyle=orthogonalEdgeStyle;rounded=0;orthogonalLoop=1;jettySize=auto;html=1;exitX=0.5;exitY=0;exitDx=0;exitDy=0;entryX=0.5;entryY=0;entryDx=0;entryDy=0;" parent="1" target="5I3KeTdcbdDvLc3Blgrw-80" edge="1">
          <mxGeometry relative="1" as="geometry">
            <mxPoint x="-472.5" y="30" as="sourcePoint" />
          </mxGeometry>
        </mxCell>
        <mxCell id="5I3KeTdcbdDvLc3Blgrw-80" value="LSTM CELL" style="rounded=0;whiteSpace=wrap;html=1;" parent="1" vertex="1">
          <mxGeometry x="-532.5" y="170" width="120" height="60" as="geometry" />
        </mxCell>
        <mxCell id="5I3KeTdcbdDvLc3Blgrw-107" style="edgeStyle=orthogonalEdgeStyle;rounded=0;orthogonalLoop=1;jettySize=auto;html=1;entryX=0.5;entryY=0;entryDx=0;entryDy=0;" parent="1" target="5I3KeTdcbdDvLc3Blgrw-86" edge="1">
          <mxGeometry relative="1" as="geometry">
            <mxPoint x="487.5" y="30" as="sourcePoint" />
          </mxGeometry>
        </mxCell>
        <mxCell id="5I3KeTdcbdDvLc3Blgrw-86" value="LSTM CELL" style="rounded=0;whiteSpace=wrap;html=1;" parent="1" vertex="1">
          <mxGeometry x="427.5" y="170" width="120" height="60" as="geometry" />
        </mxCell>
        <mxCell id="5I3KeTdcbdDvLc3Blgrw-103" style="edgeStyle=orthogonalEdgeStyle;rounded=0;orthogonalLoop=1;jettySize=auto;html=1;exitX=0.5;exitY=0;exitDx=0;exitDy=0;entryX=0.5;entryY=0;entryDx=0;entryDy=0;" parent="1" target="5I3KeTdcbdDvLc3Blgrw-81" edge="1">
          <mxGeometry relative="1" as="geometry">
            <mxPoint x="-312.5" y="30" as="sourcePoint" />
          </mxGeometry>
        </mxCell>
        <mxCell id="5I3KeTdcbdDvLc3Blgrw-81" value="LSTM CELL" style="rounded=0;whiteSpace=wrap;html=1;" parent="1" vertex="1">
          <mxGeometry x="-372.5" y="170" width="120" height="60" as="geometry" />
        </mxCell>
        <mxCell id="5I3KeTdcbdDvLc3Blgrw-82" value="LSTM CELL" style="rounded=0;whiteSpace=wrap;html=1;" parent="1" vertex="1">
          <mxGeometry x="-212.5" y="170" width="120" height="60" as="geometry" />
        </mxCell>
        <mxCell id="5I3KeTdcbdDvLc3Blgrw-104" style="edgeStyle=orthogonalEdgeStyle;rounded=0;orthogonalLoop=1;jettySize=auto;html=1;exitX=0.5;exitY=0;exitDx=0;exitDy=0;entryX=0.5;entryY=0;entryDx=0;entryDy=0;" parent="1" target="5I3KeTdcbdDvLc3Blgrw-83" edge="1">
          <mxGeometry relative="1" as="geometry">
            <mxPoint x="7.5" y="30" as="sourcePoint" />
          </mxGeometry>
        </mxCell>
        <mxCell id="5I3KeTdcbdDvLc3Blgrw-83" value="LSTM CELL" style="rounded=0;whiteSpace=wrap;html=1;" parent="1" vertex="1">
          <mxGeometry x="-52.5" y="170" width="120" height="60" as="geometry" />
        </mxCell>
        <mxCell id="5I3KeTdcbdDvLc3Blgrw-105" style="edgeStyle=orthogonalEdgeStyle;rounded=0;orthogonalLoop=1;jettySize=auto;html=1;exitX=0.5;exitY=0;exitDx=0;exitDy=0;entryX=0.5;entryY=0;entryDx=0;entryDy=0;" parent="1" target="5I3KeTdcbdDvLc3Blgrw-84" edge="1">
          <mxGeometry relative="1" as="geometry">
            <mxPoint x="167.5" y="30" as="sourcePoint" />
          </mxGeometry>
        </mxCell>
        <mxCell id="5I3KeTdcbdDvLc3Blgrw-84" value="LSTM CELL" style="rounded=0;whiteSpace=wrap;html=1;" parent="1" vertex="1">
          <mxGeometry x="107.5" y="170" width="120" height="60" as="geometry" />
        </mxCell>
        <mxCell id="5I3KeTdcbdDvLc3Blgrw-106" style="edgeStyle=orthogonalEdgeStyle;rounded=0;orthogonalLoop=1;jettySize=auto;html=1;exitX=0.5;exitY=0;exitDx=0;exitDy=0;entryX=0.5;entryY=0;entryDx=0;entryDy=0;" parent="1" target="5I3KeTdcbdDvLc3Blgrw-85" edge="1">
          <mxGeometry relative="1" as="geometry">
            <mxPoint x="327.5" y="30" as="sourcePoint" />
          </mxGeometry>
        </mxCell>
        <mxCell id="5I3KeTdcbdDvLc3Blgrw-85" value="LSTM CELL" style="rounded=0;whiteSpace=wrap;html=1;" parent="1" vertex="1">
          <mxGeometry x="267.5" y="170" width="120" height="60" as="geometry" />
        </mxCell>
        <mxCell id="5I3KeTdcbdDvLc3Blgrw-108" value="" style="ellipse;whiteSpace=wrap;html=1;aspect=fixed;" parent="1" vertex="1">
          <mxGeometry x="-332.5" y="340" width="40" height="40" as="geometry" />
        </mxCell>
        <mxCell id="5I3KeTdcbdDvLc3Blgrw-109" value="" style="ellipse;whiteSpace=wrap;html=1;aspect=fixed;" parent="1" vertex="1">
          <mxGeometry x="-252.5" y="340" width="40" height="40" as="geometry" />
        </mxCell>
        <mxCell id="5I3KeTdcbdDvLc3Blgrw-110" value="" style="ellipse;whiteSpace=wrap;html=1;aspect=fixed;" parent="1" vertex="1">
          <mxGeometry x="-172.5" y="340" width="40" height="40" as="geometry" />
        </mxCell>
        <mxCell id="5I3KeTdcbdDvLc3Blgrw-112" value="" style="ellipse;whiteSpace=wrap;html=1;aspect=fixed;" parent="1" vertex="1">
          <mxGeometry x="-92.5" y="340" width="40" height="40" as="geometry" />
        </mxCell>
        <mxCell id="5I3KeTdcbdDvLc3Blgrw-113" value="" style="ellipse;whiteSpace=wrap;html=1;aspect=fixed;" parent="1" vertex="1">
          <mxGeometry x="-12.5" y="340" width="40" height="40" as="geometry" />
        </mxCell>
        <mxCell id="5I3KeTdcbdDvLc3Blgrw-114" value="" style="ellipse;whiteSpace=wrap;html=1;aspect=fixed;" parent="1" vertex="1">
          <mxGeometry x="67.5" y="340" width="40" height="40" as="geometry" />
        </mxCell>
        <mxCell id="5I3KeTdcbdDvLc3Blgrw-115" value="" style="ellipse;whiteSpace=wrap;html=1;aspect=fixed;" parent="1" vertex="1">
          <mxGeometry x="147.5" y="340" width="40" height="40" as="geometry" />
        </mxCell>
        <mxCell id="5I3KeTdcbdDvLc3Blgrw-122" value="" style="endArrow=none;html=1;rounded=0;exitX=0.5;exitY=1;exitDx=0;exitDy=0;entryX=0.5;entryY=0;entryDx=0;entryDy=0;" parent="1" source="5I3KeTdcbdDvLc3Blgrw-80" target="5I3KeTdcbdDvLc3Blgrw-108" edge="1">
          <mxGeometry width="50" height="50" relative="1" as="geometry">
            <mxPoint x="2.5" y="320" as="sourcePoint" />
            <mxPoint x="52.5" y="270" as="targetPoint" />
          </mxGeometry>
        </mxCell>
        <mxCell id="5I3KeTdcbdDvLc3Blgrw-123" value="" style="endArrow=none;html=1;rounded=0;exitX=0.5;exitY=1;exitDx=0;exitDy=0;entryX=0.5;entryY=0;entryDx=0;entryDy=0;" parent="1" source="5I3KeTdcbdDvLc3Blgrw-80" target="5I3KeTdcbdDvLc3Blgrw-109" edge="1">
          <mxGeometry width="50" height="50" relative="1" as="geometry">
            <mxPoint x="12.5" y="330" as="sourcePoint" />
            <mxPoint x="62.5" y="280" as="targetPoint" />
          </mxGeometry>
        </mxCell>
        <mxCell id="5I3KeTdcbdDvLc3Blgrw-124" value="" style="endArrow=none;html=1;rounded=0;exitX=0.5;exitY=1;exitDx=0;exitDy=0;entryX=0.5;entryY=0;entryDx=0;entryDy=0;" parent="1" source="5I3KeTdcbdDvLc3Blgrw-80" target="5I3KeTdcbdDvLc3Blgrw-110" edge="1">
          <mxGeometry width="50" height="50" relative="1" as="geometry">
            <mxPoint x="22.5" y="340" as="sourcePoint" />
            <mxPoint x="72.5" y="290" as="targetPoint" />
          </mxGeometry>
        </mxCell>
        <mxCell id="5I3KeTdcbdDvLc3Blgrw-125" value="" style="endArrow=none;html=1;rounded=0;exitX=0.5;exitY=1;exitDx=0;exitDy=0;entryX=0.5;entryY=0;entryDx=0;entryDy=0;" parent="1" source="5I3KeTdcbdDvLc3Blgrw-80" target="5I3KeTdcbdDvLc3Blgrw-112" edge="1">
          <mxGeometry width="50" height="50" relative="1" as="geometry">
            <mxPoint x="32.5" y="350" as="sourcePoint" />
            <mxPoint x="82.5" y="300" as="targetPoint" />
          </mxGeometry>
        </mxCell>
        <mxCell id="5I3KeTdcbdDvLc3Blgrw-126" value="" style="endArrow=none;html=1;rounded=0;exitX=0.5;exitY=1;exitDx=0;exitDy=0;entryX=0.5;entryY=0;entryDx=0;entryDy=0;" parent="1" source="5I3KeTdcbdDvLc3Blgrw-80" target="5I3KeTdcbdDvLc3Blgrw-113" edge="1">
          <mxGeometry width="50" height="50" relative="1" as="geometry">
            <mxPoint x="42.5" y="360" as="sourcePoint" />
            <mxPoint x="92.5" y="310" as="targetPoint" />
          </mxGeometry>
        </mxCell>
        <mxCell id="5I3KeTdcbdDvLc3Blgrw-127" value="" style="endArrow=none;html=1;rounded=0;exitX=0.5;exitY=1;exitDx=0;exitDy=0;entryX=0.5;entryY=0;entryDx=0;entryDy=0;" parent="1" source="5I3KeTdcbdDvLc3Blgrw-80" target="5I3KeTdcbdDvLc3Blgrw-114" edge="1">
          <mxGeometry width="50" height="50" relative="1" as="geometry">
            <mxPoint x="52.5" y="370" as="sourcePoint" />
            <mxPoint x="102.5" y="320" as="targetPoint" />
          </mxGeometry>
        </mxCell>
        <mxCell id="5I3KeTdcbdDvLc3Blgrw-128" value="" style="endArrow=none;html=1;rounded=0;exitX=0.5;exitY=1;exitDx=0;exitDy=0;entryX=0.5;entryY=0;entryDx=0;entryDy=0;" parent="1" source="5I3KeTdcbdDvLc3Blgrw-80" target="5I3KeTdcbdDvLc3Blgrw-115" edge="1">
          <mxGeometry width="50" height="50" relative="1" as="geometry">
            <mxPoint x="62.5" y="380" as="sourcePoint" />
            <mxPoint x="112.5" y="330" as="targetPoint" />
          </mxGeometry>
        </mxCell>
        <mxCell id="5I3KeTdcbdDvLc3Blgrw-129" value="" style="endArrow=none;html=1;rounded=0;exitX=0.5;exitY=1;exitDx=0;exitDy=0;entryX=0.5;entryY=0;entryDx=0;entryDy=0;" parent="1" source="5I3KeTdcbdDvLc3Blgrw-81" target="5I3KeTdcbdDvLc3Blgrw-108" edge="1">
          <mxGeometry width="50" height="50" relative="1" as="geometry">
            <mxPoint x="72.5" y="390" as="sourcePoint" />
            <mxPoint x="122.5" y="340" as="targetPoint" />
          </mxGeometry>
        </mxCell>
        <mxCell id="5I3KeTdcbdDvLc3Blgrw-130" value="" style="endArrow=none;html=1;rounded=0;exitX=0.5;exitY=1;exitDx=0;exitDy=0;entryX=0.5;entryY=0;entryDx=0;entryDy=0;" parent="1" source="5I3KeTdcbdDvLc3Blgrw-81" target="5I3KeTdcbdDvLc3Blgrw-109" edge="1">
          <mxGeometry width="50" height="50" relative="1" as="geometry">
            <mxPoint x="82.5" y="400" as="sourcePoint" />
            <mxPoint x="132.5" y="350" as="targetPoint" />
          </mxGeometry>
        </mxCell>
        <mxCell id="5I3KeTdcbdDvLc3Blgrw-131" value="" style="endArrow=none;html=1;rounded=0;exitX=0.5;exitY=1;exitDx=0;exitDy=0;entryX=0.5;entryY=0;entryDx=0;entryDy=0;" parent="1" source="5I3KeTdcbdDvLc3Blgrw-81" target="5I3KeTdcbdDvLc3Blgrw-110" edge="1">
          <mxGeometry width="50" height="50" relative="1" as="geometry">
            <mxPoint x="92.5" y="410" as="sourcePoint" />
            <mxPoint x="142.5" y="360" as="targetPoint" />
          </mxGeometry>
        </mxCell>
        <mxCell id="5I3KeTdcbdDvLc3Blgrw-132" value="" style="endArrow=none;html=1;rounded=0;exitX=0.5;exitY=1;exitDx=0;exitDy=0;entryX=0.5;entryY=0;entryDx=0;entryDy=0;" parent="1" source="5I3KeTdcbdDvLc3Blgrw-81" target="5I3KeTdcbdDvLc3Blgrw-112" edge="1">
          <mxGeometry width="50" height="50" relative="1" as="geometry">
            <mxPoint x="102.5" y="420" as="sourcePoint" />
            <mxPoint x="152.5" y="370" as="targetPoint" />
          </mxGeometry>
        </mxCell>
        <mxCell id="5I3KeTdcbdDvLc3Blgrw-133" value="" style="endArrow=none;html=1;rounded=0;exitX=0.5;exitY=1;exitDx=0;exitDy=0;entryX=0.5;entryY=0;entryDx=0;entryDy=0;" parent="1" source="5I3KeTdcbdDvLc3Blgrw-81" target="5I3KeTdcbdDvLc3Blgrw-113" edge="1">
          <mxGeometry width="50" height="50" relative="1" as="geometry">
            <mxPoint x="-307.5" y="240" as="sourcePoint" />
            <mxPoint x="162.5" y="380" as="targetPoint" />
          </mxGeometry>
        </mxCell>
        <mxCell id="5I3KeTdcbdDvLc3Blgrw-134" value="" style="endArrow=none;html=1;rounded=0;exitX=0.5;exitY=1;exitDx=0;exitDy=0;entryX=0.5;entryY=0;entryDx=0;entryDy=0;" parent="1" source="5I3KeTdcbdDvLc3Blgrw-81" target="5I3KeTdcbdDvLc3Blgrw-115" edge="1">
          <mxGeometry width="50" height="50" relative="1" as="geometry">
            <mxPoint x="122.5" y="440" as="sourcePoint" />
            <mxPoint x="172.5" y="390" as="targetPoint" />
          </mxGeometry>
        </mxCell>
        <mxCell id="5I3KeTdcbdDvLc3Blgrw-135" value="" style="endArrow=none;html=1;rounded=0;exitX=0.5;exitY=1;exitDx=0;exitDy=0;entryX=0.5;entryY=0;entryDx=0;entryDy=0;" parent="1" source="5I3KeTdcbdDvLc3Blgrw-81" target="5I3KeTdcbdDvLc3Blgrw-114" edge="1">
          <mxGeometry width="50" height="50" relative="1" as="geometry">
            <mxPoint x="132.5" y="450" as="sourcePoint" />
            <mxPoint x="182.5" y="400" as="targetPoint" />
          </mxGeometry>
        </mxCell>
        <mxCell id="5I3KeTdcbdDvLc3Blgrw-136" value="" style="endArrow=none;html=1;rounded=0;entryX=0.5;entryY=1;entryDx=0;entryDy=0;exitX=0.5;exitY=0;exitDx=0;exitDy=0;" parent="1" source="5I3KeTdcbdDvLc3Blgrw-108" target="5I3KeTdcbdDvLc3Blgrw-82" edge="1">
          <mxGeometry width="50" height="50" relative="1" as="geometry">
            <mxPoint x="142.5" y="460" as="sourcePoint" />
            <mxPoint x="192.5" y="410" as="targetPoint" />
          </mxGeometry>
        </mxCell>
        <mxCell id="5I3KeTdcbdDvLc3Blgrw-151" value="" style="endArrow=none;html=1;rounded=0;entryX=0.5;entryY=1;entryDx=0;entryDy=0;exitX=0.5;exitY=0;exitDx=0;exitDy=0;" parent="1" source="5I3KeTdcbdDvLc3Blgrw-109" target="5I3KeTdcbdDvLc3Blgrw-82" edge="1">
          <mxGeometry width="50" height="50" relative="1" as="geometry">
            <mxPoint x="-427.5" y="330" as="sourcePoint" />
            <mxPoint x="-142.5" y="240" as="targetPoint" />
          </mxGeometry>
        </mxCell>
        <mxCell id="5I3KeTdcbdDvLc3Blgrw-152" value="" style="endArrow=none;html=1;rounded=0;entryX=0.5;entryY=1;entryDx=0;entryDy=0;exitX=0.5;exitY=0;exitDx=0;exitDy=0;" parent="1" source="5I3KeTdcbdDvLc3Blgrw-110" target="5I3KeTdcbdDvLc3Blgrw-82" edge="1">
          <mxGeometry width="50" height="50" relative="1" as="geometry">
            <mxPoint x="-417.5" y="340" as="sourcePoint" />
            <mxPoint x="-132.5" y="250" as="targetPoint" />
          </mxGeometry>
        </mxCell>
        <mxCell id="5I3KeTdcbdDvLc3Blgrw-153" value="" style="endArrow=none;html=1;rounded=0;entryX=0.5;entryY=1;entryDx=0;entryDy=0;exitX=0.5;exitY=0;exitDx=0;exitDy=0;" parent="1" source="5I3KeTdcbdDvLc3Blgrw-112" target="5I3KeTdcbdDvLc3Blgrw-82" edge="1">
          <mxGeometry width="50" height="50" relative="1" as="geometry">
            <mxPoint x="-197.5" y="310" as="sourcePoint" />
            <mxPoint x="-122.5" y="260" as="targetPoint" />
          </mxGeometry>
        </mxCell>
        <mxCell id="5I3KeTdcbdDvLc3Blgrw-154" value="" style="endArrow=none;html=1;rounded=0;exitX=0.5;exitY=0;exitDx=0;exitDy=0;entryX=0.5;entryY=1;entryDx=0;entryDy=0;" parent="1" source="5I3KeTdcbdDvLc3Blgrw-113" target="5I3KeTdcbdDvLc3Blgrw-82" edge="1">
          <mxGeometry width="50" height="50" relative="1" as="geometry">
            <mxPoint x="-397.5" y="360" as="sourcePoint" />
            <mxPoint x="-112.5" y="270" as="targetPoint" />
          </mxGeometry>
        </mxCell>
        <mxCell id="5I3KeTdcbdDvLc3Blgrw-155" value="" style="endArrow=none;html=1;rounded=0;entryX=0.5;entryY=0;entryDx=0;entryDy=0;exitX=0.5;exitY=1;exitDx=0;exitDy=0;" parent="1" source="5I3KeTdcbdDvLc3Blgrw-82" target="5I3KeTdcbdDvLc3Blgrw-114" edge="1">
          <mxGeometry width="50" height="50" relative="1" as="geometry">
            <mxPoint x="-387.5" y="370" as="sourcePoint" />
            <mxPoint x="-102.5" y="280" as="targetPoint" />
          </mxGeometry>
        </mxCell>
        <mxCell id="5I3KeTdcbdDvLc3Blgrw-156" value="" style="endArrow=none;html=1;rounded=0;entryX=0.5;entryY=1;entryDx=0;entryDy=0;exitX=0.5;exitY=0;exitDx=0;exitDy=0;" parent="1" source="5I3KeTdcbdDvLc3Blgrw-115" target="5I3KeTdcbdDvLc3Blgrw-82" edge="1">
          <mxGeometry width="50" height="50" relative="1" as="geometry">
            <mxPoint x="-377.5" y="380" as="sourcePoint" />
            <mxPoint x="-92.5" y="290" as="targetPoint" />
          </mxGeometry>
        </mxCell>
        <mxCell id="5I3KeTdcbdDvLc3Blgrw-157" value="" style="endArrow=none;html=1;rounded=0;exitX=0.5;exitY=1;exitDx=0;exitDy=0;entryX=0.5;entryY=0;entryDx=0;entryDy=0;" parent="1" edge="1">
          <mxGeometry width="50" height="50" relative="1" as="geometry">
            <mxPoint x="7.5" y="230" as="sourcePoint" />
            <mxPoint x="-152.5" y="340" as="targetPoint" />
          </mxGeometry>
        </mxCell>
        <mxCell id="5I3KeTdcbdDvLc3Blgrw-159" value="" style="endArrow=none;html=1;rounded=0;exitX=0.5;exitY=1;exitDx=0;exitDy=0;entryX=0.5;entryY=0;entryDx=0;entryDy=0;" parent="1" edge="1">
          <mxGeometry width="50" height="50" relative="1" as="geometry">
            <mxPoint x="167.5" y="230" as="sourcePoint" />
            <mxPoint x="-152.5" y="340" as="targetPoint" />
          </mxGeometry>
        </mxCell>
        <mxCell id="5I3KeTdcbdDvLc3Blgrw-161" value="" style="endArrow=none;html=1;rounded=0;exitX=0.5;exitY=1;exitDx=0;exitDy=0;entryX=0.5;entryY=0;entryDx=0;entryDy=0;" parent="1" edge="1">
          <mxGeometry width="50" height="50" relative="1" as="geometry">
            <mxPoint x="327.5" y="230" as="sourcePoint" />
            <mxPoint x="-152.5" y="340" as="targetPoint" />
          </mxGeometry>
        </mxCell>
        <mxCell id="5I3KeTdcbdDvLc3Blgrw-162" value="" style="endArrow=none;html=1;rounded=0;exitX=0.5;exitY=1;exitDx=0;exitDy=0;entryX=0.5;entryY=0;entryDx=0;entryDy=0;" parent="1" edge="1">
          <mxGeometry width="50" height="50" relative="1" as="geometry">
            <mxPoint x="407.5" y="230" as="sourcePoint" />
            <mxPoint x="-152.5" y="340" as="targetPoint" />
          </mxGeometry>
        </mxCell>
        <mxCell id="5I3KeTdcbdDvLc3Blgrw-163" value="" style="endArrow=none;html=1;rounded=0;exitX=0.5;exitY=1;exitDx=0;exitDy=0;entryX=0.5;entryY=0;entryDx=0;entryDy=0;" parent="1" edge="1">
          <mxGeometry width="50" height="50" relative="1" as="geometry">
            <mxPoint x="487.5" y="230" as="sourcePoint" />
            <mxPoint x="-152.5" y="340" as="targetPoint" />
          </mxGeometry>
        </mxCell>
        <mxCell id="5I3KeTdcbdDvLc3Blgrw-164" value="" style="endArrow=none;html=1;rounded=0;exitX=0.5;exitY=1;exitDx=0;exitDy=0;entryX=0.5;entryY=0;entryDx=0;entryDy=0;" parent="1" edge="1">
          <mxGeometry width="50" height="50" relative="1" as="geometry">
            <mxPoint x="8.300000000000182" y="230" as="sourcePoint" />
            <mxPoint x="8.300000000000182" y="340" as="targetPoint" />
          </mxGeometry>
        </mxCell>
        <mxCell id="5I3KeTdcbdDvLc3Blgrw-166" value="" style="endArrow=none;html=1;rounded=0;exitX=0.5;exitY=1;exitDx=0;exitDy=0;entryX=0.5;entryY=0;entryDx=0;entryDy=0;" parent="1" edge="1">
          <mxGeometry width="50" height="50" relative="1" as="geometry">
            <mxPoint x="167.5" y="230" as="sourcePoint" />
            <mxPoint x="7.5" y="340" as="targetPoint" />
          </mxGeometry>
        </mxCell>
        <mxCell id="5I3KeTdcbdDvLc3Blgrw-168" value="" style="endArrow=none;html=1;rounded=0;exitX=0.5;exitY=1;exitDx=0;exitDy=0;entryX=0.5;entryY=0;entryDx=0;entryDy=0;" parent="1" edge="1">
          <mxGeometry width="50" height="50" relative="1" as="geometry">
            <mxPoint x="327.5" y="230" as="sourcePoint" />
            <mxPoint x="7.5" y="340" as="targetPoint" />
          </mxGeometry>
        </mxCell>
        <mxCell id="5I3KeTdcbdDvLc3Blgrw-169" value="" style="endArrow=none;html=1;rounded=0;exitX=0.5;exitY=1;exitDx=0;exitDy=0;entryX=0.5;entryY=0;entryDx=0;entryDy=0;" parent="1" edge="1">
          <mxGeometry width="50" height="50" relative="1" as="geometry">
            <mxPoint x="487.5" y="230" as="sourcePoint" />
            <mxPoint x="7.5" y="340" as="targetPoint" />
          </mxGeometry>
        </mxCell>
        <mxCell id="5I3KeTdcbdDvLc3Blgrw-170" value="" style="endArrow=none;html=1;rounded=0;exitX=0.5;exitY=1;exitDx=0;exitDy=0;entryX=0.5;entryY=0;entryDx=0;entryDy=0;" parent="1" edge="1">
          <mxGeometry width="50" height="50" relative="1" as="geometry">
            <mxPoint x="407.5" y="230" as="sourcePoint" />
            <mxPoint x="7.5" y="340" as="targetPoint" />
          </mxGeometry>
        </mxCell>
        <mxCell id="5I3KeTdcbdDvLc3Blgrw-171" value="" style="endArrow=none;html=1;rounded=0;entryX=0.5;entryY=1;entryDx=0;entryDy=0;exitX=0.5;exitY=0;exitDx=0;exitDy=0;" parent="1" edge="1">
          <mxGeometry width="50" height="50" relative="1" as="geometry">
            <mxPoint x="167.5" y="340" as="sourcePoint" />
            <mxPoint x="7.5" y="230" as="targetPoint" />
          </mxGeometry>
        </mxCell>
        <mxCell id="5I3KeTdcbdDvLc3Blgrw-173" value="" style="endArrow=none;html=1;rounded=0;entryX=0.5;entryY=1;entryDx=0;entryDy=0;exitX=0.5;exitY=0;exitDx=0;exitDy=0;" parent="1" edge="1">
          <mxGeometry width="50" height="50" relative="1" as="geometry">
            <mxPoint x="168.30000000000018" y="340" as="sourcePoint" />
            <mxPoint x="168.30000000000018" y="230" as="targetPoint" />
          </mxGeometry>
        </mxCell>
        <mxCell id="5I3KeTdcbdDvLc3Blgrw-175" value="" style="endArrow=none;html=1;rounded=0;exitX=0.5;exitY=0;exitDx=0;exitDy=0;entryX=0.5;entryY=1;entryDx=0;entryDy=0;" parent="1" edge="1">
          <mxGeometry width="50" height="50" relative="1" as="geometry">
            <mxPoint x="167.5" y="340" as="sourcePoint" />
            <mxPoint x="327.5" y="230" as="targetPoint" />
          </mxGeometry>
        </mxCell>
        <mxCell id="5I3KeTdcbdDvLc3Blgrw-176" value="" style="endArrow=none;html=1;rounded=0;entryX=0.5;entryY=0;entryDx=0;entryDy=0;exitX=0.5;exitY=1;exitDx=0;exitDy=0;" parent="1" edge="1">
          <mxGeometry width="50" height="50" relative="1" as="geometry">
            <mxPoint x="407.5" y="230" as="sourcePoint" />
            <mxPoint x="167.5" y="340" as="targetPoint" />
          </mxGeometry>
        </mxCell>
        <mxCell id="5I3KeTdcbdDvLc3Blgrw-177" value="" style="endArrow=none;html=1;rounded=0;entryX=0.5;entryY=1;entryDx=0;entryDy=0;exitX=0.5;exitY=0;exitDx=0;exitDy=0;" parent="1" edge="1">
          <mxGeometry width="50" height="50" relative="1" as="geometry">
            <mxPoint x="167.5" y="340" as="sourcePoint" />
            <mxPoint x="487.5" y="230" as="targetPoint" />
          </mxGeometry>
        </mxCell>
        <mxCell id="5I3KeTdcbdDvLc3Blgrw-178" value="" style="endArrow=none;html=1;rounded=0;entryX=0.5;entryY=0;entryDx=0;entryDy=0;exitX=0.5;exitY=1;exitDx=0;exitDy=0;" parent="1" source="5I3KeTdcbdDvLc3Blgrw-84" target="5I3KeTdcbdDvLc3Blgrw-114" edge="1">
          <mxGeometry width="50" height="50" relative="1" as="geometry">
            <mxPoint x="102.5" y="510" as="sourcePoint" />
            <mxPoint x="152.5" y="460" as="targetPoint" />
          </mxGeometry>
        </mxCell>
        <mxCell id="5I3KeTdcbdDvLc3Blgrw-200" value="" style="endArrow=none;html=1;rounded=0;entryX=0.5;entryY=0;entryDx=0;entryDy=0;exitX=0.5;exitY=1;exitDx=0;exitDy=0;" parent="1" source="5I3KeTdcbdDvLc3Blgrw-85" target="5I3KeTdcbdDvLc3Blgrw-114" edge="1">
          <mxGeometry width="50" height="50" relative="1" as="geometry">
            <mxPoint x="177.5" y="240" as="sourcePoint" />
            <mxPoint x="97.5" y="350" as="targetPoint" />
          </mxGeometry>
        </mxCell>
        <mxCell id="5I3KeTdcbdDvLc3Blgrw-245" style="edgeStyle=orthogonalEdgeStyle;rounded=0;orthogonalLoop=1;jettySize=auto;html=1;exitX=0.5;exitY=1;exitDx=0;exitDy=0;" parent="1" source="5I3KeTdcbdDvLc3Blgrw-201" edge="1">
          <mxGeometry relative="1" as="geometry">
            <mxPoint x="-312.64285714285734" y="590" as="targetPoint" />
          </mxGeometry>
        </mxCell>
        <mxCell id="5I3KeTdcbdDvLc3Blgrw-201" value="LSTM CELL" style="rounded=0;whiteSpace=wrap;html=1;" parent="1" vertex="1">
          <mxGeometry x="-372.5" y="420" width="120" height="60" as="geometry" />
        </mxCell>
        <mxCell id="5I3KeTdcbdDvLc3Blgrw-246" style="edgeStyle=orthogonalEdgeStyle;rounded=0;orthogonalLoop=1;jettySize=auto;html=1;exitX=0.5;exitY=1;exitDx=0;exitDy=0;" parent="1" source="5I3KeTdcbdDvLc3Blgrw-202" edge="1">
          <mxGeometry relative="1" as="geometry">
            <mxPoint x="-152.64285714285734" y="590" as="targetPoint" />
          </mxGeometry>
        </mxCell>
        <mxCell id="5I3KeTdcbdDvLc3Blgrw-202" value="LSTM CELL" style="rounded=0;whiteSpace=wrap;html=1;" parent="1" vertex="1">
          <mxGeometry x="-212.5" y="420" width="120" height="60" as="geometry" />
        </mxCell>
        <mxCell id="5I3KeTdcbdDvLc3Blgrw-248" style="edgeStyle=orthogonalEdgeStyle;rounded=0;orthogonalLoop=1;jettySize=auto;html=1;exitX=0.5;exitY=1;exitDx=0;exitDy=0;" parent="1" source="5I3KeTdcbdDvLc3Blgrw-203" edge="1">
          <mxGeometry relative="1" as="geometry">
            <mxPoint x="2.7857142857142208" y="590" as="targetPoint" />
          </mxGeometry>
        </mxCell>
        <mxCell id="5I3KeTdcbdDvLc3Blgrw-203" value="LSTM CELL" style="rounded=0;whiteSpace=wrap;html=1;" parent="1" vertex="1">
          <mxGeometry x="-57.5" y="420" width="120" height="60" as="geometry" />
        </mxCell>
        <mxCell id="5I3KeTdcbdDvLc3Blgrw-250" style="edgeStyle=orthogonalEdgeStyle;rounded=0;orthogonalLoop=1;jettySize=auto;html=1;exitX=0.5;exitY=1;exitDx=0;exitDy=0;" parent="1" source="5I3KeTdcbdDvLc3Blgrw-204" edge="1">
          <mxGeometry relative="1" as="geometry">
            <mxPoint x="152.5" y="590" as="targetPoint" />
          </mxGeometry>
        </mxCell>
        <mxCell id="5I3KeTdcbdDvLc3Blgrw-204" value="LSTM CELL" style="rounded=0;whiteSpace=wrap;html=1;" parent="1" vertex="1">
          <mxGeometry x="92.5" y="420" width="120" height="60" as="geometry" />
        </mxCell>
        <mxCell id="5I3KeTdcbdDvLc3Blgrw-205" value="" style="endArrow=none;html=1;rounded=0;exitX=0.5;exitY=1;exitDx=0;exitDy=0;entryX=0.5;entryY=0;entryDx=0;entryDy=0;" parent="1" source="5I3KeTdcbdDvLc3Blgrw-108" target="5I3KeTdcbdDvLc3Blgrw-201" edge="1">
          <mxGeometry width="50" height="50" relative="1" as="geometry">
            <mxPoint x="72.5" y="330" as="sourcePoint" />
            <mxPoint x="122.5" y="280" as="targetPoint" />
          </mxGeometry>
        </mxCell>
        <mxCell id="5I3KeTdcbdDvLc3Blgrw-206" value="" style="endArrow=none;html=1;rounded=0;exitX=0.5;exitY=1;exitDx=0;exitDy=0;entryX=0.5;entryY=0;entryDx=0;entryDy=0;" parent="1" source="5I3KeTdcbdDvLc3Blgrw-108" target="5I3KeTdcbdDvLc3Blgrw-202" edge="1">
          <mxGeometry width="50" height="50" relative="1" as="geometry">
            <mxPoint x="-302.5" y="390" as="sourcePoint" />
            <mxPoint x="-302.5" y="430" as="targetPoint" />
          </mxGeometry>
        </mxCell>
        <mxCell id="5I3KeTdcbdDvLc3Blgrw-207" value="" style="endArrow=none;html=1;rounded=0;entryX=0.5;entryY=0;entryDx=0;entryDy=0;exitX=0.5;exitY=1;exitDx=0;exitDy=0;" parent="1" source="5I3KeTdcbdDvLc3Blgrw-108" target="5I3KeTdcbdDvLc3Blgrw-203" edge="1">
          <mxGeometry width="50" height="50" relative="1" as="geometry">
            <mxPoint x="-307.5" y="380" as="sourcePoint" />
            <mxPoint x="-292.5" y="440" as="targetPoint" />
          </mxGeometry>
        </mxCell>
        <mxCell id="5I3KeTdcbdDvLc3Blgrw-208" value="" style="endArrow=none;html=1;rounded=0;entryX=0.5;entryY=0;entryDx=0;entryDy=0;exitX=0.5;exitY=1;exitDx=0;exitDy=0;" parent="1" source="5I3KeTdcbdDvLc3Blgrw-108" target="5I3KeTdcbdDvLc3Blgrw-204" edge="1">
          <mxGeometry width="50" height="50" relative="1" as="geometry">
            <mxPoint x="-297.5" y="390" as="sourcePoint" />
            <mxPoint x="-282.5" y="450" as="targetPoint" />
          </mxGeometry>
        </mxCell>
        <mxCell id="5I3KeTdcbdDvLc3Blgrw-209" value="" style="endArrow=none;html=1;rounded=0;exitX=0.5;exitY=1;exitDx=0;exitDy=0;entryX=0.5;entryY=0;entryDx=0;entryDy=0;" parent="1" source="5I3KeTdcbdDvLc3Blgrw-109" target="5I3KeTdcbdDvLc3Blgrw-201" edge="1">
          <mxGeometry width="50" height="50" relative="1" as="geometry">
            <mxPoint x="-272.5" y="420" as="sourcePoint" />
            <mxPoint x="-272.5" y="460" as="targetPoint" />
          </mxGeometry>
        </mxCell>
        <mxCell id="5I3KeTdcbdDvLc3Blgrw-210" value="" style="endArrow=none;html=1;rounded=0;entryX=0.5;entryY=0;entryDx=0;entryDy=0;exitX=0.5;exitY=1;exitDx=0;exitDy=0;" parent="1" source="5I3KeTdcbdDvLc3Blgrw-109" target="5I3KeTdcbdDvLc3Blgrw-202" edge="1">
          <mxGeometry width="50" height="50" relative="1" as="geometry">
            <mxPoint x="-237.5" y="380" as="sourcePoint" />
            <mxPoint x="-262.5" y="470" as="targetPoint" />
          </mxGeometry>
        </mxCell>
        <mxCell id="5I3KeTdcbdDvLc3Blgrw-211" value="" style="endArrow=none;html=1;rounded=0;exitX=0.5;exitY=1;exitDx=0;exitDy=0;entryX=0.5;entryY=0;entryDx=0;entryDy=0;" parent="1" source="5I3KeTdcbdDvLc3Blgrw-109" target="5I3KeTdcbdDvLc3Blgrw-203" edge="1">
          <mxGeometry width="50" height="50" relative="1" as="geometry">
            <mxPoint x="-252.5" y="440" as="sourcePoint" />
            <mxPoint x="-252.5" y="480" as="targetPoint" />
          </mxGeometry>
        </mxCell>
        <mxCell id="5I3KeTdcbdDvLc3Blgrw-212" value="" style="endArrow=none;html=1;rounded=0;exitX=0.5;exitY=1;exitDx=0;exitDy=0;entryX=0.5;entryY=0;entryDx=0;entryDy=0;" parent="1" source="5I3KeTdcbdDvLc3Blgrw-109" target="5I3KeTdcbdDvLc3Blgrw-204" edge="1">
          <mxGeometry width="50" height="50" relative="1" as="geometry">
            <mxPoint x="-242.5" y="450" as="sourcePoint" />
            <mxPoint x="-242.5" y="490" as="targetPoint" />
          </mxGeometry>
        </mxCell>
        <mxCell id="5I3KeTdcbdDvLc3Blgrw-213" value="" style="endArrow=none;html=1;rounded=0;exitX=0.5;exitY=1;exitDx=0;exitDy=0;entryX=0.5;entryY=0;entryDx=0;entryDy=0;" parent="1" source="5I3KeTdcbdDvLc3Blgrw-110" target="5I3KeTdcbdDvLc3Blgrw-201" edge="1">
          <mxGeometry width="50" height="50" relative="1" as="geometry">
            <mxPoint x="-232.5" y="460" as="sourcePoint" />
            <mxPoint x="-232.5" y="500" as="targetPoint" />
          </mxGeometry>
        </mxCell>
        <mxCell id="5I3KeTdcbdDvLc3Blgrw-214" value="" style="endArrow=none;html=1;rounded=0;exitX=0.5;exitY=1;exitDx=0;exitDy=0;entryX=0.5;entryY=0;entryDx=0;entryDy=0;" parent="1" source="5I3KeTdcbdDvLc3Blgrw-110" target="5I3KeTdcbdDvLc3Blgrw-202" edge="1">
          <mxGeometry width="50" height="50" relative="1" as="geometry">
            <mxPoint x="-222.5" y="470" as="sourcePoint" />
            <mxPoint x="-222.5" y="510" as="targetPoint" />
          </mxGeometry>
        </mxCell>
        <mxCell id="5I3KeTdcbdDvLc3Blgrw-215" value="" style="endArrow=none;html=1;rounded=0;exitX=0.5;exitY=1;exitDx=0;exitDy=0;entryX=0.5;entryY=0;entryDx=0;entryDy=0;" parent="1" source="5I3KeTdcbdDvLc3Blgrw-110" target="5I3KeTdcbdDvLc3Blgrw-203" edge="1">
          <mxGeometry width="50" height="50" relative="1" as="geometry">
            <mxPoint x="-212.5" y="480" as="sourcePoint" />
            <mxPoint x="-212.5" y="520" as="targetPoint" />
          </mxGeometry>
        </mxCell>
        <mxCell id="5I3KeTdcbdDvLc3Blgrw-216" value="" style="endArrow=none;html=1;rounded=0;exitX=0.5;exitY=1;exitDx=0;exitDy=0;entryX=0.5;entryY=0;entryDx=0;entryDy=0;" parent="1" source="5I3KeTdcbdDvLc3Blgrw-110" target="5I3KeTdcbdDvLc3Blgrw-204" edge="1">
          <mxGeometry width="50" height="50" relative="1" as="geometry">
            <mxPoint x="-202.5" y="490" as="sourcePoint" />
            <mxPoint x="-202.5" y="530" as="targetPoint" />
          </mxGeometry>
        </mxCell>
        <mxCell id="5I3KeTdcbdDvLc3Blgrw-217" value="" style="endArrow=none;html=1;rounded=0;exitX=0.5;exitY=1;exitDx=0;exitDy=0;entryX=0.5;entryY=0;entryDx=0;entryDy=0;" parent="1" source="5I3KeTdcbdDvLc3Blgrw-112" target="5I3KeTdcbdDvLc3Blgrw-202" edge="1">
          <mxGeometry width="50" height="50" relative="1" as="geometry">
            <mxPoint x="-192.5" y="500" as="sourcePoint" />
            <mxPoint x="-192.5" y="540" as="targetPoint" />
          </mxGeometry>
        </mxCell>
        <mxCell id="5I3KeTdcbdDvLc3Blgrw-218" value="" style="endArrow=none;html=1;rounded=0;exitX=0.5;exitY=1;exitDx=0;exitDy=0;entryX=0.5;entryY=0;entryDx=0;entryDy=0;" parent="1" source="5I3KeTdcbdDvLc3Blgrw-112" target="5I3KeTdcbdDvLc3Blgrw-201" edge="1">
          <mxGeometry width="50" height="50" relative="1" as="geometry">
            <mxPoint x="-182.5" y="510" as="sourcePoint" />
            <mxPoint x="-182.5" y="550" as="targetPoint" />
          </mxGeometry>
        </mxCell>
        <mxCell id="5I3KeTdcbdDvLc3Blgrw-219" value="" style="endArrow=none;html=1;rounded=0;exitX=0.5;exitY=1;exitDx=0;exitDy=0;entryX=0.5;entryY=0;entryDx=0;entryDy=0;" parent="1" source="5I3KeTdcbdDvLc3Blgrw-112" target="5I3KeTdcbdDvLc3Blgrw-203" edge="1">
          <mxGeometry width="50" height="50" relative="1" as="geometry">
            <mxPoint x="-172.5" y="520" as="sourcePoint" />
            <mxPoint x="-172.5" y="560" as="targetPoint" />
          </mxGeometry>
        </mxCell>
        <mxCell id="5I3KeTdcbdDvLc3Blgrw-220" value="" style="endArrow=none;html=1;rounded=0;exitX=0.5;exitY=1;exitDx=0;exitDy=0;entryX=0.5;entryY=0;entryDx=0;entryDy=0;" parent="1" source="5I3KeTdcbdDvLc3Blgrw-112" target="5I3KeTdcbdDvLc3Blgrw-204" edge="1">
          <mxGeometry width="50" height="50" relative="1" as="geometry">
            <mxPoint x="-162.5" y="530" as="sourcePoint" />
            <mxPoint x="-162.5" y="570" as="targetPoint" />
          </mxGeometry>
        </mxCell>
        <mxCell id="5I3KeTdcbdDvLc3Blgrw-221" value="" style="endArrow=none;html=1;rounded=0;exitX=0.5;exitY=1;exitDx=0;exitDy=0;entryX=0.5;entryY=0;entryDx=0;entryDy=0;" parent="1" source="5I3KeTdcbdDvLc3Blgrw-113" target="5I3KeTdcbdDvLc3Blgrw-202" edge="1">
          <mxGeometry width="50" height="50" relative="1" as="geometry">
            <mxPoint x="-152.5" y="540" as="sourcePoint" />
            <mxPoint x="-152.5" y="580" as="targetPoint" />
          </mxGeometry>
        </mxCell>
        <mxCell id="5I3KeTdcbdDvLc3Blgrw-222" value="" style="endArrow=none;html=1;rounded=0;exitX=0.5;exitY=1;exitDx=0;exitDy=0;entryX=0.5;entryY=0;entryDx=0;entryDy=0;" parent="1" source="5I3KeTdcbdDvLc3Blgrw-113" target="5I3KeTdcbdDvLc3Blgrw-203" edge="1">
          <mxGeometry width="50" height="50" relative="1" as="geometry">
            <mxPoint x="-142.5" y="550" as="sourcePoint" />
            <mxPoint x="-142.5" y="590" as="targetPoint" />
          </mxGeometry>
        </mxCell>
        <mxCell id="5I3KeTdcbdDvLc3Blgrw-223" value="" style="endArrow=none;html=1;rounded=0;exitX=0.5;exitY=1;exitDx=0;exitDy=0;entryX=0.5;entryY=0;entryDx=0;entryDy=0;" parent="1" source="5I3KeTdcbdDvLc3Blgrw-113" target="5I3KeTdcbdDvLc3Blgrw-204" edge="1">
          <mxGeometry width="50" height="50" relative="1" as="geometry">
            <mxPoint x="-132.5" y="560" as="sourcePoint" />
            <mxPoint x="152.5" y="410" as="targetPoint" />
          </mxGeometry>
        </mxCell>
        <mxCell id="5I3KeTdcbdDvLc3Blgrw-224" value="" style="endArrow=none;html=1;rounded=0;exitX=0.5;exitY=1;exitDx=0;exitDy=0;entryX=0.5;entryY=0;entryDx=0;entryDy=0;" parent="1" source="5I3KeTdcbdDvLc3Blgrw-114" target="5I3KeTdcbdDvLc3Blgrw-203" edge="1">
          <mxGeometry width="50" height="50" relative="1" as="geometry">
            <mxPoint x="-122.5" y="570" as="sourcePoint" />
            <mxPoint x="-122.5" y="610" as="targetPoint" />
          </mxGeometry>
        </mxCell>
        <mxCell id="5I3KeTdcbdDvLc3Blgrw-225" value="" style="endArrow=none;html=1;rounded=0;exitX=0.5;exitY=1;exitDx=0;exitDy=0;entryX=0.5;entryY=0;entryDx=0;entryDy=0;" parent="1" source="5I3KeTdcbdDvLc3Blgrw-114" target="5I3KeTdcbdDvLc3Blgrw-204" edge="1">
          <mxGeometry width="50" height="50" relative="1" as="geometry">
            <mxPoint x="-112.5" y="580" as="sourcePoint" />
            <mxPoint x="-112.5" y="620" as="targetPoint" />
          </mxGeometry>
        </mxCell>
        <mxCell id="5I3KeTdcbdDvLc3Blgrw-226" value="" style="endArrow=none;html=1;rounded=0;entryX=0.5;entryY=0;entryDx=0;entryDy=0;exitX=0.5;exitY=1;exitDx=0;exitDy=0;" parent="1" source="5I3KeTdcbdDvLc3Blgrw-114" target="5I3KeTdcbdDvLc3Blgrw-202" edge="1">
          <mxGeometry width="50" height="50" relative="1" as="geometry">
            <mxPoint x="-107.5" y="590" as="sourcePoint" />
            <mxPoint x="-102.5" y="630" as="targetPoint" />
          </mxGeometry>
        </mxCell>
        <mxCell id="5I3KeTdcbdDvLc3Blgrw-227" value="" style="endArrow=none;html=1;rounded=0;exitX=0.5;exitY=1;exitDx=0;exitDy=0;entryX=0.5;entryY=0;entryDx=0;entryDy=0;" parent="1" source="5I3KeTdcbdDvLc3Blgrw-115" target="5I3KeTdcbdDvLc3Blgrw-204" edge="1">
          <mxGeometry width="50" height="50" relative="1" as="geometry">
            <mxPoint x="-92.5" y="600" as="sourcePoint" />
            <mxPoint x="-92.5" y="640" as="targetPoint" />
          </mxGeometry>
        </mxCell>
        <mxCell id="5I3KeTdcbdDvLc3Blgrw-228" value="" style="endArrow=none;html=1;rounded=0;exitX=0.5;exitY=1;exitDx=0;exitDy=0;entryX=0.5;entryY=0;entryDx=0;entryDy=0;" parent="1" source="5I3KeTdcbdDvLc3Blgrw-115" target="5I3KeTdcbdDvLc3Blgrw-203" edge="1">
          <mxGeometry width="50" height="50" relative="1" as="geometry">
            <mxPoint x="-82.5" y="610" as="sourcePoint" />
            <mxPoint x="-82.5" y="650" as="targetPoint" />
          </mxGeometry>
        </mxCell>
        <mxCell id="5I3KeTdcbdDvLc3Blgrw-229" value="" style="endArrow=none;html=1;rounded=0;exitX=0.5;exitY=1;exitDx=0;exitDy=0;entryX=0.5;entryY=0;entryDx=0;entryDy=0;" parent="1" source="5I3KeTdcbdDvLc3Blgrw-115" target="5I3KeTdcbdDvLc3Blgrw-202" edge="1">
          <mxGeometry width="50" height="50" relative="1" as="geometry">
            <mxPoint x="-72.74000000000001" y="510" as="sourcePoint" />
            <mxPoint x="-72.74000000000001" y="550" as="targetPoint" />
          </mxGeometry>
        </mxCell>
        <mxCell id="5I3KeTdcbdDvLc3Blgrw-230" value="" style="endArrow=none;html=1;rounded=0;exitX=0.5;exitY=1;exitDx=0;exitDy=0;entryX=0.5;entryY=0;entryDx=0;entryDy=0;" parent="1" source="5I3KeTdcbdDvLc3Blgrw-115" target="5I3KeTdcbdDvLc3Blgrw-201" edge="1">
          <mxGeometry width="50" height="50" relative="1" as="geometry">
            <mxPoint x="-62.74000000000001" y="520" as="sourcePoint" />
            <mxPoint x="-62.74000000000001" y="560" as="targetPoint" />
          </mxGeometry>
        </mxCell>
        <mxCell id="5I3KeTdcbdDvLc3Blgrw-238" style="edgeStyle=orthogonalEdgeStyle;rounded=0;orthogonalLoop=1;jettySize=auto;html=1;exitX=0;exitY=0.5;exitDx=0;exitDy=0;entryX=1;entryY=0.5;entryDx=0;entryDy=0;" parent="1" target="5I3KeTdcbdDvLc3Blgrw-231" edge="1">
          <mxGeometry relative="1" as="geometry">
            <mxPoint x="172.5" y="530" as="sourcePoint" />
          </mxGeometry>
        </mxCell>
        <mxCell id="5I3KeTdcbdDvLc3Blgrw-243" value="&lt;font face=&quot;Lucida Console&quot;&gt;(Real(H), Imag(H))&lt;/font&gt;" style="rounded=0;whiteSpace=wrap;html=1;" parent="1" vertex="1">
          <mxGeometry x="-387.5" y="590" width="617.5" height="60" as="geometry" />
        </mxCell>
        <mxCell id="5I3KeTdcbdDvLc3Blgrw-253" value="&lt;font face=&quot;Lucida Console&quot;&gt;Estimator&lt;/font&gt;" style="text;html=1;strokeColor=none;fillColor=none;align=center;verticalAlign=middle;whiteSpace=wrap;rounded=0;" parent="1" vertex="1">
          <mxGeometry x="-47.5" y="-80" width="60" height="30" as="geometry" />
        </mxCell>
        <mxCell id="T7AtJwpBMTiWjybmvqoy-2" value="" style="edgeStyle=orthogonalEdgeStyle;rounded=0;orthogonalLoop=1;jettySize=auto;html=1;exitX=1;exitY=0.5;exitDx=0;exitDy=0;entryX=0;entryY=0.5;entryDx=0;entryDy=0;" parent="1" target="T7AtJwpBMTiWjybmvqoy-1" edge="1">
          <mxGeometry relative="1" as="geometry">
            <mxPoint x="-492.5" y="100" as="sourcePoint" />
            <mxPoint x="347.5" y="100" as="targetPoint" />
          </mxGeometry>
        </mxCell>
        <mxCell id="Uo6fyncE6sulh7fjvNI7-64" style="edgeStyle=none;curved=1;rounded=0;orthogonalLoop=1;jettySize=auto;html=1;exitX=1;exitY=0.25;exitDx=0;exitDy=0;entryX=0;entryY=0.25;entryDx=0;entryDy=0;fontSize=12;startSize=8;endSize=8;" edge="1" parent="1" source="T7AtJwpBMTiWjybmvqoy-7" target="T7AtJwpBMTiWjybmvqoy-13">
          <mxGeometry relative="1" as="geometry" />
        </mxCell>
        <mxCell id="T7AtJwpBMTiWjybmvqoy-7" value="&lt;font face=&quot;Lucida Console&quot;&gt;LSTM CELL&lt;/font&gt;" style="rounded=0;whiteSpace=wrap;html=1;" parent="1" vertex="1">
          <mxGeometry x="-532.5" y="170" width="120" height="60" as="geometry" />
        </mxCell>
        <mxCell id="Uo6fyncE6sulh7fjvNI7-65" style="edgeStyle=none;curved=1;rounded=0;orthogonalLoop=1;jettySize=auto;html=1;exitX=0;exitY=0.75;exitDx=0;exitDy=0;entryX=1;entryY=0.75;entryDx=0;entryDy=0;fontSize=12;startSize=8;endSize=8;" edge="1" parent="1" source="T7AtJwpBMTiWjybmvqoy-13" target="T7AtJwpBMTiWjybmvqoy-7">
          <mxGeometry relative="1" as="geometry" />
        </mxCell>
        <mxCell id="T7AtJwpBMTiWjybmvqoy-13" value="&lt;font face=&quot;Lucida Console&quot;&gt;LSTM CELL&lt;/font&gt;" style="rounded=0;whiteSpace=wrap;html=1;" parent="1" vertex="1">
          <mxGeometry x="427.5" y="170" width="120" height="60" as="geometry" />
        </mxCell>
        <mxCell id="T7AtJwpBMTiWjybmvqoy-16" style="edgeStyle=orthogonalEdgeStyle;rounded=0;orthogonalLoop=1;jettySize=auto;html=1;exitX=0.397;exitY=0.968;exitDx=0;exitDy=0;entryX=0.5;entryY=0;entryDx=0;entryDy=0;exitPerimeter=0;" parent="1" source="5I3KeTdcbdDvLc3Blgrw-68" target="T7AtJwpBMTiWjybmvqoy-9" edge="1">
          <mxGeometry relative="1" as="geometry" />
        </mxCell>
        <mxCell id="Uo6fyncE6sulh7fjvNI7-66" style="edgeStyle=none;curved=1;rounded=0;orthogonalLoop=1;jettySize=auto;html=1;exitX=1;exitY=0.25;exitDx=0;exitDy=0;entryX=0;entryY=0.25;entryDx=0;entryDy=0;fontSize=12;startSize=8;endSize=8;" edge="1" parent="1" source="T7AtJwpBMTiWjybmvqoy-17" target="T7AtJwpBMTiWjybmvqoy-20">
          <mxGeometry relative="1" as="geometry" />
        </mxCell>
        <mxCell id="T7AtJwpBMTiWjybmvqoy-17" value="&lt;font face=&quot;Lucida Console&quot;&gt;LSTM CELL&lt;/font&gt;" style="rounded=0;whiteSpace=wrap;html=1;" parent="1" vertex="1">
          <mxGeometry x="-372.5" y="420" width="120" height="60" as="geometry" />
        </mxCell>
        <mxCell id="Uo6fyncE6sulh7fjvNI7-67" style="edgeStyle=none;curved=1;rounded=0;orthogonalLoop=1;jettySize=auto;html=1;exitX=0;exitY=0.75;exitDx=0;exitDy=0;entryX=1;entryY=0.75;entryDx=0;entryDy=0;fontSize=12;startSize=8;endSize=8;" edge="1" parent="1" source="T7AtJwpBMTiWjybmvqoy-20" target="T7AtJwpBMTiWjybmvqoy-17">
          <mxGeometry relative="1" as="geometry" />
        </mxCell>
        <mxCell id="T7AtJwpBMTiWjybmvqoy-20" value="&lt;font face=&quot;Lucida Console&quot;&gt;LSTM CELL&lt;/font&gt;" style="rounded=0;whiteSpace=wrap;html=1;" parent="1" vertex="1">
          <mxGeometry x="92.5" y="420" width="120" height="60" as="geometry" />
        </mxCell>
        <mxCell id="Uo6fyncE6sulh7fjvNI7-1" value="" style="rounded=0;whiteSpace=wrap;html=1;fillColor=none;dashed=1;dashPattern=8 8;" vertex="1" parent="1">
          <mxGeometry x="-105" y="-980" width="530" height="680" as="geometry" />
        </mxCell>
        <mxCell id="Uo6fyncE6sulh7fjvNI7-2" value="" style="rounded=0;whiteSpace=wrap;html=1;fillColor=none;dashed=1;dashPattern=8 8;" vertex="1" parent="1">
          <mxGeometry x="-302.5" y="-1010" width="170" height="280" as="geometry" />
        </mxCell>
        <mxCell id="Uo6fyncE6sulh7fjvNI7-3" style="rounded=0;orthogonalLoop=1;jettySize=auto;html=1;exitX=1;exitY=0;exitDx=0;exitDy=0;entryX=0;entryY=0;entryDx=0;entryDy=0;endArrow=none;endFill=0;" edge="1" parent="1" source="Uo6fyncE6sulh7fjvNI7-5" target="Uo6fyncE6sulh7fjvNI7-8">
          <mxGeometry relative="1" as="geometry" />
        </mxCell>
        <mxCell id="Uo6fyncE6sulh7fjvNI7-4" style="rounded=0;orthogonalLoop=1;jettySize=auto;html=1;exitX=1;exitY=1;exitDx=0;exitDy=0;entryX=0;entryY=1;entryDx=0;entryDy=0;endArrow=none;endFill=0;" edge="1" parent="1" source="Uo6fyncE6sulh7fjvNI7-5" target="Uo6fyncE6sulh7fjvNI7-8">
          <mxGeometry relative="1" as="geometry" />
        </mxCell>
        <mxCell id="Uo6fyncE6sulh7fjvNI7-5" value="&lt;font style=&quot;font-size: 11px;&quot; face=&quot;Lucida Console&quot;&gt;32, 32&lt;/font&gt;" style="whiteSpace=wrap;html=1;aspect=fixed;" vertex="1" parent="1">
          <mxGeometry x="-282.5" y="-851.25" width="40" height="40" as="geometry" />
        </mxCell>
        <mxCell id="Uo6fyncE6sulh7fjvNI7-8" value="&lt;div&gt;&lt;font face=&quot;Lucida Console&quot;&gt;2x2 Resize&lt;/font&gt;&lt;/div&gt;" style="whiteSpace=wrap;html=1;aspect=fixed;" vertex="1" parent="1">
          <mxGeometry x="-212.5" y="-852.5" width="42.5" height="42.5" as="geometry" />
        </mxCell>
        <mxCell id="Uo6fyncE6sulh7fjvNI7-9" style="edgeStyle=orthogonalEdgeStyle;rounded=0;orthogonalLoop=1;jettySize=auto;html=1;exitX=0.5;exitY=1;exitDx=0;exitDy=0;entryX=0.5;entryY=0;entryDx=0;entryDy=0;" edge="1" parent="1" source="Uo6fyncE6sulh7fjvNI7-10" target="Uo6fyncE6sulh7fjvNI7-8">
          <mxGeometry relative="1" as="geometry" />
        </mxCell>
        <mxCell id="Uo6fyncE6sulh7fjvNI7-10" value="&lt;font face=&quot;Lucida Console&quot;&gt;AWGN&lt;/font&gt;" style="whiteSpace=wrap;html=1;aspect=fixed;" vertex="1" parent="1">
          <mxGeometry x="-232.5" y="-990" width="80" height="80" as="geometry" />
        </mxCell>
        <mxCell id="Uo6fyncE6sulh7fjvNI7-12" style="edgeStyle=orthogonalEdgeStyle;rounded=0;orthogonalLoop=1;jettySize=auto;html=1;exitX=1;exitY=0.5;exitDx=0;exitDy=0;entryX=0;entryY=0.5;entryDx=0;entryDy=0;" edge="1" parent="1" source="Uo6fyncE6sulh7fjvNI7-13" target="Uo6fyncE6sulh7fjvNI7-15">
          <mxGeometry relative="1" as="geometry" />
        </mxCell>
        <mxCell id="Uo6fyncE6sulh7fjvNI7-13" value="&lt;font face=&quot;Lucida Console&quot;&gt;ReLU&lt;/font&gt;" style="whiteSpace=wrap;html=1;aspect=fixed;" vertex="1" parent="1">
          <mxGeometry x="65" y="-850" width="40" height="40" as="geometry" />
        </mxCell>
        <mxCell id="Uo6fyncE6sulh7fjvNI7-14" style="edgeStyle=orthogonalEdgeStyle;rounded=0;orthogonalLoop=1;jettySize=auto;html=1;exitX=1;exitY=0.5;exitDx=0;exitDy=0;entryX=0;entryY=0.5;entryDx=0;entryDy=0;" edge="1" parent="1" source="Uo6fyncE6sulh7fjvNI7-15" target="Uo6fyncE6sulh7fjvNI7-20">
          <mxGeometry relative="1" as="geometry" />
        </mxCell>
        <mxCell id="Uo6fyncE6sulh7fjvNI7-15" value="&lt;font face=&quot;Lucida Console&quot;&gt;Batch Normalisation&lt;/font&gt;" style="rounded=0;whiteSpace=wrap;html=1;" vertex="1" parent="1">
          <mxGeometry x="135" y="-850" width="120" height="40" as="geometry" />
        </mxCell>
        <mxCell id="Uo6fyncE6sulh7fjvNI7-16" style="rounded=0;orthogonalLoop=1;jettySize=auto;html=1;exitX=1;exitY=0;exitDx=0;exitDy=0;entryX=0;entryY=0;entryDx=0;entryDy=0;endArrow=none;endFill=0;" edge="1" parent="1" target="Uo6fyncE6sulh7fjvNI7-19" source="Uo6fyncE6sulh7fjvNI7-8">
          <mxGeometry relative="1" as="geometry">
            <mxPoint x="-125" y="-870.0000000000002" as="sourcePoint" />
          </mxGeometry>
        </mxCell>
        <mxCell id="Uo6fyncE6sulh7fjvNI7-17" style="rounded=0;orthogonalLoop=1;jettySize=auto;html=1;exitX=1;exitY=1;exitDx=0;exitDy=0;entryX=0;entryY=1;entryDx=0;entryDy=0;endArrow=none;endFill=0;" edge="1" parent="1" target="Uo6fyncE6sulh7fjvNI7-19" source="Uo6fyncE6sulh7fjvNI7-8">
          <mxGeometry relative="1" as="geometry">
            <mxPoint x="-125" y="-790.0000000000002" as="sourcePoint" />
          </mxGeometry>
        </mxCell>
        <mxCell id="Uo6fyncE6sulh7fjvNI7-18" style="edgeStyle=orthogonalEdgeStyle;rounded=0;orthogonalLoop=1;jettySize=auto;html=1;exitX=1;exitY=0.5;exitDx=0;exitDy=0;entryX=0;entryY=0.5;entryDx=0;entryDy=0;" edge="1" parent="1" source="Uo6fyncE6sulh7fjvNI7-19" target="Uo6fyncE6sulh7fjvNI7-13">
          <mxGeometry relative="1" as="geometry" />
        </mxCell>
        <mxCell id="Uo6fyncE6sulh7fjvNI7-19" value="&lt;div&gt;&lt;font face=&quot;Lucida Console&quot;&gt;Convolution 1x1x1280&lt;br&gt;&lt;/font&gt;&lt;/div&gt;" style="whiteSpace=wrap;html=1;aspect=fixed;" vertex="1" parent="1">
          <mxGeometry x="-85" y="-890" width="120" height="120" as="geometry" />
        </mxCell>
        <mxCell id="Uo6fyncE6sulh7fjvNI7-20" value="&lt;font face=&quot;Lucida Console&quot;&gt;128 x 128 x 1280&lt;br&gt;&lt;/font&gt;" style="whiteSpace=wrap;html=1;aspect=fixed;" vertex="1" parent="1">
          <mxGeometry x="285" y="-890" width="120" height="120" as="geometry" />
        </mxCell>
        <mxCell id="Uo6fyncE6sulh7fjvNI7-21" style="edgeStyle=none;curved=1;rounded=0;orthogonalLoop=1;jettySize=auto;html=1;exitX=0;exitY=0.5;exitDx=0;exitDy=0;entryX=1;entryY=0.5;entryDx=0;entryDy=0;fontSize=12;startSize=8;endSize=8;" edge="1" parent="1" source="Uo6fyncE6sulh7fjvNI7-22" target="Uo6fyncE6sulh7fjvNI7-28">
          <mxGeometry relative="1" as="geometry" />
        </mxCell>
        <mxCell id="Uo6fyncE6sulh7fjvNI7-22" value="&lt;div&gt;&lt;font face=&quot;Lucida Console&quot;&gt;Convolution 1x1x1280&lt;br&gt;&lt;/font&gt;&lt;/div&gt;" style="whiteSpace=wrap;html=1;aspect=fixed;" vertex="1" parent="1">
          <mxGeometry x="285" y="-740" width="120" height="120" as="geometry" />
        </mxCell>
        <mxCell id="Uo6fyncE6sulh7fjvNI7-23" value="&lt;font face=&quot;Lucida Console&quot;&gt;Noise Interference Port&lt;/font&gt;" style="text;html=1;strokeColor=none;fillColor=none;align=center;verticalAlign=middle;whiteSpace=wrap;rounded=0;" vertex="1" parent="1">
          <mxGeometry x="-297.5" y="-760" width="160" height="30" as="geometry" />
        </mxCell>
        <mxCell id="Uo6fyncE6sulh7fjvNI7-24" value="&lt;font face=&quot;Lucida Console&quot;&gt;Network in Network Stage&lt;br&gt;&lt;/font&gt;" style="text;html=1;strokeColor=none;fillColor=none;align=center;verticalAlign=middle;whiteSpace=wrap;rounded=0;" vertex="1" parent="1">
          <mxGeometry x="35" y="-980" width="240" height="30" as="geometry" />
        </mxCell>
        <mxCell id="Uo6fyncE6sulh7fjvNI7-25" style="rounded=0;orthogonalLoop=1;jettySize=auto;html=1;exitX=0;exitY=1;exitDx=0;exitDy=0;entryX=0;entryY=0;entryDx=0;entryDy=0;endArrow=none;endFill=0;" edge="1" parent="1" source="Uo6fyncE6sulh7fjvNI7-20" target="Uo6fyncE6sulh7fjvNI7-22">
          <mxGeometry relative="1" as="geometry">
            <mxPoint x="445" y="-790" as="sourcePoint" />
            <mxPoint x="445" y="-655" as="targetPoint" />
          </mxGeometry>
        </mxCell>
        <mxCell id="Uo6fyncE6sulh7fjvNI7-26" style="rounded=0;orthogonalLoop=1;jettySize=auto;html=1;exitX=1;exitY=1;exitDx=0;exitDy=0;entryX=1;entryY=0;entryDx=0;entryDy=0;endArrow=none;endFill=0;" edge="1" parent="1" source="Uo6fyncE6sulh7fjvNI7-20" target="Uo6fyncE6sulh7fjvNI7-22">
          <mxGeometry relative="1" as="geometry">
            <mxPoint x="525" y="-790" as="sourcePoint" />
            <mxPoint x="525" y="-655" as="targetPoint" />
          </mxGeometry>
        </mxCell>
        <mxCell id="Uo6fyncE6sulh7fjvNI7-27" style="edgeStyle=none;curved=1;rounded=0;orthogonalLoop=1;jettySize=auto;html=1;exitX=0;exitY=0.5;exitDx=0;exitDy=0;entryX=1;entryY=0.5;entryDx=0;entryDy=0;fontSize=12;startSize=8;endSize=8;" edge="1" parent="1" source="Uo6fyncE6sulh7fjvNI7-28" target="Uo6fyncE6sulh7fjvNI7-30">
          <mxGeometry relative="1" as="geometry" />
        </mxCell>
        <mxCell id="Uo6fyncE6sulh7fjvNI7-28" value="&lt;font face=&quot;Lucida Console&quot;&gt;ReLU&lt;/font&gt;" style="whiteSpace=wrap;html=1;aspect=fixed;" vertex="1" parent="1">
          <mxGeometry x="215" y="-700" width="40" height="40" as="geometry" />
        </mxCell>
        <mxCell id="Uo6fyncE6sulh7fjvNI7-29" style="edgeStyle=none;curved=1;rounded=0;orthogonalLoop=1;jettySize=auto;html=1;exitX=0;exitY=0.5;exitDx=0;exitDy=0;entryX=1;entryY=0.5;entryDx=0;entryDy=0;fontSize=12;startSize=8;endSize=8;" edge="1" parent="1" source="Uo6fyncE6sulh7fjvNI7-30" target="Uo6fyncE6sulh7fjvNI7-31">
          <mxGeometry relative="1" as="geometry" />
        </mxCell>
        <mxCell id="Uo6fyncE6sulh7fjvNI7-30" value="&lt;font face=&quot;Lucida Console&quot;&gt;Batch Normalisation&lt;/font&gt;" style="rounded=0;whiteSpace=wrap;html=1;" vertex="1" parent="1">
          <mxGeometry x="65" y="-700" width="120" height="40" as="geometry" />
        </mxCell>
        <mxCell id="Uo6fyncE6sulh7fjvNI7-31" value="&lt;font face=&quot;Lucida Console&quot;&gt;128 x 128 x 1280&lt;br&gt;&lt;/font&gt;" style="whiteSpace=wrap;html=1;aspect=fixed;" vertex="1" parent="1">
          <mxGeometry x="-85" y="-740" width="120" height="120" as="geometry" />
        </mxCell>
        <mxCell id="Uo6fyncE6sulh7fjvNI7-32" style="edgeStyle=orthogonalEdgeStyle;rounded=0;orthogonalLoop=1;jettySize=auto;html=1;exitX=1;exitY=0.5;exitDx=0;exitDy=0;entryX=0;entryY=0.5;entryDx=0;entryDy=0;" edge="1" parent="1" source="Uo6fyncE6sulh7fjvNI7-33" target="Uo6fyncE6sulh7fjvNI7-35">
          <mxGeometry relative="1" as="geometry" />
        </mxCell>
        <mxCell id="Uo6fyncE6sulh7fjvNI7-33" value="&lt;font face=&quot;Lucida Console&quot;&gt;ReLU&lt;/font&gt;" style="whiteSpace=wrap;html=1;aspect=fixed;" vertex="1" parent="1">
          <mxGeometry x="65" y="-550" width="40" height="40" as="geometry" />
        </mxCell>
        <mxCell id="Uo6fyncE6sulh7fjvNI7-34" style="edgeStyle=orthogonalEdgeStyle;rounded=0;orthogonalLoop=1;jettySize=auto;html=1;exitX=1;exitY=0.5;exitDx=0;exitDy=0;entryX=0;entryY=0.5;entryDx=0;entryDy=0;" edge="1" parent="1" source="Uo6fyncE6sulh7fjvNI7-35" target="Uo6fyncE6sulh7fjvNI7-38">
          <mxGeometry relative="1" as="geometry" />
        </mxCell>
        <mxCell id="Uo6fyncE6sulh7fjvNI7-35" value="&lt;font face=&quot;Lucida Console&quot;&gt;Batch Normalisation&lt;/font&gt;" style="rounded=0;whiteSpace=wrap;html=1;" vertex="1" parent="1">
          <mxGeometry x="135" y="-550" width="120" height="40" as="geometry" />
        </mxCell>
        <mxCell id="Uo6fyncE6sulh7fjvNI7-36" style="edgeStyle=orthogonalEdgeStyle;rounded=0;orthogonalLoop=1;jettySize=auto;html=1;exitX=1;exitY=0.5;exitDx=0;exitDy=0;entryX=0;entryY=0.5;entryDx=0;entryDy=0;" edge="1" parent="1" source="Uo6fyncE6sulh7fjvNI7-37" target="Uo6fyncE6sulh7fjvNI7-33">
          <mxGeometry relative="1" as="geometry" />
        </mxCell>
        <mxCell id="Uo6fyncE6sulh7fjvNI7-37" value="&lt;div&gt;&lt;font face=&quot;Lucida Console&quot;&gt;Convolution 1x1x1280&lt;br&gt;&lt;/font&gt;&lt;/div&gt;" style="whiteSpace=wrap;html=1;aspect=fixed;" vertex="1" parent="1">
          <mxGeometry x="-85" y="-590" width="120" height="120" as="geometry" />
        </mxCell>
        <mxCell id="Uo6fyncE6sulh7fjvNI7-38" value="&lt;font face=&quot;Lucida Console&quot;&gt;128 x 128 x 1280&lt;br&gt;&lt;/font&gt;" style="whiteSpace=wrap;html=1;aspect=fixed;" vertex="1" parent="1">
          <mxGeometry x="285" y="-590" width="120" height="120" as="geometry" />
        </mxCell>
        <mxCell id="Uo6fyncE6sulh7fjvNI7-39" style="edgeStyle=none;curved=1;rounded=0;orthogonalLoop=1;jettySize=auto;html=1;exitX=0;exitY=0.5;exitDx=0;exitDy=0;entryX=1;entryY=0.5;entryDx=0;entryDy=0;fontSize=12;startSize=8;endSize=8;" edge="1" parent="1" source="Uo6fyncE6sulh7fjvNI7-40" target="Uo6fyncE6sulh7fjvNI7-42">
          <mxGeometry relative="1" as="geometry" />
        </mxCell>
        <mxCell id="Uo6fyncE6sulh7fjvNI7-40" value="&lt;div&gt;&lt;font face=&quot;Lucida Console&quot;&gt;Convolution 1x1x1280&lt;br&gt;&lt;/font&gt;&lt;/div&gt;" style="whiteSpace=wrap;html=1;aspect=fixed;" vertex="1" parent="1">
          <mxGeometry x="285" y="-440" width="120" height="120" as="geometry" />
        </mxCell>
        <mxCell id="Uo6fyncE6sulh7fjvNI7-41" style="edgeStyle=none;curved=1;rounded=0;orthogonalLoop=1;jettySize=auto;html=1;exitX=0;exitY=0.5;exitDx=0;exitDy=0;entryX=1;entryY=0.5;entryDx=0;entryDy=0;fontSize=12;startSize=8;endSize=8;" edge="1" parent="1" source="Uo6fyncE6sulh7fjvNI7-42" target="Uo6fyncE6sulh7fjvNI7-44">
          <mxGeometry relative="1" as="geometry" />
        </mxCell>
        <mxCell id="Uo6fyncE6sulh7fjvNI7-42" value="&lt;font face=&quot;Lucida Console&quot;&gt;ReLU&lt;/font&gt;" style="whiteSpace=wrap;html=1;aspect=fixed;" vertex="1" parent="1">
          <mxGeometry x="215" y="-400" width="40" height="40" as="geometry" />
        </mxCell>
        <mxCell id="Uo6fyncE6sulh7fjvNI7-43" style="edgeStyle=none;curved=1;rounded=0;orthogonalLoop=1;jettySize=auto;html=1;exitX=0;exitY=0.5;exitDx=0;exitDy=0;entryX=1;entryY=0.5;entryDx=0;entryDy=0;fontSize=12;startSize=8;endSize=8;" edge="1" parent="1" source="Uo6fyncE6sulh7fjvNI7-44" target="Uo6fyncE6sulh7fjvNI7-45">
          <mxGeometry relative="1" as="geometry" />
        </mxCell>
        <mxCell id="Uo6fyncE6sulh7fjvNI7-44" value="&lt;font face=&quot;Lucida Console&quot;&gt;Batch Normalisation&lt;/font&gt;" style="rounded=0;whiteSpace=wrap;html=1;" vertex="1" parent="1">
          <mxGeometry x="65" y="-400" width="120" height="40" as="geometry" />
        </mxCell>
        <mxCell id="Uo6fyncE6sulh7fjvNI7-45" value="&lt;font face=&quot;Lucida Console&quot;&gt;128 x 128 x 1280&lt;br&gt;&lt;/font&gt;" style="whiteSpace=wrap;html=1;aspect=fixed;" vertex="1" parent="1">
          <mxGeometry x="-85" y="-440" width="120" height="120" as="geometry" />
        </mxCell>
        <mxCell id="Uo6fyncE6sulh7fjvNI7-46" style="rounded=0;orthogonalLoop=1;jettySize=auto;html=1;exitX=0;exitY=1;exitDx=0;exitDy=0;entryX=0;entryY=0;entryDx=0;entryDy=0;endArrow=none;endFill=0;" edge="1" parent="1">
          <mxGeometry relative="1" as="geometry">
            <mxPoint x="-85.48000000000002" y="-620" as="sourcePoint" />
            <mxPoint x="-85.48000000000002" y="-590" as="targetPoint" />
          </mxGeometry>
        </mxCell>
        <mxCell id="Uo6fyncE6sulh7fjvNI7-47" style="rounded=0;orthogonalLoop=1;jettySize=auto;html=1;exitX=1;exitY=1;exitDx=0;exitDy=0;entryX=1;entryY=0;entryDx=0;entryDy=0;endArrow=none;endFill=0;" edge="1" parent="1">
          <mxGeometry relative="1" as="geometry">
            <mxPoint x="34.51999999999998" y="-620" as="sourcePoint" />
            <mxPoint x="34.51999999999998" y="-590" as="targetPoint" />
          </mxGeometry>
        </mxCell>
        <mxCell id="Uo6fyncE6sulh7fjvNI7-48" style="rounded=0;orthogonalLoop=1;jettySize=auto;html=1;exitX=0;exitY=1;exitDx=0;exitDy=0;entryX=0;entryY=0;entryDx=0;entryDy=0;endArrow=none;endFill=0;" edge="1" parent="1">
          <mxGeometry relative="1" as="geometry">
            <mxPoint x="285" y="-470" as="sourcePoint" />
            <mxPoint x="285" y="-440" as="targetPoint" />
          </mxGeometry>
        </mxCell>
        <mxCell id="Uo6fyncE6sulh7fjvNI7-49" style="rounded=0;orthogonalLoop=1;jettySize=auto;html=1;exitX=1;exitY=1;exitDx=0;exitDy=0;entryX=1;entryY=0;entryDx=0;entryDy=0;endArrow=none;endFill=0;" edge="1" parent="1">
          <mxGeometry relative="1" as="geometry">
            <mxPoint x="405" y="-470" as="sourcePoint" />
            <mxPoint x="405" y="-440" as="targetPoint" />
          </mxGeometry>
        </mxCell>
        <mxCell id="Uo6fyncE6sulh7fjvNI7-50" value="&lt;div&gt;&lt;font face=&quot;Lucida Console&quot;&gt;Convolution &lt;br&gt;&lt;/font&gt;&lt;/div&gt;&lt;div&gt;&lt;font face=&quot;Lucida Console&quot;&gt;1x1x1&lt;br&gt;&lt;/font&gt;&lt;/div&gt;" style="whiteSpace=wrap;html=1;aspect=fixed;" vertex="1" parent="1">
          <mxGeometry x="-85" y="-280" width="120" height="120" as="geometry" />
        </mxCell>
        <mxCell id="Uo6fyncE6sulh7fjvNI7-51" style="rounded=0;orthogonalLoop=1;jettySize=auto;html=1;exitX=0;exitY=1;exitDx=0;exitDy=0;entryX=0;entryY=0;entryDx=0;entryDy=0;endArrow=none;endFill=0;" edge="1" parent="1" target="Uo6fyncE6sulh7fjvNI7-50">
          <mxGeometry relative="1" as="geometry">
            <mxPoint x="-85" y="-320" as="sourcePoint" />
            <mxPoint x="-85" y="-290" as="targetPoint" />
          </mxGeometry>
        </mxCell>
        <mxCell id="Uo6fyncE6sulh7fjvNI7-52" style="rounded=0;orthogonalLoop=1;jettySize=auto;html=1;exitX=1;exitY=1;exitDx=0;exitDy=0;entryX=1;entryY=0;entryDx=0;entryDy=0;endArrow=none;endFill=0;" edge="1" parent="1" target="Uo6fyncE6sulh7fjvNI7-50">
          <mxGeometry relative="1" as="geometry">
            <mxPoint x="35" y="-320" as="sourcePoint" />
            <mxPoint x="35" y="-290" as="targetPoint" />
          </mxGeometry>
        </mxCell>
        <mxCell id="Uo6fyncE6sulh7fjvNI7-53" value="&lt;div&gt;&lt;font face=&quot;Lucida Console&quot;&gt;Average Pooling Layer&lt;/font&gt;&lt;/div&gt;&lt;div&gt;&lt;font face=&quot;Lucida Console&quot;&gt;Stride 4&lt;br&gt;&lt;/font&gt;&lt;/div&gt;&lt;div&gt;&lt;font face=&quot;Lucida Console&quot;&gt;Width 4&lt;br&gt;&lt;/font&gt;&lt;/div&gt;" style="whiteSpace=wrap;html=1;aspect=fixed;" vertex="1" parent="1">
          <mxGeometry x="75" y="-280" width="120" height="120" as="geometry" />
        </mxCell>
        <mxCell id="Uo6fyncE6sulh7fjvNI7-54" style="rounded=0;orthogonalLoop=1;jettySize=auto;html=1;exitX=0;exitY=0;exitDx=0;exitDy=0;entryX=1;entryY=0;entryDx=0;entryDy=0;endArrow=none;endFill=0;" edge="1" parent="1" source="Uo6fyncE6sulh7fjvNI7-53" target="Uo6fyncE6sulh7fjvNI7-50">
          <mxGeometry relative="1" as="geometry">
            <mxPoint x="45" y="-310" as="sourcePoint" />
            <mxPoint x="45" y="-270" as="targetPoint" />
          </mxGeometry>
        </mxCell>
        <mxCell id="Uo6fyncE6sulh7fjvNI7-55" style="rounded=0;orthogonalLoop=1;jettySize=auto;html=1;exitX=0;exitY=0;exitDx=0;exitDy=0;entryX=1;entryY=0;entryDx=0;entryDy=0;endArrow=none;endFill=0;" edge="1" parent="1">
          <mxGeometry relative="1" as="geometry">
            <mxPoint x="75" y="-160" as="sourcePoint" />
            <mxPoint x="35" y="-160" as="targetPoint" />
          </mxGeometry>
        </mxCell>
        <mxCell id="Uo6fyncE6sulh7fjvNI7-56" value="32, 32" style="whiteSpace=wrap;html=1;aspect=fixed;" vertex="1" parent="1">
          <mxGeometry x="275" y="-241.25" width="42.5" height="42.5" as="geometry" />
        </mxCell>
        <mxCell id="Uo6fyncE6sulh7fjvNI7-57" style="rounded=0;orthogonalLoop=1;jettySize=auto;html=1;exitX=0;exitY=0;exitDx=0;exitDy=0;entryX=1;entryY=0;entryDx=0;entryDy=0;endArrow=none;endFill=0;" edge="1" parent="1" source="Uo6fyncE6sulh7fjvNI7-56" target="Uo6fyncE6sulh7fjvNI7-53">
          <mxGeometry relative="1" as="geometry">
            <mxPoint x="85" y="-270" as="sourcePoint" />
            <mxPoint x="45" y="-270" as="targetPoint" />
          </mxGeometry>
        </mxCell>
        <mxCell id="Uo6fyncE6sulh7fjvNI7-58" style="rounded=0;orthogonalLoop=1;jettySize=auto;html=1;exitX=0;exitY=1;exitDx=0;exitDy=0;endArrow=none;endFill=0;entryX=1;entryY=1;entryDx=0;entryDy=0;" edge="1" parent="1" source="Uo6fyncE6sulh7fjvNI7-56" target="Uo6fyncE6sulh7fjvNI7-53">
          <mxGeometry relative="1" as="geometry">
            <mxPoint x="285" y="-231" as="sourcePoint" />
            <mxPoint x="205" y="-270" as="targetPoint" />
          </mxGeometry>
        </mxCell>
        <mxCell id="Uo6fyncE6sulh7fjvNI7-60" value="&lt;font face=&quot;Lucida Console&quot;&gt;Output Stage&lt;br&gt;&lt;/font&gt;" style="text;html=1;strokeColor=none;fillColor=none;align=center;verticalAlign=middle;whiteSpace=wrap;rounded=0;" vertex="1" parent="1">
          <mxGeometry x="40" y="-160" width="240" height="30" as="geometry" />
        </mxCell>
        <mxCell id="T7AtJwpBMTiWjybmvqoy-8" value="&lt;font face=&quot;Lucida Console&quot;&gt;LSTM CELL&lt;/font&gt;" style="rounded=0;whiteSpace=wrap;html=1;" parent="1" vertex="1">
          <mxGeometry x="-372.5" y="170" width="120" height="60" as="geometry" />
        </mxCell>
        <mxCell id="T7AtJwpBMTiWjybmvqoy-9" value="&lt;font face=&quot;Lucida Console&quot;&gt;LSTM CELL&lt;/font&gt;" style="rounded=0;whiteSpace=wrap;html=1;" parent="1" vertex="1">
          <mxGeometry x="-212.5" y="170" width="120" height="60" as="geometry" />
        </mxCell>
        <mxCell id="T7AtJwpBMTiWjybmvqoy-10" value="&lt;font face=&quot;Lucida Console&quot;&gt;LSTM CELL&lt;/font&gt;" style="rounded=0;whiteSpace=wrap;html=1;" parent="1" vertex="1">
          <mxGeometry x="-52.5" y="170" width="120" height="60" as="geometry" />
        </mxCell>
        <mxCell id="T7AtJwpBMTiWjybmvqoy-11" value="&lt;font face=&quot;Lucida Console&quot;&gt;LSTM CELL&lt;/font&gt;" style="rounded=0;whiteSpace=wrap;html=1;" parent="1" vertex="1">
          <mxGeometry x="107.5" y="170" width="120" height="60" as="geometry" />
        </mxCell>
        <mxCell id="T7AtJwpBMTiWjybmvqoy-12" value="&lt;font face=&quot;Lucida Console&quot;&gt;LSTM CELL&lt;/font&gt;" style="rounded=0;whiteSpace=wrap;html=1;" parent="1" vertex="1">
          <mxGeometry x="267.5" y="170" width="120" height="60" as="geometry" />
        </mxCell>
        <mxCell id="T7AtJwpBMTiWjybmvqoy-18" value="&lt;font face=&quot;Lucida Console&quot;&gt;LSTM CELL&lt;/font&gt;" style="rounded=0;whiteSpace=wrap;html=1;" parent="1" vertex="1">
          <mxGeometry x="-212.5" y="420" width="120" height="60" as="geometry" />
        </mxCell>
        <mxCell id="T7AtJwpBMTiWjybmvqoy-19" value="&lt;font face=&quot;Lucida Console&quot;&gt;LSTM CELL&lt;/font&gt;" style="rounded=0;whiteSpace=wrap;html=1;" parent="1" vertex="1">
          <mxGeometry x="-57.5" y="420" width="120" height="60" as="geometry" />
        </mxCell>
      </root>
    </mxGraphModel>
  </diagram>
  <diagram id="aG_FsHYGQ8qDO_3G12-G" name="Simplified Model">
    <mxGraphModel dx="880" dy="477" grid="1" gridSize="10" guides="1" tooltips="1" connect="1" arrows="1" fold="1" page="1" pageScale="1" pageWidth="850" pageHeight="1100" math="0" shadow="0">
      <root>
        <mxCell id="0" />
        <mxCell id="1" parent="0" />
        <mxCell id="xQOJk4yUJdwlS109C89v-7" value="" style="endArrow=classic;html=1;rounded=0;" parent="1" edge="1">
          <mxGeometry width="50" height="50" relative="1" as="geometry">
            <mxPoint x="390" y="430" as="sourcePoint" />
            <mxPoint x="290" y="500" as="targetPoint" />
          </mxGeometry>
        </mxCell>
        <mxCell id="xQOJk4yUJdwlS109C89v-3" style="edgeStyle=orthogonalEdgeStyle;rounded=0;orthogonalLoop=1;jettySize=auto;html=1;exitX=0.75;exitY=1;exitDx=0;exitDy=0;entryX=0.25;entryY=0;entryDx=0;entryDy=0;" parent="1" source="xQOJk4yUJdwlS109C89v-1" target="xQOJk4yUJdwlS109C89v-2" edge="1">
          <mxGeometry relative="1" as="geometry" />
        </mxCell>
        <mxCell id="xQOJk4yUJdwlS109C89v-5" style="edgeStyle=orthogonalEdgeStyle;rounded=0;orthogonalLoop=1;jettySize=auto;html=1;exitX=0.25;exitY=1;exitDx=0;exitDy=0;entryX=0.25;entryY=0;entryDx=0;entryDy=0;endArrow=none;endFill=0;" parent="1" source="xQOJk4yUJdwlS109C89v-1" target="xQOJk4yUJdwlS109C89v-4" edge="1">
          <mxGeometry relative="1" as="geometry" />
        </mxCell>
        <mxCell id="xQOJk4yUJdwlS109C89v-1" value="&lt;font face=&quot;Lucida Console&quot;&gt;Channel Simulation&lt;/font&gt;" style="rounded=0;whiteSpace=wrap;html=1;" parent="1" vertex="1">
          <mxGeometry x="280" y="280" width="120" height="40" as="geometry" />
        </mxCell>
        <mxCell id="xQOJk4yUJdwlS109C89v-6" style="edgeStyle=orthogonalEdgeStyle;rounded=0;orthogonalLoop=1;jettySize=auto;html=1;exitX=0.25;exitY=1;exitDx=0;exitDy=0;entryX=0.75;entryY=0;entryDx=0;entryDy=0;endArrow=none;endFill=0;" parent="1" source="xQOJk4yUJdwlS109C89v-2" target="xQOJk4yUJdwlS109C89v-4" edge="1">
          <mxGeometry relative="1" as="geometry" />
        </mxCell>
        <mxCell id="xQOJk4yUJdwlS109C89v-2" value="&lt;font face=&quot;Lucida Console&quot;&gt;Denoiser&lt;/font&gt;" style="rounded=0;whiteSpace=wrap;html=1;" parent="1" vertex="1">
          <mxGeometry x="340" y="360" width="120" height="40" as="geometry" />
        </mxCell>
        <mxCell id="xQOJk4yUJdwlS109C89v-9" style="edgeStyle=orthogonalEdgeStyle;rounded=0;orthogonalLoop=1;jettySize=auto;html=1;exitX=0.5;exitY=1;exitDx=0;exitDy=0;entryX=0.5;entryY=0;entryDx=0;entryDy=0;" parent="1" source="xQOJk4yUJdwlS109C89v-4" target="xQOJk4yUJdwlS109C89v-8" edge="1">
          <mxGeometry relative="1" as="geometry" />
        </mxCell>
        <mxCell id="xQOJk4yUJdwlS109C89v-4" value="&lt;font face=&quot;Lucida Console&quot;&gt;Equaliser&lt;/font&gt;" style="rounded=0;whiteSpace=wrap;html=1;" parent="1" vertex="1">
          <mxGeometry x="280" y="440" width="120" height="40" as="geometry" />
        </mxCell>
        <mxCell id="xQOJk4yUJdwlS109C89v-8" value="&lt;font face=&quot;Lucida Console&quot;&gt;Estimation&lt;/font&gt;" style="rounded=0;whiteSpace=wrap;html=1;" parent="1" vertex="1">
          <mxGeometry x="280" y="530" width="120" height="40" as="geometry" />
        </mxCell>
      </root>
    </mxGraphModel>
  </diagram>
  <diagram id="JWhrIY-1IUGx2EzkWqBB" name="Estimator Model">
    <mxGraphModel dx="2756" dy="1460" grid="0" gridSize="10" guides="1" tooltips="1" connect="1" arrows="1" fold="1" page="0" pageScale="1" pageWidth="850" pageHeight="1100" math="0" shadow="0">
      <root>
        <mxCell id="0" />
        <mxCell id="1" parent="0" />
        <mxCell id="nO0mLq3j1kNEXtSqXXnn-2" value="&lt;font face=&quot;Lucida Console&quot;&gt;(Real(P&lt;sub&gt;tx&lt;/sub&gt;), Real(IFFT&lt;sub&gt;y&lt;/sub&gt;), Imag(P&lt;sub&gt;tx&lt;/sub&gt;), Real(IFFT&lt;sub&gt;y&lt;/sub&gt;))&lt;/font&gt;" style="rounded=0;whiteSpace=wrap;html=1;" parent="1" vertex="1">
          <mxGeometry x="-546" y="-40" width="1125" height="60" as="geometry" />
        </mxCell>
        <mxCell id="nO0mLq3j1kNEXtSqXXnn-3" style="edgeStyle=orthogonalEdgeStyle;rounded=0;orthogonalLoop=1;jettySize=auto;html=1;exitX=0.5;exitY=0;exitDx=0;exitDy=0;entryX=0.5;entryY=0;entryDx=0;entryDy=0;" parent="1" target="nO0mLq3j1kNEXtSqXXnn-4" edge="1">
          <mxGeometry relative="1" as="geometry">
            <mxPoint x="-472.5" y="30" as="sourcePoint" />
          </mxGeometry>
        </mxCell>
        <mxCell id="nO0mLq3j1kNEXtSqXXnn-4" value="LSTM CELL" style="rounded=0;whiteSpace=wrap;html=1;" parent="1" vertex="1">
          <mxGeometry x="-532.5" y="170" width="120" height="60" as="geometry" />
        </mxCell>
        <mxCell id="nO0mLq3j1kNEXtSqXXnn-5" style="edgeStyle=orthogonalEdgeStyle;rounded=0;orthogonalLoop=1;jettySize=auto;html=1;entryX=0.5;entryY=0;entryDx=0;entryDy=0;" parent="1" target="nO0mLq3j1kNEXtSqXXnn-6" edge="1">
          <mxGeometry relative="1" as="geometry">
            <mxPoint x="487.5" y="30" as="sourcePoint" />
          </mxGeometry>
        </mxCell>
        <mxCell id="nO0mLq3j1kNEXtSqXXnn-6" value="LSTM CELL" style="rounded=0;whiteSpace=wrap;html=1;" parent="1" vertex="1">
          <mxGeometry x="427.5" y="170" width="120" height="60" as="geometry" />
        </mxCell>
        <mxCell id="nO0mLq3j1kNEXtSqXXnn-7" style="edgeStyle=orthogonalEdgeStyle;rounded=0;orthogonalLoop=1;jettySize=auto;html=1;exitX=0.5;exitY=0;exitDx=0;exitDy=0;entryX=0.5;entryY=0;entryDx=0;entryDy=0;" parent="1" target="nO0mLq3j1kNEXtSqXXnn-8" edge="1">
          <mxGeometry relative="1" as="geometry">
            <mxPoint x="-312.5" y="30" as="sourcePoint" />
          </mxGeometry>
        </mxCell>
        <mxCell id="nO0mLq3j1kNEXtSqXXnn-8" value="LSTM CELL" style="rounded=0;whiteSpace=wrap;html=1;" parent="1" vertex="1">
          <mxGeometry x="-372.5" y="170" width="120" height="60" as="geometry" />
        </mxCell>
        <mxCell id="nO0mLq3j1kNEXtSqXXnn-9" value="LSTM CELL" style="rounded=0;whiteSpace=wrap;html=1;" parent="1" vertex="1">
          <mxGeometry x="-212.5" y="170" width="120" height="60" as="geometry" />
        </mxCell>
        <mxCell id="nO0mLq3j1kNEXtSqXXnn-10" style="edgeStyle=orthogonalEdgeStyle;rounded=0;orthogonalLoop=1;jettySize=auto;html=1;exitX=0.5;exitY=0;exitDx=0;exitDy=0;entryX=0.5;entryY=0;entryDx=0;entryDy=0;" parent="1" target="nO0mLq3j1kNEXtSqXXnn-11" edge="1">
          <mxGeometry relative="1" as="geometry">
            <mxPoint x="7.5" y="30" as="sourcePoint" />
          </mxGeometry>
        </mxCell>
        <mxCell id="nO0mLq3j1kNEXtSqXXnn-11" value="LSTM CELL" style="rounded=0;whiteSpace=wrap;html=1;" parent="1" vertex="1">
          <mxGeometry x="-52.5" y="170" width="120" height="60" as="geometry" />
        </mxCell>
        <mxCell id="nO0mLq3j1kNEXtSqXXnn-12" style="edgeStyle=orthogonalEdgeStyle;rounded=0;orthogonalLoop=1;jettySize=auto;html=1;exitX=0.5;exitY=0;exitDx=0;exitDy=0;entryX=0.5;entryY=0;entryDx=0;entryDy=0;" parent="1" target="nO0mLq3j1kNEXtSqXXnn-13" edge="1">
          <mxGeometry relative="1" as="geometry">
            <mxPoint x="167.5" y="30" as="sourcePoint" />
          </mxGeometry>
        </mxCell>
        <mxCell id="nO0mLq3j1kNEXtSqXXnn-13" value="LSTM CELL" style="rounded=0;whiteSpace=wrap;html=1;" parent="1" vertex="1">
          <mxGeometry x="107.5" y="170" width="120" height="60" as="geometry" />
        </mxCell>
        <mxCell id="nO0mLq3j1kNEXtSqXXnn-14" style="edgeStyle=orthogonalEdgeStyle;rounded=0;orthogonalLoop=1;jettySize=auto;html=1;exitX=0.5;exitY=0;exitDx=0;exitDy=0;entryX=0.5;entryY=0;entryDx=0;entryDy=0;" parent="1" target="nO0mLq3j1kNEXtSqXXnn-15" edge="1">
          <mxGeometry relative="1" as="geometry">
            <mxPoint x="327.5" y="30" as="sourcePoint" />
          </mxGeometry>
        </mxCell>
        <mxCell id="nO0mLq3j1kNEXtSqXXnn-15" value="LSTM CELL" style="rounded=0;whiteSpace=wrap;html=1;" parent="1" vertex="1">
          <mxGeometry x="267.5" y="170" width="120" height="60" as="geometry" />
        </mxCell>
        <mxCell id="nO0mLq3j1kNEXtSqXXnn-16" value="" style="ellipse;whiteSpace=wrap;html=1;aspect=fixed;" parent="1" vertex="1">
          <mxGeometry x="-246.25" y="356" width="40" height="40" as="geometry" />
        </mxCell>
        <mxCell id="nO0mLq3j1kNEXtSqXXnn-17" value="" style="ellipse;whiteSpace=wrap;html=1;aspect=fixed;" parent="1" vertex="1">
          <mxGeometry x="-166.25" y="356" width="40" height="40" as="geometry" />
        </mxCell>
        <mxCell id="nO0mLq3j1kNEXtSqXXnn-18" value="" style="ellipse;whiteSpace=wrap;html=1;aspect=fixed;" parent="1" vertex="1">
          <mxGeometry x="-86.25" y="356" width="40" height="40" as="geometry" />
        </mxCell>
        <mxCell id="nO0mLq3j1kNEXtSqXXnn-19" value="" style="ellipse;whiteSpace=wrap;html=1;aspect=fixed;" parent="1" vertex="1">
          <mxGeometry x="-6.25" y="356" width="40" height="40" as="geometry" />
        </mxCell>
        <mxCell id="nO0mLq3j1kNEXtSqXXnn-20" value="" style="ellipse;whiteSpace=wrap;html=1;aspect=fixed;" parent="1" vertex="1">
          <mxGeometry x="73.75" y="356" width="40" height="40" as="geometry" />
        </mxCell>
        <mxCell id="nO0mLq3j1kNEXtSqXXnn-21" value="" style="ellipse;whiteSpace=wrap;html=1;aspect=fixed;" parent="1" vertex="1">
          <mxGeometry x="153.75" y="356" width="40" height="40" as="geometry" />
        </mxCell>
        <mxCell id="nO0mLq3j1kNEXtSqXXnn-22" value="" style="ellipse;whiteSpace=wrap;html=1;aspect=fixed;" parent="1" vertex="1">
          <mxGeometry x="233.75" y="356" width="40" height="40" as="geometry" />
        </mxCell>
        <mxCell id="nO0mLq3j1kNEXtSqXXnn-23" value="" style="endArrow=none;html=1;rounded=0;exitX=0.5;exitY=1;exitDx=0;exitDy=0;entryX=0.5;entryY=0;entryDx=0;entryDy=0;" parent="1" source="nO0mLq3j1kNEXtSqXXnn-4" target="nO0mLq3j1kNEXtSqXXnn-16" edge="1">
          <mxGeometry width="50" height="50" relative="1" as="geometry">
            <mxPoint x="2.5" y="320" as="sourcePoint" />
            <mxPoint x="52.5" y="270" as="targetPoint" />
          </mxGeometry>
        </mxCell>
        <mxCell id="nO0mLq3j1kNEXtSqXXnn-24" value="" style="endArrow=none;html=1;rounded=0;exitX=0.5;exitY=1;exitDx=0;exitDy=0;entryX=0.5;entryY=0;entryDx=0;entryDy=0;" parent="1" source="nO0mLq3j1kNEXtSqXXnn-4" target="nO0mLq3j1kNEXtSqXXnn-17" edge="1">
          <mxGeometry width="50" height="50" relative="1" as="geometry">
            <mxPoint x="12.5" y="330" as="sourcePoint" />
            <mxPoint x="62.5" y="280" as="targetPoint" />
          </mxGeometry>
        </mxCell>
        <mxCell id="nO0mLq3j1kNEXtSqXXnn-25" value="" style="endArrow=none;html=1;rounded=0;exitX=0.5;exitY=1;exitDx=0;exitDy=0;entryX=0.5;entryY=0;entryDx=0;entryDy=0;" parent="1" source="nO0mLq3j1kNEXtSqXXnn-4" target="nO0mLq3j1kNEXtSqXXnn-18" edge="1">
          <mxGeometry width="50" height="50" relative="1" as="geometry">
            <mxPoint x="22.5" y="340" as="sourcePoint" />
            <mxPoint x="72.5" y="290" as="targetPoint" />
          </mxGeometry>
        </mxCell>
        <mxCell id="nO0mLq3j1kNEXtSqXXnn-26" value="" style="endArrow=none;html=1;rounded=0;exitX=0.5;exitY=1;exitDx=0;exitDy=0;entryX=0.5;entryY=0;entryDx=0;entryDy=0;" parent="1" source="nO0mLq3j1kNEXtSqXXnn-4" target="nO0mLq3j1kNEXtSqXXnn-19" edge="1">
          <mxGeometry width="50" height="50" relative="1" as="geometry">
            <mxPoint x="32.5" y="350" as="sourcePoint" />
            <mxPoint x="82.5" y="300" as="targetPoint" />
          </mxGeometry>
        </mxCell>
        <mxCell id="nO0mLq3j1kNEXtSqXXnn-27" value="" style="endArrow=none;html=1;rounded=0;exitX=0.5;exitY=1;exitDx=0;exitDy=0;entryX=0.5;entryY=0;entryDx=0;entryDy=0;" parent="1" source="nO0mLq3j1kNEXtSqXXnn-4" target="nO0mLq3j1kNEXtSqXXnn-20" edge="1">
          <mxGeometry width="50" height="50" relative="1" as="geometry">
            <mxPoint x="42.5" y="360" as="sourcePoint" />
            <mxPoint x="92.5" y="310" as="targetPoint" />
          </mxGeometry>
        </mxCell>
        <mxCell id="nO0mLq3j1kNEXtSqXXnn-28" value="" style="endArrow=none;html=1;rounded=0;exitX=0.5;exitY=1;exitDx=0;exitDy=0;entryX=0.5;entryY=0;entryDx=0;entryDy=0;" parent="1" source="nO0mLq3j1kNEXtSqXXnn-4" target="nO0mLq3j1kNEXtSqXXnn-21" edge="1">
          <mxGeometry width="50" height="50" relative="1" as="geometry">
            <mxPoint x="52.5" y="370" as="sourcePoint" />
            <mxPoint x="102.5" y="320" as="targetPoint" />
          </mxGeometry>
        </mxCell>
        <mxCell id="nO0mLq3j1kNEXtSqXXnn-29" value="" style="endArrow=none;html=1;rounded=0;exitX=0.5;exitY=1;exitDx=0;exitDy=0;entryX=0.5;entryY=0;entryDx=0;entryDy=0;" parent="1" source="nO0mLq3j1kNEXtSqXXnn-4" target="nO0mLq3j1kNEXtSqXXnn-22" edge="1">
          <mxGeometry width="50" height="50" relative="1" as="geometry">
            <mxPoint x="62.5" y="380" as="sourcePoint" />
            <mxPoint x="112.5" y="330" as="targetPoint" />
          </mxGeometry>
        </mxCell>
        <mxCell id="nO0mLq3j1kNEXtSqXXnn-30" value="" style="endArrow=none;html=1;rounded=0;exitX=0.5;exitY=1;exitDx=0;exitDy=0;entryX=0.5;entryY=0;entryDx=0;entryDy=0;" parent="1" source="nO0mLq3j1kNEXtSqXXnn-8" target="nO0mLq3j1kNEXtSqXXnn-16" edge="1">
          <mxGeometry width="50" height="50" relative="1" as="geometry">
            <mxPoint x="72.5" y="390" as="sourcePoint" />
            <mxPoint x="122.5" y="340" as="targetPoint" />
          </mxGeometry>
        </mxCell>
        <mxCell id="nO0mLq3j1kNEXtSqXXnn-31" value="" style="endArrow=none;html=1;rounded=0;exitX=0.5;exitY=1;exitDx=0;exitDy=0;entryX=0.5;entryY=0;entryDx=0;entryDy=0;" parent="1" source="nO0mLq3j1kNEXtSqXXnn-8" target="nO0mLq3j1kNEXtSqXXnn-17" edge="1">
          <mxGeometry width="50" height="50" relative="1" as="geometry">
            <mxPoint x="82.5" y="400" as="sourcePoint" />
            <mxPoint x="132.5" y="350" as="targetPoint" />
          </mxGeometry>
        </mxCell>
        <mxCell id="nO0mLq3j1kNEXtSqXXnn-32" value="" style="endArrow=none;html=1;rounded=0;exitX=0.5;exitY=1;exitDx=0;exitDy=0;entryX=0.5;entryY=0;entryDx=0;entryDy=0;" parent="1" source="nO0mLq3j1kNEXtSqXXnn-8" target="nO0mLq3j1kNEXtSqXXnn-18" edge="1">
          <mxGeometry width="50" height="50" relative="1" as="geometry">
            <mxPoint x="92.5" y="410" as="sourcePoint" />
            <mxPoint x="142.5" y="360" as="targetPoint" />
          </mxGeometry>
        </mxCell>
        <mxCell id="nO0mLq3j1kNEXtSqXXnn-33" value="" style="endArrow=none;html=1;rounded=0;exitX=0.5;exitY=1;exitDx=0;exitDy=0;entryX=0.5;entryY=0;entryDx=0;entryDy=0;" parent="1" source="nO0mLq3j1kNEXtSqXXnn-8" target="nO0mLq3j1kNEXtSqXXnn-19" edge="1">
          <mxGeometry width="50" height="50" relative="1" as="geometry">
            <mxPoint x="102.5" y="420" as="sourcePoint" />
            <mxPoint x="152.5" y="370" as="targetPoint" />
          </mxGeometry>
        </mxCell>
        <mxCell id="nO0mLq3j1kNEXtSqXXnn-34" value="" style="endArrow=none;html=1;rounded=0;exitX=0.5;exitY=1;exitDx=0;exitDy=0;entryX=0.5;entryY=0;entryDx=0;entryDy=0;" parent="1" source="nO0mLq3j1kNEXtSqXXnn-8" target="nO0mLq3j1kNEXtSqXXnn-20" edge="1">
          <mxGeometry width="50" height="50" relative="1" as="geometry">
            <mxPoint x="-307.5" y="240" as="sourcePoint" />
            <mxPoint x="162.5" y="380" as="targetPoint" />
          </mxGeometry>
        </mxCell>
        <mxCell id="nO0mLq3j1kNEXtSqXXnn-35" value="" style="endArrow=none;html=1;rounded=0;exitX=0.5;exitY=1;exitDx=0;exitDy=0;entryX=0.5;entryY=0;entryDx=0;entryDy=0;" parent="1" source="nO0mLq3j1kNEXtSqXXnn-8" target="nO0mLq3j1kNEXtSqXXnn-22" edge="1">
          <mxGeometry width="50" height="50" relative="1" as="geometry">
            <mxPoint x="122.5" y="440" as="sourcePoint" />
            <mxPoint x="172.5" y="390" as="targetPoint" />
          </mxGeometry>
        </mxCell>
        <mxCell id="nO0mLq3j1kNEXtSqXXnn-36" value="" style="endArrow=none;html=1;rounded=0;exitX=0.5;exitY=1;exitDx=0;exitDy=0;entryX=0.5;entryY=0;entryDx=0;entryDy=0;" parent="1" source="nO0mLq3j1kNEXtSqXXnn-8" target="nO0mLq3j1kNEXtSqXXnn-21" edge="1">
          <mxGeometry width="50" height="50" relative="1" as="geometry">
            <mxPoint x="132.5" y="450" as="sourcePoint" />
            <mxPoint x="182.5" y="400" as="targetPoint" />
          </mxGeometry>
        </mxCell>
        <mxCell id="nO0mLq3j1kNEXtSqXXnn-37" value="" style="endArrow=none;html=1;rounded=0;entryX=0.5;entryY=1;entryDx=0;entryDy=0;exitX=0.5;exitY=0;exitDx=0;exitDy=0;" parent="1" source="nO0mLq3j1kNEXtSqXXnn-16" target="nO0mLq3j1kNEXtSqXXnn-9" edge="1">
          <mxGeometry width="50" height="50" relative="1" as="geometry">
            <mxPoint x="142.5" y="460" as="sourcePoint" />
            <mxPoint x="192.5" y="410" as="targetPoint" />
          </mxGeometry>
        </mxCell>
        <mxCell id="nO0mLq3j1kNEXtSqXXnn-38" value="" style="endArrow=none;html=1;rounded=0;entryX=0.5;entryY=1;entryDx=0;entryDy=0;exitX=0.5;exitY=0;exitDx=0;exitDy=0;" parent="1" source="nO0mLq3j1kNEXtSqXXnn-17" target="nO0mLq3j1kNEXtSqXXnn-9" edge="1">
          <mxGeometry width="50" height="50" relative="1" as="geometry">
            <mxPoint x="-427.5" y="330" as="sourcePoint" />
            <mxPoint x="-142.5" y="240" as="targetPoint" />
          </mxGeometry>
        </mxCell>
        <mxCell id="nO0mLq3j1kNEXtSqXXnn-39" value="" style="endArrow=none;html=1;rounded=0;entryX=0.5;entryY=1;entryDx=0;entryDy=0;exitX=0.5;exitY=0;exitDx=0;exitDy=0;" parent="1" source="nO0mLq3j1kNEXtSqXXnn-18" target="nO0mLq3j1kNEXtSqXXnn-9" edge="1">
          <mxGeometry width="50" height="50" relative="1" as="geometry">
            <mxPoint x="-417.5" y="340" as="sourcePoint" />
            <mxPoint x="-132.5" y="250" as="targetPoint" />
          </mxGeometry>
        </mxCell>
        <mxCell id="nO0mLq3j1kNEXtSqXXnn-40" value="" style="endArrow=none;html=1;rounded=0;entryX=0.5;entryY=1;entryDx=0;entryDy=0;exitX=0.5;exitY=0;exitDx=0;exitDy=0;" parent="1" source="nO0mLq3j1kNEXtSqXXnn-19" target="nO0mLq3j1kNEXtSqXXnn-9" edge="1">
          <mxGeometry width="50" height="50" relative="1" as="geometry">
            <mxPoint x="-197.5" y="310" as="sourcePoint" />
            <mxPoint x="-122.5" y="260" as="targetPoint" />
          </mxGeometry>
        </mxCell>
        <mxCell id="nO0mLq3j1kNEXtSqXXnn-41" value="" style="endArrow=none;html=1;rounded=0;exitX=0.5;exitY=0;exitDx=0;exitDy=0;entryX=0.5;entryY=1;entryDx=0;entryDy=0;" parent="1" source="nO0mLq3j1kNEXtSqXXnn-20" target="nO0mLq3j1kNEXtSqXXnn-9" edge="1">
          <mxGeometry width="50" height="50" relative="1" as="geometry">
            <mxPoint x="-397.5" y="360" as="sourcePoint" />
            <mxPoint x="-112.5" y="270" as="targetPoint" />
          </mxGeometry>
        </mxCell>
        <mxCell id="nO0mLq3j1kNEXtSqXXnn-42" value="" style="endArrow=none;html=1;rounded=0;entryX=0.5;entryY=0;entryDx=0;entryDy=0;exitX=0.5;exitY=1;exitDx=0;exitDy=0;" parent="1" source="nO0mLq3j1kNEXtSqXXnn-9" target="nO0mLq3j1kNEXtSqXXnn-21" edge="1">
          <mxGeometry width="50" height="50" relative="1" as="geometry">
            <mxPoint x="-387.5" y="370" as="sourcePoint" />
            <mxPoint x="-102.5" y="280" as="targetPoint" />
          </mxGeometry>
        </mxCell>
        <mxCell id="nO0mLq3j1kNEXtSqXXnn-43" value="" style="endArrow=none;html=1;rounded=0;entryX=0.5;entryY=1;entryDx=0;entryDy=0;exitX=0.5;exitY=0;exitDx=0;exitDy=0;" parent="1" source="nO0mLq3j1kNEXtSqXXnn-22" target="nO0mLq3j1kNEXtSqXXnn-9" edge="1">
          <mxGeometry width="50" height="50" relative="1" as="geometry">
            <mxPoint x="-377.5" y="380" as="sourcePoint" />
            <mxPoint x="-92.5" y="290" as="targetPoint" />
          </mxGeometry>
        </mxCell>
        <mxCell id="nO0mLq3j1kNEXtSqXXnn-44" value="" style="endArrow=none;html=1;rounded=0;exitX=0.5;exitY=1;exitDx=0;exitDy=0;entryX=0.5;entryY=0;entryDx=0;entryDy=0;" parent="1" edge="1" target="nO0mLq3j1kNEXtSqXXnn-17">
          <mxGeometry width="50" height="50" relative="1" as="geometry">
            <mxPoint x="7.5" y="230" as="sourcePoint" />
            <mxPoint x="-152.5" y="340" as="targetPoint" />
          </mxGeometry>
        </mxCell>
        <mxCell id="nO0mLq3j1kNEXtSqXXnn-45" value="" style="endArrow=none;html=1;rounded=0;exitX=0.5;exitY=1;exitDx=0;exitDy=0;entryX=0.5;entryY=0;entryDx=0;entryDy=0;" parent="1" edge="1">
          <mxGeometry width="50" height="50" relative="1" as="geometry">
            <mxPoint x="167.5" y="230" as="sourcePoint" />
            <mxPoint x="-152.5" y="340" as="targetPoint" />
          </mxGeometry>
        </mxCell>
        <mxCell id="nO0mLq3j1kNEXtSqXXnn-46" value="" style="endArrow=none;html=1;rounded=0;exitX=0.5;exitY=1;exitDx=0;exitDy=0;entryX=0.5;entryY=0;entryDx=0;entryDy=0;" parent="1" edge="1" target="nO0mLq3j1kNEXtSqXXnn-16">
          <mxGeometry width="50" height="50" relative="1" as="geometry">
            <mxPoint x="327.5" y="230" as="sourcePoint" />
            <mxPoint x="-152.5" y="340" as="targetPoint" />
          </mxGeometry>
        </mxCell>
        <mxCell id="nO0mLq3j1kNEXtSqXXnn-47" value="" style="endArrow=none;html=1;rounded=0;exitX=0.5;exitY=1;exitDx=0;exitDy=0;entryX=0.5;entryY=0;entryDx=0;entryDy=0;" parent="1" edge="1" target="nO0mLq3j1kNEXtSqXXnn-17" source="nO0mLq3j1kNEXtSqXXnn-100">
          <mxGeometry width="50" height="50" relative="1" as="geometry">
            <mxPoint x="407.5" y="230" as="sourcePoint" />
            <mxPoint x="-152.5" y="340" as="targetPoint" />
          </mxGeometry>
        </mxCell>
        <mxCell id="nO0mLq3j1kNEXtSqXXnn-48" value="" style="endArrow=none;html=1;rounded=0;exitX=0.5;exitY=1;exitDx=0;exitDy=0;entryX=0.5;entryY=0;entryDx=0;entryDy=0;" parent="1" edge="1" target="nO0mLq3j1kNEXtSqXXnn-18">
          <mxGeometry width="50" height="50" relative="1" as="geometry">
            <mxPoint x="487.5" y="230" as="sourcePoint" />
            <mxPoint x="-152.5" y="340" as="targetPoint" />
          </mxGeometry>
        </mxCell>
        <mxCell id="nO0mLq3j1kNEXtSqXXnn-49" value="" style="endArrow=none;html=1;rounded=0;exitX=0.5;exitY=1;exitDx=0;exitDy=0;entryX=0.5;entryY=0;entryDx=0;entryDy=0;" parent="1" edge="1" target="nO0mLq3j1kNEXtSqXXnn-18">
          <mxGeometry width="50" height="50" relative="1" as="geometry">
            <mxPoint x="8.300000000000182" y="230" as="sourcePoint" />
            <mxPoint x="8.300000000000182" y="340" as="targetPoint" />
          </mxGeometry>
        </mxCell>
        <mxCell id="nO0mLq3j1kNEXtSqXXnn-50" value="" style="endArrow=none;html=1;rounded=0;exitX=0.5;exitY=1;exitDx=0;exitDy=0;entryX=0.5;entryY=0;entryDx=0;entryDy=0;" parent="1" edge="1" target="nO0mLq3j1kNEXtSqXXnn-19">
          <mxGeometry width="50" height="50" relative="1" as="geometry">
            <mxPoint x="167.5" y="230" as="sourcePoint" />
            <mxPoint x="7.5" y="340" as="targetPoint" />
          </mxGeometry>
        </mxCell>
        <mxCell id="nO0mLq3j1kNEXtSqXXnn-51" value="" style="endArrow=none;html=1;rounded=0;exitX=0.5;exitY=1;exitDx=0;exitDy=0;entryX=0.5;entryY=0;entryDx=0;entryDy=0;" parent="1" edge="1">
          <mxGeometry width="50" height="50" relative="1" as="geometry">
            <mxPoint x="327.5" y="230" as="sourcePoint" />
            <mxPoint x="7.5" y="340" as="targetPoint" />
          </mxGeometry>
        </mxCell>
        <mxCell id="nO0mLq3j1kNEXtSqXXnn-52" value="" style="endArrow=none;html=1;rounded=0;exitX=0.5;exitY=1;exitDx=0;exitDy=0;entryX=0.5;entryY=0;entryDx=0;entryDy=0;" parent="1" edge="1">
          <mxGeometry width="50" height="50" relative="1" as="geometry">
            <mxPoint x="487.5" y="230" as="sourcePoint" />
            <mxPoint x="7.5" y="340" as="targetPoint" />
          </mxGeometry>
        </mxCell>
        <mxCell id="nO0mLq3j1kNEXtSqXXnn-53" value="" style="endArrow=none;html=1;rounded=0;exitX=0.5;exitY=1;exitDx=0;exitDy=0;entryX=0.5;entryY=0;entryDx=0;entryDy=0;" parent="1" edge="1" source="nO0mLq3j1kNEXtSqXXnn-100">
          <mxGeometry width="50" height="50" relative="1" as="geometry">
            <mxPoint x="407.5" y="230" as="sourcePoint" />
            <mxPoint x="7.5" y="340" as="targetPoint" />
          </mxGeometry>
        </mxCell>
        <mxCell id="nO0mLq3j1kNEXtSqXXnn-54" value="" style="endArrow=none;html=1;rounded=0;entryX=0.5;entryY=1;entryDx=0;entryDy=0;exitX=0.5;exitY=0;exitDx=0;exitDy=0;" parent="1" edge="1" source="nO0mLq3j1kNEXtSqXXnn-21">
          <mxGeometry width="50" height="50" relative="1" as="geometry">
            <mxPoint x="167.5" y="340" as="sourcePoint" />
            <mxPoint x="7.5" y="230" as="targetPoint" />
          </mxGeometry>
        </mxCell>
        <mxCell id="nO0mLq3j1kNEXtSqXXnn-55" value="" style="endArrow=none;html=1;rounded=0;entryX=0.5;entryY=1;entryDx=0;entryDy=0;exitX=0.5;exitY=0;exitDx=0;exitDy=0;" parent="1" edge="1" source="nO0mLq3j1kNEXtSqXXnn-21">
          <mxGeometry width="50" height="50" relative="1" as="geometry">
            <mxPoint x="168.30000000000018" y="340" as="sourcePoint" />
            <mxPoint x="168.30000000000018" y="230" as="targetPoint" />
          </mxGeometry>
        </mxCell>
        <mxCell id="nO0mLq3j1kNEXtSqXXnn-56" value="" style="endArrow=none;html=1;rounded=0;exitX=0.5;exitY=0;exitDx=0;exitDy=0;entryX=0.5;entryY=1;entryDx=0;entryDy=0;" parent="1" edge="1" source="nO0mLq3j1kNEXtSqXXnn-20">
          <mxGeometry width="50" height="50" relative="1" as="geometry">
            <mxPoint x="167.5" y="340" as="sourcePoint" />
            <mxPoint x="327.5" y="230" as="targetPoint" />
          </mxGeometry>
        </mxCell>
        <mxCell id="nO0mLq3j1kNEXtSqXXnn-57" value="" style="endArrow=none;html=1;rounded=0;entryX=0.5;entryY=0;entryDx=0;entryDy=0;exitX=0.5;exitY=1;exitDx=0;exitDy=0;" parent="1" edge="1" target="nO0mLq3j1kNEXtSqXXnn-22" source="nO0mLq3j1kNEXtSqXXnn-100">
          <mxGeometry width="50" height="50" relative="1" as="geometry">
            <mxPoint x="407.5" y="230" as="sourcePoint" />
            <mxPoint x="167.5" y="340" as="targetPoint" />
          </mxGeometry>
        </mxCell>
        <mxCell id="nO0mLq3j1kNEXtSqXXnn-58" value="" style="endArrow=none;html=1;rounded=0;entryX=0.5;entryY=1;entryDx=0;entryDy=0;exitX=0.5;exitY=0;exitDx=0;exitDy=0;" parent="1" edge="1" source="nO0mLq3j1kNEXtSqXXnn-21">
          <mxGeometry width="50" height="50" relative="1" as="geometry">
            <mxPoint x="167.5" y="340" as="sourcePoint" />
            <mxPoint x="487.5" y="230" as="targetPoint" />
          </mxGeometry>
        </mxCell>
        <mxCell id="nO0mLq3j1kNEXtSqXXnn-59" value="" style="endArrow=none;html=1;rounded=0;entryX=0.5;entryY=0;entryDx=0;entryDy=0;exitX=0.5;exitY=1;exitDx=0;exitDy=0;" parent="1" source="nO0mLq3j1kNEXtSqXXnn-13" target="nO0mLq3j1kNEXtSqXXnn-21" edge="1">
          <mxGeometry width="50" height="50" relative="1" as="geometry">
            <mxPoint x="102.5" y="510" as="sourcePoint" />
            <mxPoint x="152.5" y="460" as="targetPoint" />
          </mxGeometry>
        </mxCell>
        <mxCell id="nO0mLq3j1kNEXtSqXXnn-60" value="" style="endArrow=none;html=1;rounded=0;entryX=0.5;entryY=0;entryDx=0;entryDy=0;exitX=0.5;exitY=1;exitDx=0;exitDy=0;" parent="1" source="nO0mLq3j1kNEXtSqXXnn-15" target="nO0mLq3j1kNEXtSqXXnn-21" edge="1">
          <mxGeometry width="50" height="50" relative="1" as="geometry">
            <mxPoint x="177.5" y="240" as="sourcePoint" />
            <mxPoint x="97.5" y="350" as="targetPoint" />
          </mxGeometry>
        </mxCell>
        <mxCell id="nO0mLq3j1kNEXtSqXXnn-63" style="edgeStyle=orthogonalEdgeStyle;rounded=0;orthogonalLoop=1;jettySize=auto;html=1;exitX=0.5;exitY=1;exitDx=0;exitDy=0;" parent="1" source="nO0mLq3j1kNEXtSqXXnn-64" edge="1">
          <mxGeometry relative="1" as="geometry">
            <mxPoint x="-66.39285714285734" y="606" as="targetPoint" />
            <Array as="points">
              <mxPoint x="-66.75" y="531" />
              <mxPoint x="-66.75" y="531" />
            </Array>
          </mxGeometry>
        </mxCell>
        <mxCell id="nO0mLq3j1kNEXtSqXXnn-64" value="LSTM CELL" style="rounded=0;whiteSpace=wrap;html=1;" parent="1" vertex="1">
          <mxGeometry x="-126.25" y="436" width="120" height="60" as="geometry" />
        </mxCell>
        <mxCell id="nO0mLq3j1kNEXtSqXXnn-65" style="edgeStyle=orthogonalEdgeStyle;rounded=0;orthogonalLoop=1;jettySize=auto;html=1;exitX=0.5;exitY=1;exitDx=0;exitDy=0;" parent="1" source="nO0mLq3j1kNEXtSqXXnn-66" edge="1">
          <mxGeometry relative="1" as="geometry">
            <mxPoint x="89.03571428571422" y="606" as="targetPoint" />
          </mxGeometry>
        </mxCell>
        <mxCell id="nO0mLq3j1kNEXtSqXXnn-66" value="LSTM CELL" style="rounded=0;whiteSpace=wrap;html=1;" parent="1" vertex="1">
          <mxGeometry x="28.75" y="436" width="120" height="60" as="geometry" />
        </mxCell>
        <mxCell id="nO0mLq3j1kNEXtSqXXnn-67" style="edgeStyle=orthogonalEdgeStyle;rounded=0;orthogonalLoop=1;jettySize=auto;html=1;exitX=0.5;exitY=1;exitDx=0;exitDy=0;" parent="1" edge="1">
          <mxGeometry relative="1" as="geometry">
            <mxPoint x="238.75" y="606" as="targetPoint" />
            <mxPoint x="238.75" y="496" as="sourcePoint" />
          </mxGeometry>
        </mxCell>
        <mxCell id="nO0mLq3j1kNEXtSqXXnn-69" value="" style="endArrow=none;html=1;rounded=0;exitX=0.5;exitY=1;exitDx=0;exitDy=0;entryX=0.5;entryY=0;entryDx=0;entryDy=0;" parent="1" source="nO0mLq3j1kNEXtSqXXnn-16" edge="1">
          <mxGeometry width="50" height="50" relative="1" as="geometry">
            <mxPoint x="158.75" y="346" as="sourcePoint" />
            <mxPoint x="-226.25" y="436" as="targetPoint" />
          </mxGeometry>
        </mxCell>
        <mxCell id="nO0mLq3j1kNEXtSqXXnn-70" value="" style="endArrow=none;html=1;rounded=0;exitX=0.5;exitY=1;exitDx=0;exitDy=0;entryX=0.5;entryY=0;entryDx=0;entryDy=0;" parent="1" source="nO0mLq3j1kNEXtSqXXnn-16" target="nO0mLq3j1kNEXtSqXXnn-64" edge="1">
          <mxGeometry width="50" height="50" relative="1" as="geometry">
            <mxPoint x="-216.25" y="406" as="sourcePoint" />
            <mxPoint x="-216.25" y="446" as="targetPoint" />
          </mxGeometry>
        </mxCell>
        <mxCell id="nO0mLq3j1kNEXtSqXXnn-71" value="" style="endArrow=none;html=1;rounded=0;entryX=0.5;entryY=0;entryDx=0;entryDy=0;exitX=0.5;exitY=1;exitDx=0;exitDy=0;" parent="1" source="nO0mLq3j1kNEXtSqXXnn-16" target="nO0mLq3j1kNEXtSqXXnn-66" edge="1">
          <mxGeometry width="50" height="50" relative="1" as="geometry">
            <mxPoint x="-221.25" y="396" as="sourcePoint" />
            <mxPoint x="-206.25" y="456" as="targetPoint" />
          </mxGeometry>
        </mxCell>
        <mxCell id="nO0mLq3j1kNEXtSqXXnn-72" value="" style="endArrow=none;html=1;rounded=0;entryX=0.5;entryY=0;entryDx=0;entryDy=0;exitX=0.5;exitY=1;exitDx=0;exitDy=0;" parent="1" source="nO0mLq3j1kNEXtSqXXnn-16" edge="1">
          <mxGeometry width="50" height="50" relative="1" as="geometry">
            <mxPoint x="-211.25" y="406" as="sourcePoint" />
            <mxPoint x="238.75" y="436" as="targetPoint" />
          </mxGeometry>
        </mxCell>
        <mxCell id="nO0mLq3j1kNEXtSqXXnn-73" value="" style="endArrow=none;html=1;rounded=0;exitX=0.5;exitY=1;exitDx=0;exitDy=0;entryX=0.5;entryY=0;entryDx=0;entryDy=0;" parent="1" source="nO0mLq3j1kNEXtSqXXnn-17" edge="1">
          <mxGeometry width="50" height="50" relative="1" as="geometry">
            <mxPoint x="-186.25" y="436" as="sourcePoint" />
            <mxPoint x="-226.25" y="436" as="targetPoint" />
          </mxGeometry>
        </mxCell>
        <mxCell id="nO0mLq3j1kNEXtSqXXnn-74" value="" style="endArrow=none;html=1;rounded=0;entryX=0.5;entryY=0;entryDx=0;entryDy=0;exitX=0.5;exitY=1;exitDx=0;exitDy=0;" parent="1" source="nO0mLq3j1kNEXtSqXXnn-17" target="nO0mLq3j1kNEXtSqXXnn-64" edge="1">
          <mxGeometry width="50" height="50" relative="1" as="geometry">
            <mxPoint x="-151.25" y="396" as="sourcePoint" />
            <mxPoint x="-176.25" y="486" as="targetPoint" />
          </mxGeometry>
        </mxCell>
        <mxCell id="nO0mLq3j1kNEXtSqXXnn-75" value="" style="endArrow=none;html=1;rounded=0;exitX=0.5;exitY=1;exitDx=0;exitDy=0;entryX=0.5;entryY=0;entryDx=0;entryDy=0;" parent="1" source="nO0mLq3j1kNEXtSqXXnn-17" target="nO0mLq3j1kNEXtSqXXnn-66" edge="1">
          <mxGeometry width="50" height="50" relative="1" as="geometry">
            <mxPoint x="-166.25" y="456" as="sourcePoint" />
            <mxPoint x="-166.25" y="496" as="targetPoint" />
          </mxGeometry>
        </mxCell>
        <mxCell id="nO0mLq3j1kNEXtSqXXnn-76" value="" style="endArrow=none;html=1;rounded=0;exitX=0.5;exitY=1;exitDx=0;exitDy=0;entryX=0.5;entryY=0;entryDx=0;entryDy=0;" parent="1" source="nO0mLq3j1kNEXtSqXXnn-17" edge="1">
          <mxGeometry width="50" height="50" relative="1" as="geometry">
            <mxPoint x="-156.25" y="466" as="sourcePoint" />
            <mxPoint x="238.75" y="436" as="targetPoint" />
          </mxGeometry>
        </mxCell>
        <mxCell id="nO0mLq3j1kNEXtSqXXnn-77" value="" style="endArrow=none;html=1;rounded=0;exitX=0.5;exitY=1;exitDx=0;exitDy=0;entryX=0.5;entryY=0;entryDx=0;entryDy=0;" parent="1" source="nO0mLq3j1kNEXtSqXXnn-18" edge="1">
          <mxGeometry width="50" height="50" relative="1" as="geometry">
            <mxPoint x="-146.25" y="476" as="sourcePoint" />
            <mxPoint x="-226.25" y="436" as="targetPoint" />
          </mxGeometry>
        </mxCell>
        <mxCell id="nO0mLq3j1kNEXtSqXXnn-78" value="" style="endArrow=none;html=1;rounded=0;exitX=0.5;exitY=1;exitDx=0;exitDy=0;entryX=0.5;entryY=0;entryDx=0;entryDy=0;" parent="1" source="nO0mLq3j1kNEXtSqXXnn-18" target="nO0mLq3j1kNEXtSqXXnn-64" edge="1">
          <mxGeometry width="50" height="50" relative="1" as="geometry">
            <mxPoint x="-136.25" y="486" as="sourcePoint" />
            <mxPoint x="-136.25" y="526" as="targetPoint" />
          </mxGeometry>
        </mxCell>
        <mxCell id="nO0mLq3j1kNEXtSqXXnn-79" value="" style="endArrow=none;html=1;rounded=0;exitX=0.5;exitY=1;exitDx=0;exitDy=0;entryX=0.5;entryY=0;entryDx=0;entryDy=0;" parent="1" source="nO0mLq3j1kNEXtSqXXnn-18" target="nO0mLq3j1kNEXtSqXXnn-66" edge="1">
          <mxGeometry width="50" height="50" relative="1" as="geometry">
            <mxPoint x="-126.25" y="496" as="sourcePoint" />
            <mxPoint x="-126.25" y="536" as="targetPoint" />
          </mxGeometry>
        </mxCell>
        <mxCell id="nO0mLq3j1kNEXtSqXXnn-80" value="" style="endArrow=none;html=1;rounded=0;exitX=0.5;exitY=1;exitDx=0;exitDy=0;entryX=0.5;entryY=0;entryDx=0;entryDy=0;" parent="1" source="nO0mLq3j1kNEXtSqXXnn-18" edge="1">
          <mxGeometry width="50" height="50" relative="1" as="geometry">
            <mxPoint x="-116.25" y="506" as="sourcePoint" />
            <mxPoint x="238.75" y="436" as="targetPoint" />
          </mxGeometry>
        </mxCell>
        <mxCell id="nO0mLq3j1kNEXtSqXXnn-81" value="" style="endArrow=none;html=1;rounded=0;exitX=0.5;exitY=1;exitDx=0;exitDy=0;entryX=0.5;entryY=0;entryDx=0;entryDy=0;" parent="1" source="nO0mLq3j1kNEXtSqXXnn-19" target="nO0mLq3j1kNEXtSqXXnn-64" edge="1">
          <mxGeometry width="50" height="50" relative="1" as="geometry">
            <mxPoint x="-106.25" y="516" as="sourcePoint" />
            <mxPoint x="-106.25" y="556" as="targetPoint" />
          </mxGeometry>
        </mxCell>
        <mxCell id="nO0mLq3j1kNEXtSqXXnn-82" value="" style="endArrow=none;html=1;rounded=0;exitX=0.5;exitY=1;exitDx=0;exitDy=0;entryX=0.5;entryY=0;entryDx=0;entryDy=0;" parent="1" source="nO0mLq3j1kNEXtSqXXnn-19" edge="1">
          <mxGeometry width="50" height="50" relative="1" as="geometry">
            <mxPoint x="-96.25" y="526" as="sourcePoint" />
            <mxPoint x="-226.25" y="436" as="targetPoint" />
          </mxGeometry>
        </mxCell>
        <mxCell id="nO0mLq3j1kNEXtSqXXnn-83" value="" style="endArrow=none;html=1;rounded=0;exitX=0.5;exitY=1;exitDx=0;exitDy=0;entryX=0.5;entryY=0;entryDx=0;entryDy=0;" parent="1" source="nO0mLq3j1kNEXtSqXXnn-19" target="nO0mLq3j1kNEXtSqXXnn-66" edge="1">
          <mxGeometry width="50" height="50" relative="1" as="geometry">
            <mxPoint x="-86.25" y="536" as="sourcePoint" />
            <mxPoint x="-86.25" y="576" as="targetPoint" />
          </mxGeometry>
        </mxCell>
        <mxCell id="nO0mLq3j1kNEXtSqXXnn-84" value="" style="endArrow=none;html=1;rounded=0;exitX=0.5;exitY=1;exitDx=0;exitDy=0;entryX=0.5;entryY=0;entryDx=0;entryDy=0;" parent="1" source="nO0mLq3j1kNEXtSqXXnn-19" edge="1">
          <mxGeometry width="50" height="50" relative="1" as="geometry">
            <mxPoint x="-76.25" y="546" as="sourcePoint" />
            <mxPoint x="238.75" y="436" as="targetPoint" />
          </mxGeometry>
        </mxCell>
        <mxCell id="nO0mLq3j1kNEXtSqXXnn-85" value="" style="endArrow=none;html=1;rounded=0;exitX=0.5;exitY=1;exitDx=0;exitDy=0;entryX=0.5;entryY=0;entryDx=0;entryDy=0;" parent="1" source="nO0mLq3j1kNEXtSqXXnn-20" target="nO0mLq3j1kNEXtSqXXnn-64" edge="1">
          <mxGeometry width="50" height="50" relative="1" as="geometry">
            <mxPoint x="-66.25" y="556" as="sourcePoint" />
            <mxPoint x="-66.25" y="596" as="targetPoint" />
          </mxGeometry>
        </mxCell>
        <mxCell id="nO0mLq3j1kNEXtSqXXnn-86" value="" style="endArrow=none;html=1;rounded=0;exitX=0.5;exitY=1;exitDx=0;exitDy=0;entryX=0.5;entryY=0;entryDx=0;entryDy=0;" parent="1" source="nO0mLq3j1kNEXtSqXXnn-20" target="nO0mLq3j1kNEXtSqXXnn-66" edge="1">
          <mxGeometry width="50" height="50" relative="1" as="geometry">
            <mxPoint x="-56.25" y="566" as="sourcePoint" />
            <mxPoint x="-56.25" y="606" as="targetPoint" />
          </mxGeometry>
        </mxCell>
        <mxCell id="nO0mLq3j1kNEXtSqXXnn-87" value="" style="endArrow=none;html=1;rounded=0;exitX=0.5;exitY=1;exitDx=0;exitDy=0;entryX=0.5;entryY=0;entryDx=0;entryDy=0;" parent="1" source="nO0mLq3j1kNEXtSqXXnn-20" edge="1">
          <mxGeometry width="50" height="50" relative="1" as="geometry">
            <mxPoint x="-46.25" y="576" as="sourcePoint" />
            <mxPoint x="238.75" y="436" as="targetPoint" />
          </mxGeometry>
        </mxCell>
        <mxCell id="nO0mLq3j1kNEXtSqXXnn-88" value="" style="endArrow=none;html=1;rounded=0;exitX=0.5;exitY=1;exitDx=0;exitDy=0;entryX=0.5;entryY=0;entryDx=0;entryDy=0;" parent="1" source="nO0mLq3j1kNEXtSqXXnn-21" target="nO0mLq3j1kNEXtSqXXnn-66" edge="1">
          <mxGeometry width="50" height="50" relative="1" as="geometry">
            <mxPoint x="-36.25" y="586" as="sourcePoint" />
            <mxPoint x="-36.25" y="626" as="targetPoint" />
          </mxGeometry>
        </mxCell>
        <mxCell id="nO0mLq3j1kNEXtSqXXnn-89" value="" style="endArrow=none;html=1;rounded=0;exitX=0.5;exitY=1;exitDx=0;exitDy=0;entryX=0.5;entryY=0;entryDx=0;entryDy=0;" parent="1" source="nO0mLq3j1kNEXtSqXXnn-21" edge="1">
          <mxGeometry width="50" height="50" relative="1" as="geometry">
            <mxPoint x="-26.25" y="596" as="sourcePoint" />
            <mxPoint x="238.75" y="436" as="targetPoint" />
          </mxGeometry>
        </mxCell>
        <mxCell id="nO0mLq3j1kNEXtSqXXnn-90" value="" style="endArrow=none;html=1;rounded=0;entryX=0.5;entryY=0;entryDx=0;entryDy=0;exitX=0.5;exitY=1;exitDx=0;exitDy=0;" parent="1" source="nO0mLq3j1kNEXtSqXXnn-21" target="nO0mLq3j1kNEXtSqXXnn-64" edge="1">
          <mxGeometry width="50" height="50" relative="1" as="geometry">
            <mxPoint x="-21.25" y="606" as="sourcePoint" />
            <mxPoint x="-16.25" y="646" as="targetPoint" />
          </mxGeometry>
        </mxCell>
        <mxCell id="nO0mLq3j1kNEXtSqXXnn-91" value="" style="endArrow=none;html=1;rounded=0;exitX=0.5;exitY=1;exitDx=0;exitDy=0;entryX=0.5;entryY=0;entryDx=0;entryDy=0;" parent="1" source="nO0mLq3j1kNEXtSqXXnn-22" target="nO0mLq3j1kNEXtSqXXnn-105" edge="1">
          <mxGeometry width="50" height="50" relative="1" as="geometry">
            <mxPoint x="-6.25" y="616" as="sourcePoint" />
            <mxPoint x="254.25" y="434" as="targetPoint" />
          </mxGeometry>
        </mxCell>
        <mxCell id="nO0mLq3j1kNEXtSqXXnn-92" value="" style="endArrow=none;html=1;rounded=0;exitX=0.5;exitY=1;exitDx=0;exitDy=0;entryX=0.5;entryY=0;entryDx=0;entryDy=0;" parent="1" source="nO0mLq3j1kNEXtSqXXnn-22" target="nO0mLq3j1kNEXtSqXXnn-66" edge="1">
          <mxGeometry width="50" height="50" relative="1" as="geometry">
            <mxPoint x="3.75" y="626" as="sourcePoint" />
            <mxPoint x="3.75" y="666" as="targetPoint" />
          </mxGeometry>
        </mxCell>
        <mxCell id="nO0mLq3j1kNEXtSqXXnn-93" value="" style="endArrow=none;html=1;rounded=0;exitX=0.5;exitY=1;exitDx=0;exitDy=0;entryX=0.5;entryY=0;entryDx=0;entryDy=0;" parent="1" source="nO0mLq3j1kNEXtSqXXnn-22" target="nO0mLq3j1kNEXtSqXXnn-64" edge="1">
          <mxGeometry width="50" height="50" relative="1" as="geometry">
            <mxPoint x="13.509999999999991" y="526" as="sourcePoint" />
            <mxPoint x="13.509999999999991" y="566" as="targetPoint" />
          </mxGeometry>
        </mxCell>
        <mxCell id="nO0mLq3j1kNEXtSqXXnn-94" value="" style="endArrow=none;html=1;rounded=0;exitX=0.5;exitY=1;exitDx=0;exitDy=0;entryX=0.5;entryY=0;entryDx=0;entryDy=0;" parent="1" source="nO0mLq3j1kNEXtSqXXnn-22" edge="1">
          <mxGeometry width="50" height="50" relative="1" as="geometry">
            <mxPoint x="23.50999999999999" y="536" as="sourcePoint" />
            <mxPoint x="-226.25" y="436" as="targetPoint" />
          </mxGeometry>
        </mxCell>
        <mxCell id="nO0mLq3j1kNEXtSqXXnn-95" value="&lt;font face=&quot;Lucida Console&quot;&gt;(Real(H), Imag(H))&lt;/font&gt;" style="rounded=0;whiteSpace=wrap;html=1;" parent="1" vertex="1">
          <mxGeometry x="-301.25" y="606" width="617.5" height="60" as="geometry" />
        </mxCell>
        <mxCell id="nO0mLq3j1kNEXtSqXXnn-97" style="edgeStyle=none;curved=1;rounded=0;orthogonalLoop=1;jettySize=auto;html=1;exitX=1;exitY=0.25;exitDx=0;exitDy=0;entryX=0;entryY=0.25;entryDx=0;entryDy=0;fontSize=12;startSize=8;endSize=8;" parent="1" source="nO0mLq3j1kNEXtSqXXnn-98" target="nO0mLq3j1kNEXtSqXXnn-100" edge="1">
          <mxGeometry relative="1" as="geometry" />
        </mxCell>
        <mxCell id="nO0mLq3j1kNEXtSqXXnn-98" value="&lt;font face=&quot;Lucida Console&quot;&gt;LSTM CELL&lt;/font&gt;" style="rounded=0;whiteSpace=wrap;html=1;" parent="1" vertex="1">
          <mxGeometry x="-532.5" y="170" width="120" height="60" as="geometry" />
        </mxCell>
        <mxCell id="nO0mLq3j1kNEXtSqXXnn-99" style="edgeStyle=none;curved=1;rounded=0;orthogonalLoop=1;jettySize=auto;html=1;exitX=0;exitY=0.75;exitDx=0;exitDy=0;entryX=1;entryY=0.75;entryDx=0;entryDy=0;fontSize=12;startSize=8;endSize=8;" parent="1" source="nO0mLq3j1kNEXtSqXXnn-100" target="nO0mLq3j1kNEXtSqXXnn-98" edge="1">
          <mxGeometry relative="1" as="geometry" />
        </mxCell>
        <mxCell id="nO0mLq3j1kNEXtSqXXnn-100" value="&lt;font face=&quot;Lucida Console&quot;&gt;LSTM CELL&lt;/font&gt;" style="rounded=0;whiteSpace=wrap;html=1;" parent="1" vertex="1">
          <mxGeometry x="427.5" y="170" width="120" height="60" as="geometry" />
        </mxCell>
        <mxCell id="nO0mLq3j1kNEXtSqXXnn-102" style="edgeStyle=none;curved=1;rounded=0;orthogonalLoop=1;jettySize=auto;html=1;exitX=1;exitY=0.25;exitDx=0;exitDy=0;entryX=0;entryY=0.25;entryDx=0;entryDy=0;fontSize=12;startSize=8;endSize=8;" parent="1" source="nO0mLq3j1kNEXtSqXXnn-103" target="nO0mLq3j1kNEXtSqXXnn-105" edge="1">
          <mxGeometry relative="1" as="geometry" />
        </mxCell>
        <mxCell id="nO0mLq3j1kNEXtSqXXnn-103" value="&lt;font face=&quot;Lucida Console&quot;&gt;LSTM CELL&lt;/font&gt;" style="rounded=0;whiteSpace=wrap;html=1;" parent="1" vertex="1">
          <mxGeometry x="-275.75" y="436" width="120" height="60" as="geometry" />
        </mxCell>
        <mxCell id="nO0mLq3j1kNEXtSqXXnn-104" style="edgeStyle=none;curved=1;rounded=0;orthogonalLoop=1;jettySize=auto;html=1;exitX=0;exitY=0.75;exitDx=0;exitDy=0;entryX=1;entryY=0.75;entryDx=0;entryDy=0;fontSize=12;startSize=8;endSize=8;" parent="1" source="nO0mLq3j1kNEXtSqXXnn-105" target="nO0mLq3j1kNEXtSqXXnn-103" edge="1">
          <mxGeometry relative="1" as="geometry" />
        </mxCell>
        <mxCell id="nO0mLq3j1kNEXtSqXXnn-105" value="&lt;font face=&quot;Lucida Console&quot;&gt;LSTM CELL&lt;/font&gt;" style="rounded=0;whiteSpace=wrap;html=1;" parent="1" vertex="1">
          <mxGeometry x="190.25" y="436" width="120" height="60" as="geometry" />
        </mxCell>
        <mxCell id="nO0mLq3j1kNEXtSqXXnn-106" value="&lt;font face=&quot;Lucida Console&quot;&gt;LSTM CELL&lt;/font&gt;" style="rounded=0;whiteSpace=wrap;html=1;" parent="1" vertex="1">
          <mxGeometry x="-372.5" y="170" width="120" height="60" as="geometry" />
        </mxCell>
        <mxCell id="nO0mLq3j1kNEXtSqXXnn-107" value="&lt;font face=&quot;Lucida Console&quot;&gt;LSTM CELL&lt;/font&gt;" style="rounded=0;whiteSpace=wrap;html=1;" parent="1" vertex="1">
          <mxGeometry x="-212.5" y="170" width="120" height="60" as="geometry" />
        </mxCell>
        <mxCell id="nO0mLq3j1kNEXtSqXXnn-108" value="&lt;font face=&quot;Lucida Console&quot;&gt;LSTM CELL&lt;/font&gt;" style="rounded=0;whiteSpace=wrap;html=1;" parent="1" vertex="1">
          <mxGeometry x="-52.5" y="170" width="120" height="60" as="geometry" />
        </mxCell>
        <mxCell id="nO0mLq3j1kNEXtSqXXnn-109" value="&lt;font face=&quot;Lucida Console&quot;&gt;LSTM CELL&lt;/font&gt;" style="rounded=0;whiteSpace=wrap;html=1;" parent="1" vertex="1">
          <mxGeometry x="107.5" y="170" width="120" height="60" as="geometry" />
        </mxCell>
        <mxCell id="nO0mLq3j1kNEXtSqXXnn-110" value="&lt;font face=&quot;Lucida Console&quot;&gt;LSTM CELL&lt;/font&gt;" style="rounded=0;whiteSpace=wrap;html=1;" parent="1" vertex="1">
          <mxGeometry x="267.5" y="170" width="120" height="60" as="geometry" />
        </mxCell>
        <mxCell id="nO0mLq3j1kNEXtSqXXnn-111" value="&lt;font face=&quot;Lucida Console&quot;&gt;LSTM CELL&lt;/font&gt;" style="rounded=0;whiteSpace=wrap;html=1;" parent="1" vertex="1">
          <mxGeometry x="-126.25" y="436" width="120" height="60" as="geometry" />
        </mxCell>
        <mxCell id="nO0mLq3j1kNEXtSqXXnn-112" value="&lt;font face=&quot;Lucida Console&quot;&gt;LSTM CELL&lt;/font&gt;" style="rounded=0;whiteSpace=wrap;html=1;" parent="1" vertex="1">
          <mxGeometry x="28.75" y="436" width="120" height="60" as="geometry" />
        </mxCell>
        <mxCell id="3nk_vJjwUH9zhgrg77lb-1" style="edgeStyle=orthogonalEdgeStyle;rounded=0;orthogonalLoop=1;jettySize=auto;html=1;exitX=0.5;exitY=1;exitDx=0;exitDy=0;" edge="1" parent="1">
          <mxGeometry relative="1" as="geometry">
            <mxPoint x="-215.90285714285733" y="606" as="targetPoint" />
            <mxPoint x="-215.26" y="496" as="sourcePoint" />
            <Array as="points">
              <mxPoint x="-216.26" y="531" />
              <mxPoint x="-216.26" y="531" />
            </Array>
          </mxGeometry>
        </mxCell>
        <mxCell id="3nk_vJjwUH9zhgrg77lb-2" value="" style="endArrow=none;html=1;rounded=0;entryX=0.5;entryY=0;entryDx=0;entryDy=0;exitX=0.5;exitY=1;exitDx=0;exitDy=0;" edge="1" parent="1" source="nO0mLq3j1kNEXtSqXXnn-100" target="nO0mLq3j1kNEXtSqXXnn-20">
          <mxGeometry width="50" height="50" relative="1" as="geometry">
            <mxPoint x="498" y="240" as="sourcePoint" />
            <mxPoint x="264" y="366" as="targetPoint" />
          </mxGeometry>
        </mxCell>
        <mxCell id="3nk_vJjwUH9zhgrg77lb-3" value="" style="endArrow=none;html=1;rounded=0;entryX=0.5;entryY=0;entryDx=0;entryDy=0;exitX=0.5;exitY=1;exitDx=0;exitDy=0;" edge="1" parent="1" source="nO0mLq3j1kNEXtSqXXnn-108" target="nO0mLq3j1kNEXtSqXXnn-19">
          <mxGeometry width="50" height="50" relative="1" as="geometry">
            <mxPoint x="24" y="257" as="sourcePoint" />
            <mxPoint x="-56" y="366" as="targetPoint" />
          </mxGeometry>
        </mxCell>
        <mxCell id="3nk_vJjwUH9zhgrg77lb-4" value="" style="endArrow=none;html=1;rounded=0;exitX=0.5;exitY=1;exitDx=0;exitDy=0;entryX=0.5;entryY=0;entryDx=0;entryDy=0;" edge="1" parent="1" source="nO0mLq3j1kNEXtSqXXnn-108" target="nO0mLq3j1kNEXtSqXXnn-20">
          <mxGeometry width="50" height="50" relative="1" as="geometry">
            <mxPoint x="28.300000000000182" y="250" as="sourcePoint" />
            <mxPoint x="-46" y="376" as="targetPoint" />
          </mxGeometry>
        </mxCell>
        <mxCell id="3nk_vJjwUH9zhgrg77lb-5" value="" style="endArrow=none;html=1;rounded=0;entryX=0.5;entryY=0;entryDx=0;entryDy=0;exitX=0.5;exitY=1;exitDx=0;exitDy=0;" edge="1" parent="1" source="nO0mLq3j1kNEXtSqXXnn-109" target="nO0mLq3j1kNEXtSqXXnn-20">
          <mxGeometry width="50" height="50" relative="1" as="geometry">
            <mxPoint x="178" y="240" as="sourcePoint" />
            <mxPoint x="184" y="366" as="targetPoint" />
          </mxGeometry>
        </mxCell>
        <mxCell id="3nk_vJjwUH9zhgrg77lb-6" value="" style="endArrow=none;html=1;rounded=0;entryX=0.5;entryY=0;entryDx=0;entryDy=0;exitX=0.5;exitY=1;exitDx=0;exitDy=0;" edge="1" parent="1" source="nO0mLq3j1kNEXtSqXXnn-109" target="nO0mLq3j1kNEXtSqXXnn-22">
          <mxGeometry width="50" height="50" relative="1" as="geometry">
            <mxPoint x="188" y="250" as="sourcePoint" />
            <mxPoint x="194" y="376" as="targetPoint" />
          </mxGeometry>
        </mxCell>
        <mxCell id="3nk_vJjwUH9zhgrg77lb-7" value="" style="endArrow=none;html=1;rounded=0;entryX=0.5;entryY=0;entryDx=0;entryDy=0;exitX=0.5;exitY=1;exitDx=0;exitDy=0;" edge="1" parent="1" source="nO0mLq3j1kNEXtSqXXnn-110" target="nO0mLq3j1kNEXtSqXXnn-22">
          <mxGeometry width="50" height="50" relative="1" as="geometry">
            <mxPoint x="338" y="240" as="sourcePoint" />
            <mxPoint x="184" y="366" as="targetPoint" />
          </mxGeometry>
        </mxCell>
        <mxCell id="3nk_vJjwUH9zhgrg77lb-8" style="edgeStyle=orthogonalEdgeStyle;rounded=0;orthogonalLoop=1;jettySize=auto;html=1;exitX=0.5;exitY=0;exitDx=0;exitDy=0;entryX=0.5;entryY=0;entryDx=0;entryDy=0;" edge="1" parent="1">
          <mxGeometry relative="1" as="geometry">
            <mxPoint x="-153.12" y="30" as="sourcePoint" />
            <mxPoint x="-152.62" y="170" as="targetPoint" />
          </mxGeometry>
        </mxCell>
      </root>
    </mxGraphModel>
  </diagram>
  <diagram id="AIpy8H4fTceAtWgqSV6g" name="Estimator Model Vertical">
    <mxGraphModel dx="3050" dy="2293" grid="1" gridSize="10" guides="1" tooltips="1" connect="1" arrows="1" fold="1" page="1" pageScale="1" pageWidth="850" pageHeight="1100" math="0" shadow="0">
      <root>
        <mxCell id="0" />
        <mxCell id="1" parent="0" />
        <mxCell id="p5U1fK6hS0jVrRYFhpGA-96" style="edgeStyle=none;curved=1;rounded=0;orthogonalLoop=1;jettySize=auto;html=1;exitX=1;exitY=0.25;exitDx=0;exitDy=0;entryX=0;entryY=0.25;entryDx=0;entryDy=0;fontSize=12;startSize=8;endSize=8;" edge="1" parent="1" source="p5U1fK6hS0jVrRYFhpGA-97" target="p5U1fK6hS0jVrRYFhpGA-99">
          <mxGeometry relative="1" as="geometry" />
        </mxCell>
        <mxCell id="p5U1fK6hS0jVrRYFhpGA-1" value="&lt;font face=&quot;Lucida Console&quot;&gt;(Real(P&lt;sub&gt;tx&lt;/sub&gt;), Real(IFFT&lt;sub&gt;y&lt;/sub&gt;), Imag(P&lt;sub&gt;tx&lt;/sub&gt;), Real(IFFT&lt;sub&gt;y&lt;/sub&gt;))&lt;/font&gt;" style="rounded=0;whiteSpace=wrap;html=1;rotation=-90;" vertex="1" parent="1">
          <mxGeometry x="-1230" y="-346" width="1125" height="60" as="geometry" />
        </mxCell>
        <mxCell id="p5U1fK6hS0jVrRYFhpGA-2" style="edgeStyle=orthogonalEdgeStyle;rounded=0;orthogonalLoop=1;jettySize=auto;html=1;entryX=0.5;entryY=0;entryDx=0;entryDy=0;" edge="1" parent="1" target="p5U1fK6hS0jVrRYFhpGA-3">
          <mxGeometry relative="1" as="geometry">
            <mxPoint x="-630" y="180" as="sourcePoint" />
          </mxGeometry>
        </mxCell>
        <mxCell id="p5U1fK6hS0jVrRYFhpGA-3" value="LSTM CELL" style="rounded=0;whiteSpace=wrap;html=1;rotation=-90;" vertex="1" parent="1">
          <mxGeometry x="-626" y="150" width="120" height="60" as="geometry" />
        </mxCell>
        <mxCell id="p5U1fK6hS0jVrRYFhpGA-5" value="LSTM CELL" style="rounded=0;whiteSpace=wrap;html=1;rotation=-90;" vertex="1" parent="1">
          <mxGeometry x="-626" y="-810" width="120" height="60" as="geometry" />
        </mxCell>
        <mxCell id="p5U1fK6hS0jVrRYFhpGA-7" value="LSTM CELL" style="rounded=0;whiteSpace=wrap;html=1;rotation=-90;" vertex="1" parent="1">
          <mxGeometry x="-626" y="-10" width="120" height="60" as="geometry" />
        </mxCell>
        <mxCell id="p5U1fK6hS0jVrRYFhpGA-8" value="LSTM CELL" style="rounded=0;whiteSpace=wrap;html=1;rotation=-90;" vertex="1" parent="1">
          <mxGeometry x="-626" y="-170" width="120" height="60" as="geometry" />
        </mxCell>
        <mxCell id="p5U1fK6hS0jVrRYFhpGA-10" value="LSTM CELL" style="rounded=0;whiteSpace=wrap;html=1;rotation=-90;" vertex="1" parent="1">
          <mxGeometry x="-626" y="-330" width="120" height="60" as="geometry" />
        </mxCell>
        <mxCell id="p5U1fK6hS0jVrRYFhpGA-12" value="LSTM CELL" style="rounded=0;whiteSpace=wrap;html=1;rotation=-90;" vertex="1" parent="1">
          <mxGeometry x="-626" y="-490" width="120" height="60" as="geometry" />
        </mxCell>
        <mxCell id="p5U1fK6hS0jVrRYFhpGA-14" value="LSTM CELL" style="rounded=0;whiteSpace=wrap;html=1;rotation=-90;" vertex="1" parent="1">
          <mxGeometry x="-626" y="-650" width="120" height="60" as="geometry" />
        </mxCell>
        <mxCell id="p5U1fK6hS0jVrRYFhpGA-15" value="" style="ellipse;whiteSpace=wrap;html=1;aspect=fixed;rotation=-90;" vertex="1" parent="1">
          <mxGeometry x="-410" y="-86" width="40" height="40" as="geometry" />
        </mxCell>
        <mxCell id="p5U1fK6hS0jVrRYFhpGA-16" value="" style="ellipse;whiteSpace=wrap;html=1;aspect=fixed;rotation=-90;" vertex="1" parent="1">
          <mxGeometry x="-410" y="-166" width="40" height="40" as="geometry" />
        </mxCell>
        <mxCell id="p5U1fK6hS0jVrRYFhpGA-17" value="" style="ellipse;whiteSpace=wrap;html=1;aspect=fixed;rotation=-90;" vertex="1" parent="1">
          <mxGeometry x="-410" y="-246" width="40" height="40" as="geometry" />
        </mxCell>
        <mxCell id="p5U1fK6hS0jVrRYFhpGA-18" value="" style="ellipse;whiteSpace=wrap;html=1;aspect=fixed;rotation=-90;" vertex="1" parent="1">
          <mxGeometry x="-410" y="-326" width="40" height="40" as="geometry" />
        </mxCell>
        <mxCell id="p5U1fK6hS0jVrRYFhpGA-19" value="" style="ellipse;whiteSpace=wrap;html=1;aspect=fixed;rotation=-90;" vertex="1" parent="1">
          <mxGeometry x="-410" y="-406" width="40" height="40" as="geometry" />
        </mxCell>
        <mxCell id="p5U1fK6hS0jVrRYFhpGA-20" value="" style="ellipse;whiteSpace=wrap;html=1;aspect=fixed;rotation=-90;" vertex="1" parent="1">
          <mxGeometry x="-410" y="-486" width="40" height="40" as="geometry" />
        </mxCell>
        <mxCell id="p5U1fK6hS0jVrRYFhpGA-21" value="" style="ellipse;whiteSpace=wrap;html=1;aspect=fixed;rotation=-90;" vertex="1" parent="1">
          <mxGeometry x="-410" y="-566" width="40" height="40" as="geometry" />
        </mxCell>
        <mxCell id="p5U1fK6hS0jVrRYFhpGA-22" value="" style="endArrow=none;html=1;rounded=0;exitX=0.5;exitY=1;exitDx=0;exitDy=0;entryX=0.5;entryY=0;entryDx=0;entryDy=0;" edge="1" parent="1" source="p5U1fK6hS0jVrRYFhpGA-3" target="p5U1fK6hS0jVrRYFhpGA-15">
          <mxGeometry width="50" height="50" relative="1" as="geometry">
            <mxPoint x="-446" y="-295" as="sourcePoint" />
            <mxPoint x="-496" y="-345" as="targetPoint" />
          </mxGeometry>
        </mxCell>
        <mxCell id="p5U1fK6hS0jVrRYFhpGA-23" value="" style="endArrow=none;html=1;rounded=0;exitX=0.5;exitY=1;exitDx=0;exitDy=0;entryX=0.5;entryY=0;entryDx=0;entryDy=0;" edge="1" parent="1" source="p5U1fK6hS0jVrRYFhpGA-3" target="p5U1fK6hS0jVrRYFhpGA-16">
          <mxGeometry width="50" height="50" relative="1" as="geometry">
            <mxPoint x="-436" y="-305" as="sourcePoint" />
            <mxPoint x="-486" y="-355" as="targetPoint" />
          </mxGeometry>
        </mxCell>
        <mxCell id="p5U1fK6hS0jVrRYFhpGA-24" value="" style="endArrow=none;html=1;rounded=0;exitX=0.5;exitY=1;exitDx=0;exitDy=0;entryX=0.5;entryY=0;entryDx=0;entryDy=0;" edge="1" parent="1" source="p5U1fK6hS0jVrRYFhpGA-3" target="p5U1fK6hS0jVrRYFhpGA-17">
          <mxGeometry width="50" height="50" relative="1" as="geometry">
            <mxPoint x="-426" y="-315" as="sourcePoint" />
            <mxPoint x="-476" y="-365" as="targetPoint" />
          </mxGeometry>
        </mxCell>
        <mxCell id="p5U1fK6hS0jVrRYFhpGA-25" value="" style="endArrow=none;html=1;rounded=0;exitX=0.5;exitY=1;exitDx=0;exitDy=0;entryX=0.5;entryY=0;entryDx=0;entryDy=0;" edge="1" parent="1" source="p5U1fK6hS0jVrRYFhpGA-3" target="p5U1fK6hS0jVrRYFhpGA-18">
          <mxGeometry width="50" height="50" relative="1" as="geometry">
            <mxPoint x="-416" y="-325" as="sourcePoint" />
            <mxPoint x="-466" y="-375" as="targetPoint" />
          </mxGeometry>
        </mxCell>
        <mxCell id="p5U1fK6hS0jVrRYFhpGA-26" value="" style="endArrow=none;html=1;rounded=0;exitX=0.5;exitY=1;exitDx=0;exitDy=0;entryX=0.5;entryY=0;entryDx=0;entryDy=0;" edge="1" parent="1" source="p5U1fK6hS0jVrRYFhpGA-3" target="p5U1fK6hS0jVrRYFhpGA-19">
          <mxGeometry width="50" height="50" relative="1" as="geometry">
            <mxPoint x="-406" y="-335" as="sourcePoint" />
            <mxPoint x="-456" y="-385" as="targetPoint" />
          </mxGeometry>
        </mxCell>
        <mxCell id="p5U1fK6hS0jVrRYFhpGA-27" value="" style="endArrow=none;html=1;rounded=0;exitX=0.5;exitY=1;exitDx=0;exitDy=0;entryX=0.5;entryY=0;entryDx=0;entryDy=0;" edge="1" parent="1" source="p5U1fK6hS0jVrRYFhpGA-3" target="p5U1fK6hS0jVrRYFhpGA-20">
          <mxGeometry width="50" height="50" relative="1" as="geometry">
            <mxPoint x="-396" y="-345" as="sourcePoint" />
            <mxPoint x="-446" y="-395" as="targetPoint" />
          </mxGeometry>
        </mxCell>
        <mxCell id="p5U1fK6hS0jVrRYFhpGA-28" value="" style="endArrow=none;html=1;rounded=0;exitX=0.5;exitY=1;exitDx=0;exitDy=0;entryX=0.5;entryY=0;entryDx=0;entryDy=0;" edge="1" parent="1" source="p5U1fK6hS0jVrRYFhpGA-3" target="p5U1fK6hS0jVrRYFhpGA-21">
          <mxGeometry width="50" height="50" relative="1" as="geometry">
            <mxPoint x="-386" y="-355" as="sourcePoint" />
            <mxPoint x="-436" y="-405" as="targetPoint" />
          </mxGeometry>
        </mxCell>
        <mxCell id="p5U1fK6hS0jVrRYFhpGA-29" value="" style="endArrow=none;html=1;rounded=0;exitX=0.5;exitY=1;exitDx=0;exitDy=0;entryX=0.5;entryY=0;entryDx=0;entryDy=0;" edge="1" parent="1" source="p5U1fK6hS0jVrRYFhpGA-7" target="p5U1fK6hS0jVrRYFhpGA-15">
          <mxGeometry width="50" height="50" relative="1" as="geometry">
            <mxPoint x="-376" y="-365" as="sourcePoint" />
            <mxPoint x="-426" y="-415" as="targetPoint" />
          </mxGeometry>
        </mxCell>
        <mxCell id="p5U1fK6hS0jVrRYFhpGA-30" value="" style="endArrow=none;html=1;rounded=0;exitX=0.5;exitY=1;exitDx=0;exitDy=0;entryX=0.5;entryY=0;entryDx=0;entryDy=0;" edge="1" parent="1" source="p5U1fK6hS0jVrRYFhpGA-7" target="p5U1fK6hS0jVrRYFhpGA-16">
          <mxGeometry width="50" height="50" relative="1" as="geometry">
            <mxPoint x="-366" y="-375" as="sourcePoint" />
            <mxPoint x="-416" y="-425" as="targetPoint" />
          </mxGeometry>
        </mxCell>
        <mxCell id="p5U1fK6hS0jVrRYFhpGA-31" value="" style="endArrow=none;html=1;rounded=0;exitX=0.5;exitY=1;exitDx=0;exitDy=0;entryX=0.5;entryY=0;entryDx=0;entryDy=0;" edge="1" parent="1" source="p5U1fK6hS0jVrRYFhpGA-7" target="p5U1fK6hS0jVrRYFhpGA-17">
          <mxGeometry width="50" height="50" relative="1" as="geometry">
            <mxPoint x="-356" y="-385" as="sourcePoint" />
            <mxPoint x="-406" y="-435" as="targetPoint" />
          </mxGeometry>
        </mxCell>
        <mxCell id="p5U1fK6hS0jVrRYFhpGA-32" value="" style="endArrow=none;html=1;rounded=0;exitX=0.5;exitY=1;exitDx=0;exitDy=0;entryX=0.5;entryY=0;entryDx=0;entryDy=0;" edge="1" parent="1" source="p5U1fK6hS0jVrRYFhpGA-7" target="p5U1fK6hS0jVrRYFhpGA-18">
          <mxGeometry width="50" height="50" relative="1" as="geometry">
            <mxPoint x="-346" y="-395" as="sourcePoint" />
            <mxPoint x="-396" y="-445" as="targetPoint" />
          </mxGeometry>
        </mxCell>
        <mxCell id="p5U1fK6hS0jVrRYFhpGA-33" value="" style="endArrow=none;html=1;rounded=0;exitX=0.5;exitY=1;exitDx=0;exitDy=0;entryX=0.5;entryY=0;entryDx=0;entryDy=0;" edge="1" parent="1" source="p5U1fK6hS0jVrRYFhpGA-7" target="p5U1fK6hS0jVrRYFhpGA-19">
          <mxGeometry width="50" height="50" relative="1" as="geometry">
            <mxPoint x="-526" y="15" as="sourcePoint" />
            <mxPoint x="-386" y="-455" as="targetPoint" />
          </mxGeometry>
        </mxCell>
        <mxCell id="p5U1fK6hS0jVrRYFhpGA-34" value="" style="endArrow=none;html=1;rounded=0;exitX=0.5;exitY=1;exitDx=0;exitDy=0;entryX=0.5;entryY=0;entryDx=0;entryDy=0;" edge="1" parent="1" source="p5U1fK6hS0jVrRYFhpGA-7" target="p5U1fK6hS0jVrRYFhpGA-21">
          <mxGeometry width="50" height="50" relative="1" as="geometry">
            <mxPoint x="-326" y="-415" as="sourcePoint" />
            <mxPoint x="-376" y="-465" as="targetPoint" />
          </mxGeometry>
        </mxCell>
        <mxCell id="p5U1fK6hS0jVrRYFhpGA-35" value="" style="endArrow=none;html=1;rounded=0;exitX=0.5;exitY=1;exitDx=0;exitDy=0;entryX=0.5;entryY=0;entryDx=0;entryDy=0;" edge="1" parent="1" source="p5U1fK6hS0jVrRYFhpGA-7" target="p5U1fK6hS0jVrRYFhpGA-20">
          <mxGeometry width="50" height="50" relative="1" as="geometry">
            <mxPoint x="-316" y="-425" as="sourcePoint" />
            <mxPoint x="-366" y="-475" as="targetPoint" />
          </mxGeometry>
        </mxCell>
        <mxCell id="p5U1fK6hS0jVrRYFhpGA-36" value="" style="endArrow=none;html=1;rounded=0;entryX=0.5;entryY=1;entryDx=0;entryDy=0;exitX=0.5;exitY=0;exitDx=0;exitDy=0;" edge="1" parent="1" source="p5U1fK6hS0jVrRYFhpGA-15" target="p5U1fK6hS0jVrRYFhpGA-8">
          <mxGeometry width="50" height="50" relative="1" as="geometry">
            <mxPoint x="-306" y="-435" as="sourcePoint" />
            <mxPoint x="-356" y="-485" as="targetPoint" />
          </mxGeometry>
        </mxCell>
        <mxCell id="p5U1fK6hS0jVrRYFhpGA-37" value="" style="endArrow=none;html=1;rounded=0;entryX=0.5;entryY=1;entryDx=0;entryDy=0;exitX=0.5;exitY=0;exitDx=0;exitDy=0;" edge="1" parent="1" source="p5U1fK6hS0jVrRYFhpGA-16" target="p5U1fK6hS0jVrRYFhpGA-8">
          <mxGeometry width="50" height="50" relative="1" as="geometry">
            <mxPoint x="-436" y="135" as="sourcePoint" />
            <mxPoint x="-526" y="-150" as="targetPoint" />
          </mxGeometry>
        </mxCell>
        <mxCell id="p5U1fK6hS0jVrRYFhpGA-38" value="" style="endArrow=none;html=1;rounded=0;entryX=0.5;entryY=1;entryDx=0;entryDy=0;exitX=0.5;exitY=0;exitDx=0;exitDy=0;" edge="1" parent="1" source="p5U1fK6hS0jVrRYFhpGA-17" target="p5U1fK6hS0jVrRYFhpGA-8">
          <mxGeometry width="50" height="50" relative="1" as="geometry">
            <mxPoint x="-426" y="125" as="sourcePoint" />
            <mxPoint x="-516" y="-160" as="targetPoint" />
          </mxGeometry>
        </mxCell>
        <mxCell id="p5U1fK6hS0jVrRYFhpGA-39" value="" style="endArrow=none;html=1;rounded=0;entryX=0.5;entryY=1;entryDx=0;entryDy=0;exitX=0.5;exitY=0;exitDx=0;exitDy=0;" edge="1" parent="1" source="p5U1fK6hS0jVrRYFhpGA-18" target="p5U1fK6hS0jVrRYFhpGA-8">
          <mxGeometry width="50" height="50" relative="1" as="geometry">
            <mxPoint x="-456" y="-95" as="sourcePoint" />
            <mxPoint x="-506" y="-170" as="targetPoint" />
          </mxGeometry>
        </mxCell>
        <mxCell id="p5U1fK6hS0jVrRYFhpGA-40" value="" style="endArrow=none;html=1;rounded=0;exitX=0.5;exitY=0;exitDx=0;exitDy=0;entryX=0.5;entryY=1;entryDx=0;entryDy=0;" edge="1" parent="1" source="p5U1fK6hS0jVrRYFhpGA-19" target="p5U1fK6hS0jVrRYFhpGA-8">
          <mxGeometry width="50" height="50" relative="1" as="geometry">
            <mxPoint x="-406" y="105" as="sourcePoint" />
            <mxPoint x="-496" y="-180" as="targetPoint" />
          </mxGeometry>
        </mxCell>
        <mxCell id="p5U1fK6hS0jVrRYFhpGA-41" value="" style="endArrow=none;html=1;rounded=0;entryX=0.5;entryY=0;entryDx=0;entryDy=0;exitX=0.5;exitY=1;exitDx=0;exitDy=0;" edge="1" parent="1" source="p5U1fK6hS0jVrRYFhpGA-8" target="p5U1fK6hS0jVrRYFhpGA-20">
          <mxGeometry width="50" height="50" relative="1" as="geometry">
            <mxPoint x="-396" y="95" as="sourcePoint" />
            <mxPoint x="-486" y="-190" as="targetPoint" />
          </mxGeometry>
        </mxCell>
        <mxCell id="p5U1fK6hS0jVrRYFhpGA-42" value="" style="endArrow=none;html=1;rounded=0;entryX=0.5;entryY=1;entryDx=0;entryDy=0;exitX=0.5;exitY=0;exitDx=0;exitDy=0;" edge="1" parent="1" source="p5U1fK6hS0jVrRYFhpGA-21" target="p5U1fK6hS0jVrRYFhpGA-8">
          <mxGeometry width="50" height="50" relative="1" as="geometry">
            <mxPoint x="-386" y="85" as="sourcePoint" />
            <mxPoint x="-476" y="-200" as="targetPoint" />
          </mxGeometry>
        </mxCell>
        <mxCell id="p5U1fK6hS0jVrRYFhpGA-43" value="" style="endArrow=none;html=1;rounded=0;exitX=0.5;exitY=1;exitDx=0;exitDy=0;entryX=0.5;entryY=0;entryDx=0;entryDy=0;" edge="1" parent="1" target="p5U1fK6hS0jVrRYFhpGA-16">
          <mxGeometry width="50" height="50" relative="1" as="geometry">
            <mxPoint x="-536" y="-300" as="sourcePoint" />
            <mxPoint x="-426" y="-140" as="targetPoint" />
          </mxGeometry>
        </mxCell>
        <mxCell id="p5U1fK6hS0jVrRYFhpGA-44" value="" style="endArrow=none;html=1;rounded=0;exitX=0.5;exitY=1;exitDx=0;exitDy=0;entryX=0.5;entryY=0;entryDx=0;entryDy=0;" edge="1" parent="1">
          <mxGeometry width="50" height="50" relative="1" as="geometry">
            <mxPoint x="-536" y="-460" as="sourcePoint" />
            <mxPoint x="-426" y="-140" as="targetPoint" />
          </mxGeometry>
        </mxCell>
        <mxCell id="p5U1fK6hS0jVrRYFhpGA-45" value="" style="endArrow=none;html=1;rounded=0;exitX=0.5;exitY=1;exitDx=0;exitDy=0;entryX=0.5;entryY=0;entryDx=0;entryDy=0;" edge="1" parent="1" target="p5U1fK6hS0jVrRYFhpGA-15">
          <mxGeometry width="50" height="50" relative="1" as="geometry">
            <mxPoint x="-536" y="-620" as="sourcePoint" />
            <mxPoint x="-426" y="-140" as="targetPoint" />
          </mxGeometry>
        </mxCell>
        <mxCell id="p5U1fK6hS0jVrRYFhpGA-46" value="" style="endArrow=none;html=1;rounded=0;exitX=0.5;exitY=1;exitDx=0;exitDy=0;entryX=0.5;entryY=0;entryDx=0;entryDy=0;" edge="1" parent="1" source="p5U1fK6hS0jVrRYFhpGA-95" target="p5U1fK6hS0jVrRYFhpGA-16">
          <mxGeometry width="50" height="50" relative="1" as="geometry">
            <mxPoint x="-536" y="-700" as="sourcePoint" />
            <mxPoint x="-426" y="-140" as="targetPoint" />
          </mxGeometry>
        </mxCell>
        <mxCell id="p5U1fK6hS0jVrRYFhpGA-47" value="" style="endArrow=none;html=1;rounded=0;exitX=0.5;exitY=1;exitDx=0;exitDy=0;entryX=0.5;entryY=0;entryDx=0;entryDy=0;" edge="1" parent="1" target="p5U1fK6hS0jVrRYFhpGA-17">
          <mxGeometry width="50" height="50" relative="1" as="geometry">
            <mxPoint x="-536" y="-780" as="sourcePoint" />
            <mxPoint x="-426" y="-140" as="targetPoint" />
          </mxGeometry>
        </mxCell>
        <mxCell id="p5U1fK6hS0jVrRYFhpGA-48" value="" style="endArrow=none;html=1;rounded=0;exitX=0.5;exitY=1;exitDx=0;exitDy=0;entryX=0.5;entryY=0;entryDx=0;entryDy=0;" edge="1" parent="1" target="p5U1fK6hS0jVrRYFhpGA-17">
          <mxGeometry width="50" height="50" relative="1" as="geometry">
            <mxPoint x="-536" y="-301" as="sourcePoint" />
            <mxPoint x="-426" y="-301" as="targetPoint" />
          </mxGeometry>
        </mxCell>
        <mxCell id="p5U1fK6hS0jVrRYFhpGA-49" value="" style="endArrow=none;html=1;rounded=0;exitX=0.5;exitY=1;exitDx=0;exitDy=0;entryX=0.5;entryY=0;entryDx=0;entryDy=0;" edge="1" parent="1" target="p5U1fK6hS0jVrRYFhpGA-18">
          <mxGeometry width="50" height="50" relative="1" as="geometry">
            <mxPoint x="-536" y="-460" as="sourcePoint" />
            <mxPoint x="-426" y="-300" as="targetPoint" />
          </mxGeometry>
        </mxCell>
        <mxCell id="p5U1fK6hS0jVrRYFhpGA-50" value="" style="endArrow=none;html=1;rounded=0;exitX=0.5;exitY=1;exitDx=0;exitDy=0;entryX=0.5;entryY=0;entryDx=0;entryDy=0;" edge="1" parent="1">
          <mxGeometry width="50" height="50" relative="1" as="geometry">
            <mxPoint x="-536" y="-620" as="sourcePoint" />
            <mxPoint x="-426" y="-300" as="targetPoint" />
          </mxGeometry>
        </mxCell>
        <mxCell id="p5U1fK6hS0jVrRYFhpGA-51" value="" style="endArrow=none;html=1;rounded=0;exitX=0.5;exitY=1;exitDx=0;exitDy=0;entryX=0.5;entryY=0;entryDx=0;entryDy=0;" edge="1" parent="1">
          <mxGeometry width="50" height="50" relative="1" as="geometry">
            <mxPoint x="-536" y="-780" as="sourcePoint" />
            <mxPoint x="-426" y="-300" as="targetPoint" />
          </mxGeometry>
        </mxCell>
        <mxCell id="p5U1fK6hS0jVrRYFhpGA-52" value="" style="endArrow=none;html=1;rounded=0;exitX=0.5;exitY=1;exitDx=0;exitDy=0;entryX=0.5;entryY=0;entryDx=0;entryDy=0;" edge="1" parent="1" source="p5U1fK6hS0jVrRYFhpGA-95">
          <mxGeometry width="50" height="50" relative="1" as="geometry">
            <mxPoint x="-536" y="-700" as="sourcePoint" />
            <mxPoint x="-426" y="-300" as="targetPoint" />
          </mxGeometry>
        </mxCell>
        <mxCell id="p5U1fK6hS0jVrRYFhpGA-53" value="" style="endArrow=none;html=1;rounded=0;entryX=0.5;entryY=1;entryDx=0;entryDy=0;exitX=0.5;exitY=0;exitDx=0;exitDy=0;" edge="1" parent="1" source="p5U1fK6hS0jVrRYFhpGA-20">
          <mxGeometry width="50" height="50" relative="1" as="geometry">
            <mxPoint x="-426" y="-460" as="sourcePoint" />
            <mxPoint x="-536" y="-300" as="targetPoint" />
          </mxGeometry>
        </mxCell>
        <mxCell id="p5U1fK6hS0jVrRYFhpGA-54" value="" style="endArrow=none;html=1;rounded=0;entryX=0.5;entryY=1;entryDx=0;entryDy=0;exitX=0.5;exitY=0;exitDx=0;exitDy=0;" edge="1" parent="1" source="p5U1fK6hS0jVrRYFhpGA-20">
          <mxGeometry width="50" height="50" relative="1" as="geometry">
            <mxPoint x="-426" y="-461" as="sourcePoint" />
            <mxPoint x="-536" y="-461" as="targetPoint" />
          </mxGeometry>
        </mxCell>
        <mxCell id="p5U1fK6hS0jVrRYFhpGA-55" value="" style="endArrow=none;html=1;rounded=0;exitX=0.5;exitY=0;exitDx=0;exitDy=0;entryX=0.5;entryY=1;entryDx=0;entryDy=0;" edge="1" parent="1" source="p5U1fK6hS0jVrRYFhpGA-19">
          <mxGeometry width="50" height="50" relative="1" as="geometry">
            <mxPoint x="-426" y="-460" as="sourcePoint" />
            <mxPoint x="-536" y="-620" as="targetPoint" />
          </mxGeometry>
        </mxCell>
        <mxCell id="p5U1fK6hS0jVrRYFhpGA-56" value="" style="endArrow=none;html=1;rounded=0;entryX=0.5;entryY=0;entryDx=0;entryDy=0;exitX=0.5;exitY=1;exitDx=0;exitDy=0;" edge="1" parent="1" source="p5U1fK6hS0jVrRYFhpGA-95" target="p5U1fK6hS0jVrRYFhpGA-21">
          <mxGeometry width="50" height="50" relative="1" as="geometry">
            <mxPoint x="-536" y="-700" as="sourcePoint" />
            <mxPoint x="-426" y="-460" as="targetPoint" />
          </mxGeometry>
        </mxCell>
        <mxCell id="p5U1fK6hS0jVrRYFhpGA-57" value="" style="endArrow=none;html=1;rounded=0;entryX=0.5;entryY=1;entryDx=0;entryDy=0;exitX=0.5;exitY=0;exitDx=0;exitDy=0;" edge="1" parent="1" source="p5U1fK6hS0jVrRYFhpGA-20">
          <mxGeometry width="50" height="50" relative="1" as="geometry">
            <mxPoint x="-426" y="-460" as="sourcePoint" />
            <mxPoint x="-536" y="-780" as="targetPoint" />
          </mxGeometry>
        </mxCell>
        <mxCell id="p5U1fK6hS0jVrRYFhpGA-58" value="" style="endArrow=none;html=1;rounded=0;entryX=0.5;entryY=0;entryDx=0;entryDy=0;exitX=0.5;exitY=1;exitDx=0;exitDy=0;" edge="1" parent="1" source="p5U1fK6hS0jVrRYFhpGA-12" target="p5U1fK6hS0jVrRYFhpGA-20">
          <mxGeometry width="50" height="50" relative="1" as="geometry">
            <mxPoint x="-256" y="-395" as="sourcePoint" />
            <mxPoint x="-306" y="-445" as="targetPoint" />
          </mxGeometry>
        </mxCell>
        <mxCell id="p5U1fK6hS0jVrRYFhpGA-59" value="" style="endArrow=none;html=1;rounded=0;entryX=0.5;entryY=0;entryDx=0;entryDy=0;exitX=0.5;exitY=1;exitDx=0;exitDy=0;" edge="1" parent="1" source="p5U1fK6hS0jVrRYFhpGA-14" target="p5U1fK6hS0jVrRYFhpGA-20">
          <mxGeometry width="50" height="50" relative="1" as="geometry">
            <mxPoint x="-526" y="-470" as="sourcePoint" />
            <mxPoint x="-416" y="-390" as="targetPoint" />
          </mxGeometry>
        </mxCell>
        <mxCell id="p5U1fK6hS0jVrRYFhpGA-60" style="edgeStyle=orthogonalEdgeStyle;rounded=0;orthogonalLoop=1;jettySize=auto;html=1;exitX=0.5;exitY=1;exitDx=0;exitDy=0;" edge="1" parent="1" source="p5U1fK6hS0jVrRYFhpGA-61">
          <mxGeometry relative="1" as="geometry">
            <mxPoint x="-230" y="-226" as="targetPoint" />
            <Array as="points">
              <mxPoint x="-235" y="-226" />
              <mxPoint x="-235" y="-226" />
            </Array>
          </mxGeometry>
        </mxCell>
        <mxCell id="p5U1fK6hS0jVrRYFhpGA-61" value="LSTM CELL" style="rounded=0;whiteSpace=wrap;html=1;rotation=-90;" vertex="1" parent="1">
          <mxGeometry x="-360" y="-256" width="120" height="60" as="geometry" />
        </mxCell>
        <mxCell id="p5U1fK6hS0jVrRYFhpGA-62" style="edgeStyle=orthogonalEdgeStyle;rounded=0;orthogonalLoop=1;jettySize=auto;html=1;exitX=0.5;exitY=1;exitDx=0;exitDy=0;" edge="1" parent="1" source="p5U1fK6hS0jVrRYFhpGA-63">
          <mxGeometry relative="1" as="geometry">
            <mxPoint x="-230" y="-382" as="targetPoint" />
          </mxGeometry>
        </mxCell>
        <mxCell id="p5U1fK6hS0jVrRYFhpGA-63" value="LSTM CELL" style="rounded=0;whiteSpace=wrap;html=1;rotation=-90;" vertex="1" parent="1">
          <mxGeometry x="-360" y="-411" width="120" height="60" as="geometry" />
        </mxCell>
        <mxCell id="p5U1fK6hS0jVrRYFhpGA-64" style="edgeStyle=orthogonalEdgeStyle;rounded=0;orthogonalLoop=1;jettySize=auto;html=1;exitX=0.5;exitY=1;exitDx=0;exitDy=0;" edge="1" parent="1">
          <mxGeometry relative="1" as="geometry">
            <mxPoint x="-230" y="-530" as="targetPoint" />
            <mxPoint x="-270" y="-531" as="sourcePoint" />
          </mxGeometry>
        </mxCell>
        <mxCell id="p5U1fK6hS0jVrRYFhpGA-65" value="" style="endArrow=none;html=1;rounded=0;exitX=0.5;exitY=1;exitDx=0;exitDy=0;entryX=0.5;entryY=0;entryDx=0;entryDy=0;" edge="1" parent="1" source="p5U1fK6hS0jVrRYFhpGA-15">
          <mxGeometry width="50" height="50" relative="1" as="geometry">
            <mxPoint x="-420" y="-451" as="sourcePoint" />
            <mxPoint x="-330" y="-66" as="targetPoint" />
          </mxGeometry>
        </mxCell>
        <mxCell id="p5U1fK6hS0jVrRYFhpGA-66" value="" style="endArrow=none;html=1;rounded=0;exitX=0.5;exitY=1;exitDx=0;exitDy=0;entryX=0.5;entryY=0;entryDx=0;entryDy=0;" edge="1" parent="1" source="p5U1fK6hS0jVrRYFhpGA-15" target="p5U1fK6hS0jVrRYFhpGA-61">
          <mxGeometry width="50" height="50" relative="1" as="geometry">
            <mxPoint x="-360" y="-76" as="sourcePoint" />
            <mxPoint x="-320" y="-76" as="targetPoint" />
          </mxGeometry>
        </mxCell>
        <mxCell id="p5U1fK6hS0jVrRYFhpGA-67" value="" style="endArrow=none;html=1;rounded=0;entryX=0.5;entryY=0;entryDx=0;entryDy=0;exitX=0.5;exitY=1;exitDx=0;exitDy=0;" edge="1" parent="1" source="p5U1fK6hS0jVrRYFhpGA-15" target="p5U1fK6hS0jVrRYFhpGA-63">
          <mxGeometry width="50" height="50" relative="1" as="geometry">
            <mxPoint x="-370" y="-71" as="sourcePoint" />
            <mxPoint x="-310" y="-86" as="targetPoint" />
          </mxGeometry>
        </mxCell>
        <mxCell id="p5U1fK6hS0jVrRYFhpGA-68" value="" style="endArrow=none;html=1;rounded=0;entryX=0.5;entryY=0;entryDx=0;entryDy=0;exitX=0.5;exitY=1;exitDx=0;exitDy=0;" edge="1" parent="1" source="p5U1fK6hS0jVrRYFhpGA-15">
          <mxGeometry width="50" height="50" relative="1" as="geometry">
            <mxPoint x="-360" y="-81" as="sourcePoint" />
            <mxPoint x="-330" y="-531" as="targetPoint" />
          </mxGeometry>
        </mxCell>
        <mxCell id="p5U1fK6hS0jVrRYFhpGA-69" value="" style="endArrow=none;html=1;rounded=0;exitX=0.5;exitY=1;exitDx=0;exitDy=0;entryX=0.5;entryY=0;entryDx=0;entryDy=0;" edge="1" parent="1" source="p5U1fK6hS0jVrRYFhpGA-16">
          <mxGeometry width="50" height="50" relative="1" as="geometry">
            <mxPoint x="-330" y="-106" as="sourcePoint" />
            <mxPoint x="-330" y="-66" as="targetPoint" />
          </mxGeometry>
        </mxCell>
        <mxCell id="p5U1fK6hS0jVrRYFhpGA-70" value="" style="endArrow=none;html=1;rounded=0;entryX=0.5;entryY=0;entryDx=0;entryDy=0;exitX=0.5;exitY=1;exitDx=0;exitDy=0;" edge="1" parent="1" source="p5U1fK6hS0jVrRYFhpGA-16" target="p5U1fK6hS0jVrRYFhpGA-61">
          <mxGeometry width="50" height="50" relative="1" as="geometry">
            <mxPoint x="-370" y="-141" as="sourcePoint" />
            <mxPoint x="-280" y="-116" as="targetPoint" />
          </mxGeometry>
        </mxCell>
        <mxCell id="p5U1fK6hS0jVrRYFhpGA-71" value="" style="endArrow=none;html=1;rounded=0;exitX=0.5;exitY=1;exitDx=0;exitDy=0;entryX=0.5;entryY=0;entryDx=0;entryDy=0;" edge="1" parent="1" source="p5U1fK6hS0jVrRYFhpGA-16" target="p5U1fK6hS0jVrRYFhpGA-63">
          <mxGeometry width="50" height="50" relative="1" as="geometry">
            <mxPoint x="-310" y="-126" as="sourcePoint" />
            <mxPoint x="-270" y="-126" as="targetPoint" />
          </mxGeometry>
        </mxCell>
        <mxCell id="p5U1fK6hS0jVrRYFhpGA-72" value="" style="endArrow=none;html=1;rounded=0;exitX=0.5;exitY=1;exitDx=0;exitDy=0;entryX=0.5;entryY=0;entryDx=0;entryDy=0;" edge="1" parent="1" source="p5U1fK6hS0jVrRYFhpGA-16">
          <mxGeometry width="50" height="50" relative="1" as="geometry">
            <mxPoint x="-300" y="-136" as="sourcePoint" />
            <mxPoint x="-330" y="-531" as="targetPoint" />
          </mxGeometry>
        </mxCell>
        <mxCell id="p5U1fK6hS0jVrRYFhpGA-73" value="" style="endArrow=none;html=1;rounded=0;exitX=0.5;exitY=1;exitDx=0;exitDy=0;entryX=0.5;entryY=0;entryDx=0;entryDy=0;" edge="1" parent="1" source="p5U1fK6hS0jVrRYFhpGA-17">
          <mxGeometry width="50" height="50" relative="1" as="geometry">
            <mxPoint x="-290" y="-146" as="sourcePoint" />
            <mxPoint x="-330" y="-66" as="targetPoint" />
          </mxGeometry>
        </mxCell>
        <mxCell id="p5U1fK6hS0jVrRYFhpGA-74" value="" style="endArrow=none;html=1;rounded=0;exitX=0.5;exitY=1;exitDx=0;exitDy=0;entryX=0.5;entryY=0;entryDx=0;entryDy=0;" edge="1" parent="1" source="p5U1fK6hS0jVrRYFhpGA-17" target="p5U1fK6hS0jVrRYFhpGA-61">
          <mxGeometry width="50" height="50" relative="1" as="geometry">
            <mxPoint x="-280" y="-156" as="sourcePoint" />
            <mxPoint x="-240" y="-156" as="targetPoint" />
          </mxGeometry>
        </mxCell>
        <mxCell id="p5U1fK6hS0jVrRYFhpGA-75" value="" style="endArrow=none;html=1;rounded=0;exitX=0.5;exitY=1;exitDx=0;exitDy=0;entryX=0.5;entryY=0;entryDx=0;entryDy=0;" edge="1" parent="1" source="p5U1fK6hS0jVrRYFhpGA-17" target="p5U1fK6hS0jVrRYFhpGA-63">
          <mxGeometry width="50" height="50" relative="1" as="geometry">
            <mxPoint x="-270" y="-166" as="sourcePoint" />
            <mxPoint x="-230" y="-166" as="targetPoint" />
          </mxGeometry>
        </mxCell>
        <mxCell id="p5U1fK6hS0jVrRYFhpGA-76" value="" style="endArrow=none;html=1;rounded=0;exitX=0.5;exitY=1;exitDx=0;exitDy=0;entryX=0.5;entryY=0;entryDx=0;entryDy=0;" edge="1" parent="1" source="p5U1fK6hS0jVrRYFhpGA-17">
          <mxGeometry width="50" height="50" relative="1" as="geometry">
            <mxPoint x="-260" y="-176" as="sourcePoint" />
            <mxPoint x="-330" y="-531" as="targetPoint" />
          </mxGeometry>
        </mxCell>
        <mxCell id="p5U1fK6hS0jVrRYFhpGA-77" value="" style="endArrow=none;html=1;rounded=0;exitX=0.5;exitY=1;exitDx=0;exitDy=0;entryX=0.5;entryY=0;entryDx=0;entryDy=0;" edge="1" parent="1" source="p5U1fK6hS0jVrRYFhpGA-18" target="p5U1fK6hS0jVrRYFhpGA-61">
          <mxGeometry width="50" height="50" relative="1" as="geometry">
            <mxPoint x="-250" y="-186" as="sourcePoint" />
            <mxPoint x="-210" y="-186" as="targetPoint" />
          </mxGeometry>
        </mxCell>
        <mxCell id="p5U1fK6hS0jVrRYFhpGA-78" value="" style="endArrow=none;html=1;rounded=0;exitX=0.5;exitY=1;exitDx=0;exitDy=0;entryX=0.5;entryY=0;entryDx=0;entryDy=0;" edge="1" parent="1" source="p5U1fK6hS0jVrRYFhpGA-18">
          <mxGeometry width="50" height="50" relative="1" as="geometry">
            <mxPoint x="-240" y="-196" as="sourcePoint" />
            <mxPoint x="-330" y="-66" as="targetPoint" />
          </mxGeometry>
        </mxCell>
        <mxCell id="p5U1fK6hS0jVrRYFhpGA-79" value="" style="endArrow=none;html=1;rounded=0;exitX=0.5;exitY=1;exitDx=0;exitDy=0;entryX=0.5;entryY=0;entryDx=0;entryDy=0;" edge="1" parent="1" source="p5U1fK6hS0jVrRYFhpGA-18" target="p5U1fK6hS0jVrRYFhpGA-63">
          <mxGeometry width="50" height="50" relative="1" as="geometry">
            <mxPoint x="-230" y="-206" as="sourcePoint" />
            <mxPoint x="-190" y="-206" as="targetPoint" />
          </mxGeometry>
        </mxCell>
        <mxCell id="p5U1fK6hS0jVrRYFhpGA-80" value="" style="endArrow=none;html=1;rounded=0;exitX=0.5;exitY=1;exitDx=0;exitDy=0;entryX=0.5;entryY=0;entryDx=0;entryDy=0;" edge="1" parent="1" source="p5U1fK6hS0jVrRYFhpGA-18">
          <mxGeometry width="50" height="50" relative="1" as="geometry">
            <mxPoint x="-220" y="-216" as="sourcePoint" />
            <mxPoint x="-330" y="-531" as="targetPoint" />
          </mxGeometry>
        </mxCell>
        <mxCell id="p5U1fK6hS0jVrRYFhpGA-81" value="" style="endArrow=none;html=1;rounded=0;exitX=0.5;exitY=1;exitDx=0;exitDy=0;entryX=0.5;entryY=0;entryDx=0;entryDy=0;" edge="1" parent="1" source="p5U1fK6hS0jVrRYFhpGA-19" target="p5U1fK6hS0jVrRYFhpGA-61">
          <mxGeometry width="50" height="50" relative="1" as="geometry">
            <mxPoint x="-210" y="-226" as="sourcePoint" />
            <mxPoint x="-170" y="-226" as="targetPoint" />
          </mxGeometry>
        </mxCell>
        <mxCell id="p5U1fK6hS0jVrRYFhpGA-82" value="" style="endArrow=none;html=1;rounded=0;exitX=0.5;exitY=1;exitDx=0;exitDy=0;entryX=0.5;entryY=0;entryDx=0;entryDy=0;" edge="1" parent="1" source="p5U1fK6hS0jVrRYFhpGA-19" target="p5U1fK6hS0jVrRYFhpGA-63">
          <mxGeometry width="50" height="50" relative="1" as="geometry">
            <mxPoint x="-200" y="-236" as="sourcePoint" />
            <mxPoint x="-160" y="-236" as="targetPoint" />
          </mxGeometry>
        </mxCell>
        <mxCell id="p5U1fK6hS0jVrRYFhpGA-83" value="" style="endArrow=none;html=1;rounded=0;exitX=0.5;exitY=1;exitDx=0;exitDy=0;entryX=0.5;entryY=0;entryDx=0;entryDy=0;" edge="1" parent="1" source="p5U1fK6hS0jVrRYFhpGA-19">
          <mxGeometry width="50" height="50" relative="1" as="geometry">
            <mxPoint x="-190" y="-246" as="sourcePoint" />
            <mxPoint x="-330" y="-531" as="targetPoint" />
          </mxGeometry>
        </mxCell>
        <mxCell id="p5U1fK6hS0jVrRYFhpGA-84" value="" style="endArrow=none;html=1;rounded=0;exitX=0.5;exitY=1;exitDx=0;exitDy=0;entryX=0.5;entryY=0;entryDx=0;entryDy=0;" edge="1" parent="1" source="p5U1fK6hS0jVrRYFhpGA-20" target="p5U1fK6hS0jVrRYFhpGA-63">
          <mxGeometry width="50" height="50" relative="1" as="geometry">
            <mxPoint x="-180" y="-256" as="sourcePoint" />
            <mxPoint x="-140" y="-256" as="targetPoint" />
          </mxGeometry>
        </mxCell>
        <mxCell id="p5U1fK6hS0jVrRYFhpGA-85" value="" style="endArrow=none;html=1;rounded=0;exitX=0.5;exitY=1;exitDx=0;exitDy=0;entryX=0.5;entryY=0;entryDx=0;entryDy=0;" edge="1" parent="1" source="p5U1fK6hS0jVrRYFhpGA-20">
          <mxGeometry width="50" height="50" relative="1" as="geometry">
            <mxPoint x="-170" y="-266" as="sourcePoint" />
            <mxPoint x="-330" y="-531" as="targetPoint" />
          </mxGeometry>
        </mxCell>
        <mxCell id="p5U1fK6hS0jVrRYFhpGA-86" value="" style="endArrow=none;html=1;rounded=0;entryX=0.5;entryY=0;entryDx=0;entryDy=0;exitX=0.5;exitY=1;exitDx=0;exitDy=0;" edge="1" parent="1" source="p5U1fK6hS0jVrRYFhpGA-20" target="p5U1fK6hS0jVrRYFhpGA-61">
          <mxGeometry width="50" height="50" relative="1" as="geometry">
            <mxPoint x="-160" y="-271" as="sourcePoint" />
            <mxPoint x="-120" y="-276" as="targetPoint" />
          </mxGeometry>
        </mxCell>
        <mxCell id="p5U1fK6hS0jVrRYFhpGA-87" value="" style="endArrow=none;html=1;rounded=0;exitX=0.5;exitY=1;exitDx=0;exitDy=0;entryX=0.5;entryY=0;entryDx=0;entryDy=0;" edge="1" parent="1" source="p5U1fK6hS0jVrRYFhpGA-21" target="p5U1fK6hS0jVrRYFhpGA-99">
          <mxGeometry width="50" height="50" relative="1" as="geometry">
            <mxPoint x="-150" y="-286" as="sourcePoint" />
            <mxPoint x="-332" y="-547" as="targetPoint" />
          </mxGeometry>
        </mxCell>
        <mxCell id="p5U1fK6hS0jVrRYFhpGA-88" value="" style="endArrow=none;html=1;rounded=0;exitX=0.5;exitY=1;exitDx=0;exitDy=0;entryX=0.5;entryY=0;entryDx=0;entryDy=0;" edge="1" parent="1" source="p5U1fK6hS0jVrRYFhpGA-21" target="p5U1fK6hS0jVrRYFhpGA-63">
          <mxGeometry width="50" height="50" relative="1" as="geometry">
            <mxPoint x="-140" y="-296" as="sourcePoint" />
            <mxPoint x="-100" y="-296" as="targetPoint" />
          </mxGeometry>
        </mxCell>
        <mxCell id="p5U1fK6hS0jVrRYFhpGA-89" value="" style="endArrow=none;html=1;rounded=0;exitX=0.5;exitY=1;exitDx=0;exitDy=0;entryX=0.5;entryY=0;entryDx=0;entryDy=0;" edge="1" parent="1" source="p5U1fK6hS0jVrRYFhpGA-21" target="p5U1fK6hS0jVrRYFhpGA-61">
          <mxGeometry width="50" height="50" relative="1" as="geometry">
            <mxPoint x="-240" y="-306" as="sourcePoint" />
            <mxPoint x="-200" y="-306" as="targetPoint" />
          </mxGeometry>
        </mxCell>
        <mxCell id="p5U1fK6hS0jVrRYFhpGA-90" value="" style="endArrow=none;html=1;rounded=0;exitX=0.5;exitY=1;exitDx=0;exitDy=0;entryX=0.5;entryY=0;entryDx=0;entryDy=0;" edge="1" parent="1" source="p5U1fK6hS0jVrRYFhpGA-21">
          <mxGeometry width="50" height="50" relative="1" as="geometry">
            <mxPoint x="-230" y="-316" as="sourcePoint" />
            <mxPoint x="-330" y="-66" as="targetPoint" />
          </mxGeometry>
        </mxCell>
        <mxCell id="p5U1fK6hS0jVrRYFhpGA-91" value="&lt;font face=&quot;Lucida Console&quot;&gt;(Real(H), Imag(H))&lt;/font&gt;" style="rounded=0;whiteSpace=wrap;html=1;rotation=-90;" vertex="1" parent="1">
          <mxGeometry x="-506" y="-326" width="617.5" height="60" as="geometry" />
        </mxCell>
        <mxCell id="p5U1fK6hS0jVrRYFhpGA-93" value="&lt;font face=&quot;Lucida Console&quot;&gt;CELL&lt;/font&gt;" style="rounded=0;whiteSpace=wrap;html=1;rotation=-90;" vertex="1" parent="1">
          <mxGeometry x="-626" y="150" width="120" height="60" as="geometry" />
        </mxCell>
        <mxCell id="p5U1fK6hS0jVrRYFhpGA-94" style="edgeStyle=none;curved=1;rounded=0;orthogonalLoop=1;jettySize=auto;html=1;exitX=0;exitY=0.75;exitDx=0;exitDy=0;entryX=1;entryY=0.75;entryDx=0;entryDy=0;fontSize=12;startSize=8;endSize=8;" edge="1" parent="1" source="p5U1fK6hS0jVrRYFhpGA-95" target="p5U1fK6hS0jVrRYFhpGA-93">
          <mxGeometry relative="1" as="geometry" />
        </mxCell>
        <mxCell id="p5U1fK6hS0jVrRYFhpGA-95" value="" style="rounded=0;whiteSpace=wrap;html=1;rotation=-90;" vertex="1" parent="1">
          <mxGeometry x="-626" y="-810" width="120" height="60" as="geometry" />
        </mxCell>
        <mxCell id="p5U1fK6hS0jVrRYFhpGA-97" value="" style="rounded=0;whiteSpace=wrap;html=1;rotation=-90;" vertex="1" parent="1">
          <mxGeometry x="-360" y="-107" width="120" height="60" as="geometry" />
        </mxCell>
        <mxCell id="p5U1fK6hS0jVrRYFhpGA-92" style="edgeStyle=none;curved=1;rounded=0;orthogonalLoop=1;jettySize=auto;html=1;exitX=1;exitY=0.25;exitDx=0;exitDy=0;entryX=0;entryY=0.25;entryDx=0;entryDy=0;fontSize=12;startSize=8;endSize=8;" edge="1" parent="1" source="p5U1fK6hS0jVrRYFhpGA-93" target="p5U1fK6hS0jVrRYFhpGA-95">
          <mxGeometry relative="1" as="geometry" />
        </mxCell>
        <mxCell id="p5U1fK6hS0jVrRYFhpGA-98" style="edgeStyle=none;curved=1;rounded=0;orthogonalLoop=1;jettySize=auto;html=1;exitX=0;exitY=0.75;exitDx=0;exitDy=0;entryX=1;entryY=0.75;entryDx=0;entryDy=0;fontSize=12;startSize=8;endSize=8;" edge="1" parent="1" source="p5U1fK6hS0jVrRYFhpGA-99" target="p5U1fK6hS0jVrRYFhpGA-97">
          <mxGeometry relative="1" as="geometry" />
        </mxCell>
        <mxCell id="p5U1fK6hS0jVrRYFhpGA-99" value="" style="rounded=0;whiteSpace=wrap;html=1;rotation=-90;" vertex="1" parent="1">
          <mxGeometry x="-360" y="-573" width="120" height="60" as="geometry" />
        </mxCell>
        <mxCell id="p5U1fK6hS0jVrRYFhpGA-100" value="" style="rounded=0;whiteSpace=wrap;html=1;rotation=-90;" vertex="1" parent="1">
          <mxGeometry x="-626" y="-10" width="120" height="60" as="geometry" />
        </mxCell>
        <mxCell id="p5U1fK6hS0jVrRYFhpGA-101" value="" style="rounded=0;whiteSpace=wrap;html=1;rotation=-90;" vertex="1" parent="1">
          <mxGeometry x="-626" y="-170" width="120" height="60" as="geometry" />
        </mxCell>
        <mxCell id="p5U1fK6hS0jVrRYFhpGA-102" value="" style="rounded=0;whiteSpace=wrap;html=1;rotation=-90;" vertex="1" parent="1">
          <mxGeometry x="-626" y="-330" width="120" height="60" as="geometry" />
        </mxCell>
        <mxCell id="p5U1fK6hS0jVrRYFhpGA-103" value="" style="rounded=0;whiteSpace=wrap;html=1;rotation=-90;" vertex="1" parent="1">
          <mxGeometry x="-626" y="-490" width="120" height="60" as="geometry" />
        </mxCell>
        <mxCell id="p5U1fK6hS0jVrRYFhpGA-104" value="" style="rounded=0;whiteSpace=wrap;html=1;rotation=-90;" vertex="1" parent="1">
          <mxGeometry x="-626" y="-650" width="120" height="60" as="geometry" />
        </mxCell>
        <mxCell id="p5U1fK6hS0jVrRYFhpGA-105" value="" style="rounded=0;whiteSpace=wrap;html=1;rotation=-90;" vertex="1" parent="1">
          <mxGeometry x="-360" y="-256" width="120" height="60" as="geometry" />
        </mxCell>
        <mxCell id="p5U1fK6hS0jVrRYFhpGA-106" value="" style="rounded=0;whiteSpace=wrap;html=1;rotation=-90;" vertex="1" parent="1">
          <mxGeometry x="-360" y="-411" width="120" height="60" as="geometry" />
        </mxCell>
        <mxCell id="p5U1fK6hS0jVrRYFhpGA-107" style="edgeStyle=orthogonalEdgeStyle;rounded=0;orthogonalLoop=1;jettySize=auto;html=1;exitX=0.5;exitY=1;exitDx=0;exitDy=0;" edge="1" parent="1">
          <mxGeometry relative="1" as="geometry">
            <mxPoint x="-230" y="-76" as="targetPoint" />
            <mxPoint x="-270" y="-77" as="sourcePoint" />
            <Array as="points">
              <mxPoint x="-235" y="-76" />
              <mxPoint x="-235" y="-76" />
            </Array>
          </mxGeometry>
        </mxCell>
        <mxCell id="p5U1fK6hS0jVrRYFhpGA-108" value="" style="endArrow=none;html=1;rounded=0;entryX=0.5;entryY=0;entryDx=0;entryDy=0;exitX=0.5;exitY=1;exitDx=0;exitDy=0;" edge="1" parent="1" source="p5U1fK6hS0jVrRYFhpGA-95" target="p5U1fK6hS0jVrRYFhpGA-19">
          <mxGeometry width="50" height="50" relative="1" as="geometry">
            <mxPoint x="-526" y="-790" as="sourcePoint" />
            <mxPoint x="-400" y="-556" as="targetPoint" />
          </mxGeometry>
        </mxCell>
        <mxCell id="p5U1fK6hS0jVrRYFhpGA-109" value="" style="endArrow=none;html=1;rounded=0;entryX=0.5;entryY=0;entryDx=0;entryDy=0;exitX=0.5;exitY=1;exitDx=0;exitDy=0;" edge="1" parent="1" source="p5U1fK6hS0jVrRYFhpGA-102" target="p5U1fK6hS0jVrRYFhpGA-18">
          <mxGeometry width="50" height="50" relative="1" as="geometry">
            <mxPoint x="-509" y="-316" as="sourcePoint" />
            <mxPoint x="-400" y="-236" as="targetPoint" />
          </mxGeometry>
        </mxCell>
        <mxCell id="p5U1fK6hS0jVrRYFhpGA-110" value="" style="endArrow=none;html=1;rounded=0;exitX=0.5;exitY=1;exitDx=0;exitDy=0;entryX=0.5;entryY=0;entryDx=0;entryDy=0;" edge="1" parent="1" source="p5U1fK6hS0jVrRYFhpGA-102" target="p5U1fK6hS0jVrRYFhpGA-19">
          <mxGeometry width="50" height="50" relative="1" as="geometry">
            <mxPoint x="-516" y="-321" as="sourcePoint" />
            <mxPoint x="-390" y="-246" as="targetPoint" />
          </mxGeometry>
        </mxCell>
        <mxCell id="p5U1fK6hS0jVrRYFhpGA-111" value="" style="endArrow=none;html=1;rounded=0;entryX=0.5;entryY=0;entryDx=0;entryDy=0;exitX=0.5;exitY=1;exitDx=0;exitDy=0;" edge="1" parent="1" source="p5U1fK6hS0jVrRYFhpGA-103" target="p5U1fK6hS0jVrRYFhpGA-19">
          <mxGeometry width="50" height="50" relative="1" as="geometry">
            <mxPoint x="-526" y="-470" as="sourcePoint" />
            <mxPoint x="-400" y="-476" as="targetPoint" />
          </mxGeometry>
        </mxCell>
        <mxCell id="p5U1fK6hS0jVrRYFhpGA-112" value="" style="endArrow=none;html=1;rounded=0;entryX=0.5;entryY=0;entryDx=0;entryDy=0;exitX=0.5;exitY=1;exitDx=0;exitDy=0;" edge="1" parent="1" source="p5U1fK6hS0jVrRYFhpGA-103" target="p5U1fK6hS0jVrRYFhpGA-21">
          <mxGeometry width="50" height="50" relative="1" as="geometry">
            <mxPoint x="-516" y="-480" as="sourcePoint" />
            <mxPoint x="-390" y="-486" as="targetPoint" />
          </mxGeometry>
        </mxCell>
        <mxCell id="p5U1fK6hS0jVrRYFhpGA-113" value="" style="endArrow=none;html=1;rounded=0;entryX=0.5;entryY=0;entryDx=0;entryDy=0;exitX=0.5;exitY=1;exitDx=0;exitDy=0;" edge="1" parent="1" source="p5U1fK6hS0jVrRYFhpGA-104" target="p5U1fK6hS0jVrRYFhpGA-21">
          <mxGeometry width="50" height="50" relative="1" as="geometry">
            <mxPoint x="-526" y="-630" as="sourcePoint" />
            <mxPoint x="-400" y="-476" as="targetPoint" />
          </mxGeometry>
        </mxCell>
        <mxCell id="p5U1fK6hS0jVrRYFhpGA-116" value="&lt;font face=&quot;Lucida Console&quot;&gt;CELL&lt;/font&gt;" style="rounded=0;whiteSpace=wrap;html=1;rotation=0;strokeColor=none;" vertex="1" parent="1">
          <mxGeometry x="-591" y="150" width="50" height="60" as="geometry" />
        </mxCell>
        <mxCell id="p5U1fK6hS0jVrRYFhpGA-117" value="&lt;font face=&quot;Lucida Console&quot;&gt;CELL&lt;/font&gt;" style="rounded=0;whiteSpace=wrap;html=1;rotation=0;strokeColor=none;" vertex="1" parent="1">
          <mxGeometry x="-591" y="-10" width="50" height="60" as="geometry" />
        </mxCell>
        <mxCell id="p5U1fK6hS0jVrRYFhpGA-235" value="&lt;font face=&quot;Lucida Console&quot;&gt;CELL&lt;/font&gt;" style="rounded=0;whiteSpace=wrap;html=1;rotation=0;strokeColor=none;" vertex="1" parent="1">
          <mxGeometry x="-591" y="-170" width="50" height="60" as="geometry" />
        </mxCell>
        <mxCell id="p5U1fK6hS0jVrRYFhpGA-236" value="&lt;font face=&quot;Lucida Console&quot;&gt;CELL&lt;/font&gt;" style="rounded=0;whiteSpace=wrap;html=1;rotation=0;strokeColor=none;" vertex="1" parent="1">
          <mxGeometry x="-591" y="-330" width="50" height="60" as="geometry" />
        </mxCell>
        <mxCell id="p5U1fK6hS0jVrRYFhpGA-237" value="&lt;font face=&quot;Lucida Console&quot;&gt;CELL&lt;/font&gt;" style="rounded=0;whiteSpace=wrap;html=1;rotation=0;strokeColor=none;" vertex="1" parent="1">
          <mxGeometry x="-591" y="-490" width="50" height="60" as="geometry" />
        </mxCell>
        <mxCell id="p5U1fK6hS0jVrRYFhpGA-238" value="&lt;font face=&quot;Lucida Console&quot;&gt;CELL&lt;/font&gt;" style="rounded=0;whiteSpace=wrap;html=1;rotation=0;strokeColor=none;" vertex="1" parent="1">
          <mxGeometry x="-591" y="-650" width="50" height="60" as="geometry" />
        </mxCell>
        <mxCell id="p5U1fK6hS0jVrRYFhpGA-239" value="&lt;font face=&quot;Lucida Console&quot;&gt;CELL&lt;/font&gt;" style="rounded=0;whiteSpace=wrap;html=1;rotation=0;strokeColor=none;" vertex="1" parent="1">
          <mxGeometry x="-591" y="-810" width="50" height="60" as="geometry" />
        </mxCell>
        <mxCell id="p5U1fK6hS0jVrRYFhpGA-240" value="&lt;font face=&quot;Lucida Console&quot;&gt;CELL&lt;/font&gt;" style="rounded=0;whiteSpace=wrap;html=1;rotation=0;strokeColor=none;" vertex="1" parent="1">
          <mxGeometry x="-325" y="-107" width="50" height="60" as="geometry" />
        </mxCell>
        <mxCell id="p5U1fK6hS0jVrRYFhpGA-241" value="&lt;font face=&quot;Lucida Console&quot;&gt;CELL&lt;/font&gt;" style="rounded=0;whiteSpace=wrap;html=1;rotation=0;strokeColor=none;" vertex="1" parent="1">
          <mxGeometry x="-325" y="-259" width="50" height="60" as="geometry" />
        </mxCell>
        <mxCell id="p5U1fK6hS0jVrRYFhpGA-242" value="&lt;font face=&quot;Lucida Console&quot;&gt;CELL&lt;/font&gt;" style="rounded=0;whiteSpace=wrap;html=1;rotation=0;strokeColor=none;" vertex="1" parent="1">
          <mxGeometry x="-325" y="-411" width="50" height="60" as="geometry" />
        </mxCell>
        <mxCell id="p5U1fK6hS0jVrRYFhpGA-243" value="&lt;font face=&quot;Lucida Console&quot;&gt;CELL&lt;/font&gt;" style="rounded=0;whiteSpace=wrap;html=1;rotation=0;strokeColor=none;" vertex="1" parent="1">
          <mxGeometry x="-325" y="-566" width="50" height="60" as="geometry" />
        </mxCell>
        <mxCell id="p5U1fK6hS0jVrRYFhpGA-244" style="edgeStyle=orthogonalEdgeStyle;rounded=0;orthogonalLoop=1;jettySize=auto;html=1;entryX=0.5;entryY=0;entryDx=0;entryDy=0;" edge="1" parent="1">
          <mxGeometry relative="1" as="geometry">
            <mxPoint x="-630" y="19.809999999999945" as="sourcePoint" />
            <mxPoint x="-596" y="19.809999999999945" as="targetPoint" />
          </mxGeometry>
        </mxCell>
        <mxCell id="p5U1fK6hS0jVrRYFhpGA-245" style="edgeStyle=orthogonalEdgeStyle;rounded=0;orthogonalLoop=1;jettySize=auto;html=1;entryX=0.5;entryY=0;entryDx=0;entryDy=0;" edge="1" parent="1">
          <mxGeometry relative="1" as="geometry">
            <mxPoint x="-630" y="-141.81" as="sourcePoint" />
            <mxPoint x="-596" y="-141.81" as="targetPoint" />
          </mxGeometry>
        </mxCell>
        <mxCell id="p5U1fK6hS0jVrRYFhpGA-246" style="edgeStyle=orthogonalEdgeStyle;rounded=0;orthogonalLoop=1;jettySize=auto;html=1;entryX=0.5;entryY=0;entryDx=0;entryDy=0;" edge="1" parent="1">
          <mxGeometry relative="1" as="geometry">
            <mxPoint x="-630" y="-302.00000000000006" as="sourcePoint" />
            <mxPoint x="-596" y="-302.00000000000006" as="targetPoint" />
          </mxGeometry>
        </mxCell>
        <mxCell id="p5U1fK6hS0jVrRYFhpGA-247" style="edgeStyle=orthogonalEdgeStyle;rounded=0;orthogonalLoop=1;jettySize=auto;html=1;entryX=0.5;entryY=0;entryDx=0;entryDy=0;" edge="1" parent="1">
          <mxGeometry relative="1" as="geometry">
            <mxPoint x="-630" y="-460" as="sourcePoint" />
            <mxPoint x="-596" y="-460" as="targetPoint" />
          </mxGeometry>
        </mxCell>
        <mxCell id="p5U1fK6hS0jVrRYFhpGA-248" style="edgeStyle=orthogonalEdgeStyle;rounded=0;orthogonalLoop=1;jettySize=auto;html=1;entryX=0.5;entryY=0;entryDx=0;entryDy=0;" edge="1" parent="1">
          <mxGeometry relative="1" as="geometry">
            <mxPoint x="-630" y="-620.19" as="sourcePoint" />
            <mxPoint x="-596" y="-620.19" as="targetPoint" />
          </mxGeometry>
        </mxCell>
        <mxCell id="p5U1fK6hS0jVrRYFhpGA-249" style="edgeStyle=orthogonalEdgeStyle;rounded=0;orthogonalLoop=1;jettySize=auto;html=1;entryX=0.5;entryY=0;entryDx=0;entryDy=0;" edge="1" parent="1">
          <mxGeometry relative="1" as="geometry">
            <mxPoint x="-630" y="-781.81" as="sourcePoint" />
            <mxPoint x="-596" y="-781.81" as="targetPoint" />
          </mxGeometry>
        </mxCell>
      </root>
    </mxGraphModel>
  </diagram>
</mxfile>
